<mxfile host="app.diagrams.net" agent="Mozilla/5.0 (Macintosh; Intel Mac OS X 10_15_7) AppleWebKit/537.36 (KHTML, like Gecko) Chrome/130.0.0.0 Safari/537.36" version="24.8.3" pages="2">
  <diagram name="phz-internal-alb" id="ycFfa1O9ZTjUXO1vYELQ">
    <mxGraphModel dx="1266" dy="814" grid="1" gridSize="10" guides="1" tooltips="1" connect="1" arrows="1" fold="1" page="1" pageScale="1" pageWidth="850" pageHeight="1100" background="none" math="0" shadow="0">
      <root>
        <mxCell id="k8oE8rLJ_aR2Wur4B68Q-0" />
        <mxCell id="k8oE8rLJ_aR2Wur4B68Q-1" parent="k8oE8rLJ_aR2Wur4B68Q-0" />
        <mxCell id="cDpMovdqKkp22i0HmyFA-8" value="&lt;div style=&quot;text-align: center;&quot;&gt;&lt;span style=&quot;text-align: left;&quot;&gt;&lt;font color=&quot;#232f3e&quot;&gt;private-subnet&lt;br&gt;&lt;/font&gt;&lt;/span&gt;10.15.0.0/24&lt;/div&gt;" style="points=[[0,0],[0.25,0],[0.5,0],[0.75,0],[1,0],[1,0.25],[1,0.5],[1,0.75],[1,1],[0.75,1],[0.5,1],[0.25,1],[0,1],[0,0.75],[0,0.5],[0,0.25]];outlineConnect=0;gradientColor=none;html=1;whiteSpace=wrap;fontSize=12;fontStyle=0;container=0;pointerEvents=0;collapsible=0;recursiveResize=0;shape=mxgraph.aws4.group;grIcon=mxgraph.aws4.group_security_group;grStroke=0;strokeColor=#232F3E;fillColor=#E6F6F7;verticalAlign=top;align=left;spacingLeft=30;fontColor=#147EBA;dashed=0;" vertex="1" parent="k8oE8rLJ_aR2Wur4B68Q-1">
          <mxGeometry x="1150" y="540" width="490" height="180" as="geometry" />
        </mxCell>
        <mxCell id="NqxRcppyMZP1TzHfi3GJ-32" value="&lt;div style=&quot;text-align: center;&quot;&gt;&lt;span style=&quot;text-align: left;&quot;&gt;&lt;font color=&quot;#232f3e&quot;&gt;private-subnet&lt;br&gt;&lt;/font&gt;&lt;/span&gt;10.15.0.0/24&lt;/div&gt;" style="points=[[0,0],[0.25,0],[0.5,0],[0.75,0],[1,0],[1,0.25],[1,0.5],[1,0.75],[1,1],[0.75,1],[0.5,1],[0.25,1],[0,1],[0,0.75],[0,0.5],[0,0.25]];outlineConnect=0;gradientColor=none;html=1;whiteSpace=wrap;fontSize=12;fontStyle=0;container=0;pointerEvents=0;collapsible=0;recursiveResize=0;shape=mxgraph.aws4.group;grIcon=mxgraph.aws4.group_security_group;grStroke=0;strokeColor=#232F3E;fillColor=#E6F6F7;verticalAlign=top;align=left;spacingLeft=30;fontColor=#147EBA;dashed=0;" parent="k8oE8rLJ_aR2Wur4B68Q-1" vertex="1">
          <mxGeometry x="1145" y="288" width="495" height="180" as="geometry" />
        </mxCell>
        <mxCell id="k8oE8rLJ_aR2Wur4B68Q-2" value="&lt;div style=&quot;text-align: center;&quot;&gt;&lt;span style=&quot;text-align: left;&quot;&gt;&lt;font color=&quot;#232f3e&quot;&gt;private-subnet&lt;br&gt;&lt;/font&gt;&lt;/span&gt;10.10.0.0/16&lt;/div&gt;" style="points=[[0,0],[0.25,0],[0.5,0],[0.75,0],[1,0],[1,0.25],[1,0.5],[1,0.75],[1,1],[0.75,1],[0.5,1],[0.25,1],[0,1],[0,0.75],[0,0.5],[0,0.25]];outlineConnect=0;gradientColor=none;html=1;whiteSpace=wrap;fontSize=12;fontStyle=0;container=0;pointerEvents=0;collapsible=0;recursiveResize=0;shape=mxgraph.aws4.group;grIcon=mxgraph.aws4.group_security_group;grStroke=0;strokeColor=#232F3E;fillColor=#E6F6F7;verticalAlign=top;align=left;spacingLeft=30;fontColor=#147EBA;dashed=0;" parent="k8oE8rLJ_aR2Wur4B68Q-1" vertex="1">
          <mxGeometry x="443" y="420.02" width="420" height="179.98" as="geometry" />
        </mxCell>
        <mxCell id="NqxRcppyMZP1TzHfi3GJ-160" style="edgeStyle=orthogonalEdgeStyle;rounded=0;orthogonalLoop=1;jettySize=auto;html=1;fontFamily=Helvetica;fontSize=12;fontColor=default;labelBorderColor=none;" parent="k8oE8rLJ_aR2Wur4B68Q-1" source="k8oE8rLJ_aR2Wur4B68Q-9" target="NqxRcppyMZP1TzHfi3GJ-40" edge="1">
          <mxGeometry relative="1" as="geometry">
            <Array as="points">
              <mxPoint x="648" y="373" />
            </Array>
          </mxGeometry>
        </mxCell>
        <mxCell id="NqxRcppyMZP1TzHfi3GJ-163" style="edgeStyle=orthogonalEdgeStyle;rounded=0;orthogonalLoop=1;jettySize=auto;html=1;fontFamily=Helvetica;fontSize=12;fontColor=default;labelBorderColor=none;" parent="k8oE8rLJ_aR2Wur4B68Q-1" edge="1">
          <mxGeometry relative="1" as="geometry">
            <mxPoint x="672" y="496.02" as="sourcePoint" />
            <mxPoint x="769.9805681430812" y="496.02" as="targetPoint" />
          </mxGeometry>
        </mxCell>
        <mxCell id="k8oE8rLJ_aR2Wur4B68Q-9" value="Client EC2 Instance" style="sketch=0;outlineConnect=0;fontColor=#232F3E;gradientColor=none;fillColor=#232F3E;strokeColor=none;dashed=0;verticalLabelPosition=bottom;verticalAlign=top;align=center;html=1;fontSize=12;fontStyle=0;aspect=fixed;pointerEvents=1;shape=mxgraph.aws4.instance2;" parent="k8oE8rLJ_aR2Wur4B68Q-1" vertex="1">
          <mxGeometry x="624" y="479.02" width="48" height="48" as="geometry" />
        </mxCell>
        <mxCell id="k8oE8rLJ_aR2Wur4B68Q-10" value="Client VPC&lt;br&gt;10.10.0.0/16" style="points=[[0,0],[0.25,0],[0.5,0],[0.75,0],[1,0],[1,0.25],[1,0.5],[1,0.75],[1,1],[0.75,1],[0.5,1],[0.25,1],[0,1],[0,0.75],[0,0.5],[0,0.25]];outlineConnect=0;gradientColor=none;html=1;whiteSpace=wrap;fontSize=12;fontStyle=0;container=1;pointerEvents=0;collapsible=0;recursiveResize=0;shape=mxgraph.aws4.group;grIcon=mxgraph.aws4.group_vpc2;strokeColor=#232F3E;fillColor=none;verticalAlign=top;align=left;spacingLeft=30;fontColor=#AAB7B8;dashed=0;" parent="k8oE8rLJ_aR2Wur4B68Q-1" vertex="1">
          <mxGeometry x="400" y="290" width="513" height="330" as="geometry" />
        </mxCell>
        <mxCell id="k8oE8rLJ_aR2Wur4B68Q-31" value="" style="sketch=0;outlineConnect=0;fontColor=#232F3E;gradientColor=none;fillColor=#232F3D;strokeColor=none;dashed=0;verticalLabelPosition=bottom;verticalAlign=top;align=center;html=1;fontSize=12;fontStyle=0;aspect=fixed;pointerEvents=1;shape=mxgraph.aws4.authenticated_user;" parent="k8oE8rLJ_aR2Wur4B68Q-1" vertex="1">
          <mxGeometry x="153" y="472.25" width="50" height="50" as="geometry" />
        </mxCell>
        <mxCell id="NqxRcppyMZP1TzHfi3GJ-203" style="edgeStyle=orthogonalEdgeStyle;rounded=0;orthogonalLoop=1;jettySize=auto;html=1;fontFamily=Helvetica;fontSize=12;fontColor=default;labelBorderColor=none;" parent="k8oE8rLJ_aR2Wur4B68Q-1" source="k8oE8rLJ_aR2Wur4B68Q-38" target="NqxRcppyMZP1TzHfi3GJ-13" edge="1">
          <mxGeometry relative="1" as="geometry">
            <Array as="points">
              <mxPoint x="233" y="397" />
              <mxPoint x="233" y="397" />
            </Array>
          </mxGeometry>
        </mxCell>
        <mxCell id="k8oE8rLJ_aR2Wur4B68Q-38" value="" style="shape=image;verticalLabelPosition=bottom;labelBackgroundColor=default;verticalAlign=top;aspect=fixed;imageAspect=0;image=data:image/png,iVBORw0KGgoAAAANSUhEUgAAAwQAAAGUCAYAAACLAuWIAAAABmJLR0QA/wD/AP+gvaeTAAAACXBIWXMAAC4jAAAuIwF4pT92AAAAB3RJTUUH4QocCiUrCGs+cAAAIABJREFUeNrt3XeYJFW98PHvbF6WJboEG5QsOQsIomNAEbQEQQUtQZCLAbkYAAVFwQTI1cuLKCqoCC2IXgktiCBIoyIKokiOEkvyLhk2zvvHOe329vbErp5O38/z9DMzPV3V1edUVZ/fiSBJkiRJkiRJkiRJkiRJkiRJkiRJkiRJkiRJkiRJkiRJkiRJkiRJkiRJkiRJkiRJkiRJkiRJkiRJkiRJkiRJkiRJkiRJkiRJkiRJkiRJkiRJkiRJkiRJkiRJkiRJkiRJkiRJkiRJkiRJkiRJkiRJkiRJkiRJkiRJkiRJkiRJkiRJkiRJkiRJkiRJkiRJkiRJkiRJkiRJkiRJkiRJkiRJkiRJkiRJkiRJkiRJkiRJkiRJkiRJkiRJkiRJkiRJkiRJkiRJkiRJkiRJkiRJkiRJkiRJkiRJkiRJkiRJkiRJkiRJkiRJkiRJkiRJkiRJkiRJkiRJkiRJkiRJkiRJkiRJkiRJkiRJkiRJkiRJkiRJkiRJkiRJkiRJkiRJkiRJkiRJkiRJkiRJkiRJkiRJkiRJkiRJkiRJkiRJkiRJkiRJkiRJkiRJkiRJkiRJkiRJkiRJkiRJkiRJkiRJkiRJkiRJkiRJkiRJkiRJkiRJkiRJkiRJkiRJkiRJkiRJkiRJkiRJkiRJkiRJkiRJkiRJkiRJkiRJkiRJkiRJkiRJkiRJkiRJkiRJkiRJkiRJkiRJkiRJkiRJkiRJkiRJkiRJkiRJkiRJkiRJkiRJkiRJkiRJkiRJkiRJkiRJkiRJkiRJkiRJkiRJkiRJkiRJkiRJkiRJkiRJkiRJkiRJkiRJkiRJkiRJkiRJkiRJkiRJkiRJktSF+tr1wNIkm1IsFebF3ymWCuaWtKRXAJtW/T0fuGaI108FdgIWxb8nAdcCL7TwM2wDvBa4F7gReGIM+1gTWA8YiH8/Bdw8zDarAJsBC+N98AXgQeBRTytJktonINg2TbK/pkm2bppkfaaItJS9YiG48pgzzOsLNa8fADZv8Wc4tOZ4fjeGfRxes49L67ymD1gXKNVJg9rHw8ABnl6SpF4xoY2PbQGwHXAH8JM0yWbFQMFck4JKAbb6mhnLPlr9GarNH8M+FtX8vbDOa04D7gHeNYL9FYBNPL0kSQYE7WEhoVvD/sDjaZJ9qHLMBgaSRuhjwEdHuc31JpskqVdM6rDjPQs4Ok2yo4ulwgWOLZAE3A9czuKWghtq/n9MnW0eJXQfeib+PQBsAawDrA/8yWSVJBkQtK8NgfPTJCsDe6ZJ9nSxVHDgsdS7zo+PelYBXlnz3KXAbiabJEmdGxBU9ANPAmenSXaAQYGUiw0IMxdtSuhL/wrCgNzbCDMBXUqoXe+j/viDiYTBzpsCG7F4Bp+7gceAfxBmAJo7yPtXTyCwPvBmwixCmwI3AT8kDPqttk78f+V4HgOui7+vUec9jm4gfXYCXgdsCUwnDOT+J/DXqvesd6+aGX9/EbiaxeM9DozbV1o1dgGmEbpG3g7cFZ9/N2EA+NaEVo2/EcZFLPSUlST1ckBQKXx8GPhwmmR7AL8F5hoYSKPWFwvcmw7y/z2rfj+D0C+/tjCaABeN4L1eB/xlkP9NAPYDTiLU7ld7N6H7z24sOZPQXsA3q/6+HHh7/L1e0DKWqUW3Aa6qKtjXcwuwN3BnzfM/iIEWwOyYxlsCvwRmAJ+rCgh+DqwUf784bnsRS4/32h/4DvAmoOzpK0lqxIQu+iwXAtemSfZ2gwFp1AZiQDASBwHn1dw/thhhMMAQwQCEGvKf1gkGqn2PUDtfURuYzM85bT5BqJGfOczrKq0YW9Y8P6/q9+ViAf43MRiAMB1qvdfuBvx6mPv0lYT1JSRJGrNJXfZ5tgJ+mybZb4GDiqWCUxGpl0wkdJ8ZbN2OVYfZ/kZgH+A5Qjefyn76gBVrCp67AisQarwB3lmnUP4koYvMMvG56cCzwxzDSNYcWZXQFejucUjTacBXap5bCDxN6Pa0TEyHiinAFYSuVoPdczeoeW67QV5bHQi8FN9zWsyL6tf8bwxaJEkakwld+rl2BW5Lk+yHaZJNBKcpVU9YkdDP/55BHtcMs/0PCX3UtyCs/Lt+/LkBoTtQ9YrGM1iyf/6KNfs6t2r7yj42Z3FXnuE8CZwQX/8plmwF6BvHe9fuwMo1wcB/ARvHz7UpcFTNNisDO49w/1cw9CJoCwjdg7auSsvaGZDe76kvSTIgqG+5+MX9ZJpkexFqTw0MpME9Qxjg+gChRvoFQg3/c7Hg+kTN6zeu+r22r/7zVQHEi/HvhwgLDQ7lUeC9wKxY0L4c+DFLDyQeL/01f98O/AR4PKZRFgOX2TWv22GY/d5FGEuxC6FlZjB7EKZbviOm42zgCzWvmeypK0kyIBjaCsD/ATekSfbmymxEkkZlEUv2b688V1Hb/fCDwJl1CtTD+Xu8XmvvU30t+tzb1CnI13N5zd/rDLHP82Mw9ZcRBmm1png6SpLyNKmHPusWwJVpkp1BmKnkUcCpStVNXibUpg9WeJ5BmMFnKDOBV8XHOiyu+Z/Pkn3la11J6NpTsTyhq8v+8e9fEAYDX0eoWR9MX5ul6YQRHt/zNX8PDLHPxxn5dKF9ntaSJAOC/B0EvD9NstOKpcLnDAbURZ4HDhni/6sOExBUVuhdZQzvfQlQBNJB/v+++LiZMJZAkiS1iQk9+rlnAkemSTYnTbJdHHgsKwBYhjBOYNYY9z0AfIjQxeY3hK419WYU2gz4ZBem7YCnlyTJgKAzrUDo+3t9mmRr2VqgHrYSoWWg0kVlAaGLz0cIg/M/TFgBeDh/J8zMsyWhn/yBdV7zjhZ/1tGs7jtxhK9b1VNIkmRA0Nm2Au5Lk+ykNMmMCtSLliHMcV9xP/DfhDEJZxAWC3tmFPurzMDzE+DbNf8bz4W06hX+9xzF9n+pU4lQT+1aAs/ldPyL6jznrEKSJAOCJjqcsH7B8ZUn7EakHtU3SNAwmFWBtQb5X203pInj+Dnqrb58KnAiYaKBTaoeewJHAn+tClr+WLPtzoSpQqsdC6xW89yvczr+ei0PteseTPJ0lSQ1wi+SpS0HfD5NsgQ4rFgqXFEJDOxSpC72AqFWf3r8e13gYuB6QgvaO4fZfu9Y0IawZsBf4v1lFrBTzWuvGufPdjqh21PF5FjwP3KIbXaMx3k+YUXiqVX3zMsJazK8QFiEbGbNtk+x9OJhY/Wr+PO+GEitTJgtqtpPPX0lSY2whWBwGwOXpUn2zzTJ1nP9AnW5JwjdhKrtSpii950j2H6rqt/XiAHCHnWCAQi18+Pp84yuuxOElYEhjKU4vs7/ZxFaRGbW+d8eTfgMaxOmgp1R53+f8PSVJBkQNDd9NgfuTpPsOGLzvYGB2sREluzas8wwr+8b4h4wjzAA+MlBtr2XMB6gWnUL40zCOghDeYSwYNncqudq+8NPG+S4l6l5Td8Q+6gdozAbKBBaPJ4YYdq+uur344DDCCs4D+UWYB+Wbh2YXvN3XguLZcB7cIYjSVKD2nbRmzTJtgT+xvj2Nx7Oc8A3iqXCCZ46agNTCQuAVSwaokBfKfzPqipA9hG6tyyoes1ysZC5TXzdv4GfExbTejEGxZXtn6kq3E+NhfY147bbsHhAb1/cx80sPdh2OkvWss8Dnq5zn1qp6l4wEAv5C6sCoWWrXj+X+i0CffF1GxNmOlqppjB9E/DPGPy8zNILqE0n1NTvTei6U9nnbcClMeCZV+d9V6oJnl5i8EHHj7DkeIS94ntsGfOm8vkvjPfH570MJEkGBK1xI/C5YqlweTxWxxdIykNtQLAz+Y1HkCSpLrsMjc2WwG/SJPtzmmTTHF8gqUn6TAJJkgFB+5oIvA54KY4vWAEcXyBJkiQDgl70JeDRNMk+aNchSZIkGRD0pqlA0WSQlCO7DEmSms6FySSpfVQmUbgTKLP02hCSJOXOFoImqx5T4PiC8dffX5psKqiDvIbQKrAh8DHgQZNEkmRA0PmmpUn2+zTJVnM2onEJACo/J/T3l04B/p+pog4yxySQJBkQdKfXAo+kSfYDYBWwtaBZgUC5nNDfXzqA0OXiUOovFCVJkiQDgnFVWVH14BgYHFSZjcjAINdAYKP+/tKtwI+B9eJLHJQpSZI0BAcVtyYIOz1NssOArxVLhfNMkrEHAzEQWBs4FtjPVJEkSTIg6BSbAj9Pk+xo4E3A7MoYA9cyGD4IgP+0CnwS+I4pI0nD6iNUSk0ktFy/DdgImAUM1Hn9E8BthNmu7gcWVT0GTE7JgED52Rx4HPhemmRHF0uF5w0KBlcJBvr7SwcCR7G4a5Akqb6pwAeAXYANCBVSU8ewnznAA4TZr+4H/gBcDTxpEksGBGrcRMIA2EPTJHsPcBGhBkYs0TWoD1gJuArYzJSRpCEtC3wV+FRO+1sxPraMf/93/Hki8HmTW+pcDipuP+cD16VJ9q7KE70+8DgGA8sAPyLURBkMSNLQTgQezjEYGMpzJrfU2WwhaE/bAKU0yS4APlIsFeZUAoNe60rU31+aCuwNFD0tJGlYM4ErgO3G8T2dLk8yIFAT7Qm8LU2y04Bji6XCC90eFFQPGu7vL+0NfBHYwlOhrtWArejtqVUnADcAj3g6SKwM/B141Ti+50JcUVsyIFDTzQAOBz6ZJtmehJqfBd0aGMTuQasD/wfsaPYP6fXAL00GUuBnJoPEP4Hx/mJYaEAudT7HEHSOacClwDVpkr2um4KByuJi/f2lmf39pR8DdxsMjIhT/y0ukEi97uctCAYq96HZJr9kQKDxtR3w5zTJzk2TbNVuCASASf39pX2Bx4ADCK0ikqSRWZ/QxbRVAfljZoFkQKDW2Ae4M02ykypPdNJsRFVTib4b+BtwDjDdbJWkUTsFmNKi9/6XyS8ZEKi1lgcOT5NsfppkOxPWM2jrIKDKav39pfOBC3HQsCSN1drAri18/zvMAsmAQO1hEmHFyL+lSbYxtGdrQdXsQacC99C6Jm5J6hZfbPH7X20WSAYEai9bAremSfZNwmqStDo4qBowPLm/v/TO/v7SAuAQHCcgSY2awuJVg1vlz2aDZECg9nQE8K80yU4AKJYKLQsK4jiBrYHrgV/T5t2aJKmDLA+sk/M+7wPuBM4FrgLuBR4Y4vU3mg1S53Mdgu61AvC5NMn2Bj4MXAssHM/1C/r7S2sARwGfMDskKXcz4r2+UU8TBiafALw0xOsmAusBbwc2AnbAqY+lrmALQfdblzC+oJwm2QbNbC2oHjTc31/6LnCrwYAkNc1WOexjDrAB8OVhggEIU4zeGYOHj+f0/pIMCDRO+gir2t6ZJtmXgdUhv7EFNesJ7NLfX3ogBgLLmfSS1NYBwc7AEyalZECg3nIscHOaZIfn0XWoaj2BrYC/A5cBrzKZJanpZjW4/V2EMQKSDAja+tgcgNocKwMnpUl2V5pk2481EIgK/f2lb8ZgYDNCa4QkqfkaHT9wPzDPZJTUzgHBrcCpZlFTrQ/8KU2y69MkWxlG3o0otgp8PebTESZlS/QZgLX9fUxqps0a3H4OsMhklNS2swwVS4W5wKFpkp1FGMC0g9nVtHNgW+DJNMmOAE4Hnql9UaVrUPx9F+AM7BrUarcBX2liUDAX+CxVa1qMwSPxXGnm+Xuzp4J61ECLt5dkQNB8cYrM69Mke0MMCK7GGtFmOgn4appkBxdLhbOr/xFbBF4BXEGolbJWtvVuJ8wM0kwHNBgQ/Bv4klklte09RJLau1BXGfRaLBXmF0uFPxZLhQnA/wDPm3VNMxU4K02y/jr/ewLYwmBAo2QQL7WnBSaBpLYPCKpV+rYXS4UjgDWBX5p9TSu8LQDmmxSSJEkGBG2jeorMYqnwdLFUeB/wZuA6s1GSJEnq8oCgVhxfcBVhbMHbGX6FRUmSJEndEhBUtRgMFEuFywlz658KvGi2SpIkSV0eEFQHBrG14CXgUMJUmJeatZIkSdLwJnXDh6gZX/AUsFuaZLsCXyXMsS+pN6xMmAlrY+DVwNbAcoSJCAaA1Wpev4gwe1YfcC9wD/AgcAtwB3BjF6bRNGB3YDfgQGBV4PE2Or6dgb2B9wFHAWeOcT99wFoxz9eOn/OV8XzYOJ4PG8VzYBKwUp19zCFMsDARuAl4AXggniO3AQ/H51u1uNfCBref24bn58SYP5vH63YjQkXfajGPJgCvGOI6vht4ljClauVavgV4rAuv5eWBXeP1/Drg9W34OZeJ9+Q1gfWAAmHq8nVjXq9a8/rHgfvidXVFfMxuwnGtEI9nA+A18R6xZnwsC8xiyUrzfwP/Av4B/AG4DHjOgKAzAoPfpkn2O2AfoGg5SepaE+J1/vV4M+9j5K2fE6q+kFaJX6rEwuJALHBdChweCxrN8MtYAB7NzF6TGf10rpOBLxDWrhio2n7ZIQKCTwLfGcOxfRz4/iiPLwV+GAOWyrFtOcp97BkLSP3AOixezXusq3pXr8Hxppr/VZ8jvwa+FgsLjZoVC3UjmRK00e/wbwLHNxBwXQW8Lafr4M3AMTHvFo0yz2qvY4B3VAULA7FAdybwDeDlJl3L3yb0VBjNgm/zgdfGAHM097zjgcOAKTGdXhjmvvdhwsKjA028x1SsBhwE7B8L2qO5BleJj+3jPhYBxxEqeBtVAD4dKxsKVefxSI7rlfHx+nhfXBi/c47tpi/SrlUsFRYWS4WfxRqhk3GJdqmb7AKcHW/MPyPUBk/M6b5WCSomAwlwF/B3wkJteZtY9QU80kelADUSWwI/ItSyfbnq81VsP4LviNEe21YjPLZlgCMJNe1nA9Nrjm3lIbZdB/hYzPubY0HnfOBgQq3fpKrzoRlrYVSfI++J58eDsfCyRoP77RthWjf6uSaMMm+rH5NiYbQR28WA8zngyhgMkHOeTYjnwZox4Hgpvtf+TbqWJ40yHaeO4nzZmrDy+9x43UytSqcZMZgeKh0mjfI63m+Ex7VuDOjPjMHsI7EAv16D12Bf3P4r8fraeJTbrxkrJ86JlR4PA5+Nz09o8LgmxfvpTcD6BgQdII4veC5GhSsDt1qOkjracrEAeHn8EhovWwE/JkxcsFUbpMN2w/x/OvA7Qq31gYSWgHpe06S0Gu675zOEWs0TWVxbV6+gMZjjgdOADwCbtsm5uSZhZe6HgBPo/kX5bhnjdivEQvlfCbWty47zcb85Fl6fH0Vg3SwTRxAQLEdoqbwB+AiDtwy9Oudj+9gw/38joZvlPTGg35/FLTTNuKfcNMJzZbdYifMg8D1gX0LLWzNsFt+r44OCrg8IqlY7rqxfsGmszbnDcpXUMSoFqyMJNT2tLABOJ9RWndriNNlikOdXJqzo/hzw1hHsp9CEY9t6iP8dGr+ovzWC/cxkcW1lXoXR8fI54HpCLWm3X5ejcQTwaBsUxCHUql8J/JbQ4tQqaw1RwD8ZeJrQFW44eZ9r27J0K10/i1scy8ME7c0InjLCmJJ6wcn34/fDJS0ooF8d71cGBB0WJFxQLBU2IrQauCKv1P4G4hf3iYRm8nZwCGFcwbQWvf8ede7nnwCeJDSLTxzhfjZswrEtYslBun2EftLzgVNGEYRMHOJzXNQB5+02hFbptbv0uhzNANZlYyD9zTa6hiveTphU4B0tev/N6jz3UcIg1sNGEXi9tgllxC3jz50JA7evIrQ4rtiitFqO0PpWsSOhRa4c02xWi45rdeCPBgQdKHYlOjl+GZ5seUtqWzOBf9IeNYq11iN0y5nYgvfuY3Ef7ncQaqO/O4b9TG/Cd8EEFtccbkgYdHsdox8EuwKDdxG4qUPO3ykxcNyoC6/Nkc5OtRJwLe3R1W4ovyFMIDDeqlsn3hGDyO+P4bpcK+fjmggcHe+/f2Dp2Z1aZV9CC9zNwDU0NmYnT1sA7zUg6DBVMxL9q1gqfJowetzxBVL7+T1hCsJ29XpaUzM0IRYAfhoLMluPcT/TGLxbTiPHthrwKcL0j7uPcT/LxoBlMA91yDk8ETiPxgfhtpuR1FwvF4PVTTvkM51EGBg+nippc0G8ljce436aUTB+c5vm3Qltelz7derF3LMBQXVgEFsLHonjC/YhDBCR1PrCxll0xloiryN01xlPkwi15I1+AS1PmO2nGXn3vw3uZ9owheiHOuh83owumqKQ0C3swRG87ipa2z9/LL4YA/3xLIs9xtLdAEdrY9Rq7yS0bBoQdGpQAP/pRnResVR4DWGaK0mtsxXwoQ463u8y9DSZzQiY8uiLPYPm9OnO40txMkO3EFzXYef0UdQfENnJQftQfsTYW65aXTb6I+PbFXAV1C2Oo0NPetUEBvH3LxNqNb5vykjjbgqhq1Cn+XkHHvNU8u8ylKehZjHpxG6eR3bJNbqIMN/8YDamOet2jKdL6bypY9f066Pl9jUg6D73FUuFjxPm6X6E0a0+KGnsjiN0Zek0ryMsitVJlmH854EfjdWHukcTFqbrJLu1eQA2GkPN0lei89dh2IXOGftQsR1qtRVpn4HOBgR5qBpfcFexVHgl8EHCokSSmmc6HVrDQuh+8+EOPO5CGx/bUDPTPE7nTR29Nt1RizsAPDXI/z7A+M5P30xnddjxzkTtULbuuPVHJplvwwcFVb+fC5ybJtlphL7NM0whKXevJd8VN18gtPBdAtxIWO1zIqFmeUtgE8JgvjVyuqY/T5iqr5O086DPoVpcMmAe9deCWBCDhcrPuYTF2m4k1NBfyeCVYq+KBffNCPOaTyff9SYOi4/BCtoD8bhH8h3eSC38IsbewjIvXlv1CkP/1YTzYBHwUnzfBVXpU5l+d2LMp7xnctqS0EpwS4dcyx2/Ym4X6GPJdVgMCLpRbDH4eJpk3yYMPN7HVJFy9bWc9jM/Fs5/BTwwyGturirErxmv52/m8GWwC2F9gk7RzrVZQw3Unl1VAPw3Yb7/PxBmivsX8CzwDGGl1+fG+P4rEKalfjfwjZw+00FDBARPE2a4Ga6L6guEaSobCeZOB84cY1AxADxf5/llyXeGngWE2Zn+FAPAJ2JeLqp5zxnxGt4AOJiwcm1evkznzC//atQOAUGh0w7agGCUqloM7i6WCvumSXYKcK4XoZSLGYQVMRuVAW+KBcSReogwB/nfgctobIaRj3VAQLAofuaPAb9tw+ObHQuC34lfsIMVkPcgzAjTrO6cT8fHbcC347nV6GxSyxD6Gc8ZJJD98wj30+hnfhD4S87ptVdOZYtFhEk9DhnBa5+Pj8eAvwHnxPvIBeQz89fWhK44z7XptTyfMJ7mo4QVe9vFizFwnRsD9tuBHQhrU6xCaxZ0rBxX5fE0odVw+xj8r5zT+dtpU+06hqCRwCC2FlxLWInz3aaK1LA9ctjHo4R+53ePcfsrgfc1eAwbt/DLbiQuiF/M67RRMFAp8N8Xz4NCDAZg6Nryyxi/sV1zCauRPpXDvtbr0mv4kznt560jDAYG80fCOIbrcziWtWjfSQ5+SWiR2aRNgoF5hOlmdyd0/1yf0HKzPWF81YaE7njbxSBhvMwBvgf0A9sQWpJeHa/n/eNxrQskLO6214hpnXbhGhA0GBRELxdLhRKOKZAatWMO+ziK0K2gEecz8lrael5B6HveTgYI3WheD7wnFpQWtdHxPQF8PAYpFwEvt+k5mgGn5bCfdbr0Gs5j3YH3EBY0a9QzsSDa6Lk0AXhDG6XxQsKYhg1i5cV1jGzMSTML22VCV8mphC5xvyG0qj0zSGD9D+AdNHdSgEfjvXxTQp/+Q4CrgTuo3zr3AmGq2bfS+AxZHTcrpQFBjoFBsVR4MU0yE0Qa+/2o0VrTxwl9ovNwXgPbTif/1X8bcTuwUyxAXNNm+f4ccCChtq5T1n05IYd9LNeF13AeheargQtzDoT7c9jPW9okjW8ljI9opBU0LzcTatQ3JXTRvGKU+XJTvGfn7VcsbgXYi9GvV/J74J+9+AWsJgQHprPnuEZtMmHwZiPyXGG83MC2M2iP5eufIiyEtTFwLe01Z//zwM8IXTF+Qvu2CNTzAmHAciPW7cJreMMc9vE98q9dvYEwNqiTA4KHCbM3bRqD+gUtPPf/QZiBa3Pg1zTW9ecPOR3X00CR0BKwd8zvRsZ8XGZhSXmbB5xtMrTEHcAPTIaOCghWb3AfeQ7kvanB7Vu9oNHnCS0uJ7VhXl8Y0yelcxd8vK7B7ad04TW8WQ77+EUTjmsBjQ+ebuXEIUfEtD2jxfn7A0Kf+63JbxrWGxvcfhHw1Xg/+RD1uwKNxVwDAuWqWCosKpYKh8SL6AZTZFzMBo4ul5ONyuXklv7+kinSGfpobAXX52m81jZPrRpTdD1hEN+JhFqzdnIfsGd8PNDh5+ujDW4/0IXXcKPjZprZnS2Pmujx7uZ1HbAq8D9tcC1fTJiR7N6c9zuvwe1fAL5EGNsjA4L2Fmcjuokwq8cu1J+7Wfk4EdioXE6OrzxRLiemSmeY1OAX7jPkX6vTSCvBFuOcfgsIg/R2IHQvaDefICzydGGXnK99XrJLmEgYTN+IO5ocKDdq5XFKyxcIY352oDl97Mdisqd4938Bq8mqxhUsKJYKVwAz0yT7IbAvYUEVNe5aYP9yObnbpOjZAtZC8p8156UGth2vQcULCDNpvL8N83SAMC/8HozvFINqjUYrGa9s4rHlUVnQ7KkkXyKsqP5eTyV12sWrUQYGlVmIiqXCwYQ+iWeZMg15njCN4hvK5eRuuwepB13dpsFApYAz3vONq3O1eyXlRk3e/xkGA/Li61JpkvUBM4ulwrOVoKDKnGKpsH+aZOcA3yIsLKKReRr4brmcfLH6SbsH9bx5Oe+vE/p5v2y2S+Oi2d3EXjSJZUDQvaYAN6RJ9tViqXBWHE9ADA4G4s/L0iT7PfB2oIR9U4fzHeDL5XIyB6C/v2QgIAj9l39KfgvdzCessilJkgGBGq5RmAX8NE2yg4DDCHP4Uh0cAPOLpcLFwIQ0yX5AGF8w0+RbwrXAMeVycmW9ZUNgAAAPC0lEQVR11yCDAUXLYHO7JEmj5hiC8bUz8Nc0yS6BJbsP1fz+UUJfxUtNMiBMJflGYOdKMGAQIEmSlA9bCMbfZGC3NMkWEVoLziyWCs/VtBZQLBWy+Lp3A8cSpuvrNc8QuoB8qlxOBiqtAgYDkkZhZcK6DMsTupXlMX3iPFq7UJUkGRB0iT7gFOBLaZLtXSwVrq59QQwSLootCu8Bzuuh9PkFcEi5nDxZecJAQNIIrQR8AdgbWJEwlmui33mSVJ9dhlrvFUA5TbJfp0m2bfU/atYv+AWhhuv0Lk+Pa4G3l8vJ+6uDAUkagT0Jq7s+BXwGeBVhLNZUgwFJMiDoBO8ErkuT7Lw0ySYC1WsWVFoLngUOJjSBX9uFaZAQ1hO43PUEJI3CLOBu4FfAa00OSTIg6GR9wPuAJ9Mk+zihiZs64wtmF0uFHYH9gZu64HN/G5hcLie/Jqy6avcgSSO1FXAvsB5O2SxJBgRdZAXge8BzaZLtWLPCcXVgcFaxVNgCOKpDP+efCFNFfrZcThY4e5CkUdo83kecolmSDAi61nTgmjTJfgVsWnmyEhxUfi+WCicAqwI/pjNWVr0ReFe5nOxcLicvVYIAgwFJo/SzWKkgSTIg6HrvAf6ZJtmpaZL11a5fEIOCx4GPEAbR3dumn2MhsF+5nGxVLicXQ1hlWJLG4DSqKkokSQYEvZJXhwD/TpPso5Unq8cXFEsFiqXCw8VSYT1gP+DONjr+bwFrlMvJ2a4yLKlBq8V7nCTJgKBnvwi/nybZo2mSvboSDFR3I4rBwdnFUmFD4Gu0thvRDcCscjk5HHjUIEBSDt6CXYUkKTfOy9y5VgXuj+MLPlMsFR6sfUFsPTgmTbIzgWMIsxKNl5uAr5XLyS8hdA0yEFCTPUNY7O/lNjiWPrpjBrB2ZeuAJBkQqMpewF5pkh0PfKlYKiyo/KNqrMG9xVLhw2mSHQNcDazd5GP6dLmcnFwdCBgMaJwCgm/Fn+pub8txX2NtQXWKU0kGBGo7RwHvS5PshGKpcAYsHl9QNfD4IWCdNMkOAr5K6H6Up+8A3yyXk4crTxgISMrZDjnt5ybgAuAOYO4ot50HHAm8weyQZECgdrMucHqaZEcRatD+Raz9qpmZ6AzgjDTJ/hf4VIPvORDfZ+dyOXnEWYMkNdk2OdyzPgOc3OB+9jUres4ik0DdykHF3Wkd4B7gvDTJCrD02gUxMPg0sCFhLu+xeBRIy+VkvUowYIuAWmjAJOgJ2za4/e9yCAa0tD4a70a1QpsX5v9mNsuAQJ3ovcDDaZIdVn2jrm4tAO4slgopsDPw+Aj3+zJwfLmcrF4uJ+dUnjQYUIsL9CsC00zGrveaBrc/1CRsWoG70QH9WzTx+F6Zwz4mms0yIFAnOxm4K02yD8GSrQVV4wv+VCwVVgUOBGYDkwfZ14+Bjcvl5Gi7BylnC2hsQPAUv7B7QqGBbecCd5mETQsI5jS4j12aeHyb57CP+81mGRCo060HnJUm2fXACmmS9VWCg+q1DIqlwk9iYHBLnX3sVC4nHwHuA1sE1BSNtBJMA2aahJ4jQ3jW5Guquxvc/lXAsk06tt3NHsmAQIttCzwFnJkm2cxKCwEsNfD4yeqN4viAPztOQE00n5F3WxvMB0xGqWXuzGEfn27CcU0Ctm9wH38we2VAoG7M9/2AZ9Mk2weYDkuvdlytEgQYDKjJAcFDDe7j8yaj1DI357CP/YEZOR/Xh4A1GtyHCw3KgEBd7Vzg+jTJkprBxtJ4W0iYuaoRU4DPmZRdrZGZbGbleBzOatWcgGBd4Ec5HtNOhLFvjTrL7JUBgbrdJsBFaZJdmybZK00OtVA5h30cDWwwjse8DKH28UAar4XU8BrtVrZjDscwjXxmrelG5+Swj/fH/TQ6a9iWwEU5HM+zwMNmrQwI1Ct2AO5Ik+ycNMlmmBxqgcty2MdyhPnCD2nicW5ImL7ykvhe9xJqNd9iFjbdvQ1u/8MGtp0J/IAwscKbzYq6vpvTfvYF/g4cMIZtVwWKwPXAyjkcy/3Ak2atDAjUS2YC76Px1UClsXgIeDCn8/jU+EW+B2H2kuWAqSPYdkp83UqEKS7XJdQqHwNcRegqcjtwCrAbsFHcBmBXs7Dtg8ZNgOMYWT/1KbFw+VrgAkJN8cHAambDoG4CHslpXxsRuvu8HK+3XeP1uGadx+bAQcCthK6HHyQMJs7DpYQxTlLXmmQSqI4BQn9uqRW+AJyd075eHQtyL8dCwouEWbb6CHOm3xMLHdVTHa4Q/79iDCxGM5XptoSKlkVmY9PcnsM+vkSogb4EuBa4Md7zpgBbAWsTKkXWB1Ynn1rmXvE8YUae9+e4z6mEFrnKonIv1XnN9CZ+puPMVhkQSNL4ujAW2vMshE0D1hqHY59JaFmwe0Hz/CWn/awPfCo+lK+jcg4IxrPwX+sbgwQgUlexy5CkdvM8cEWHHnslIFBzXWIStLX7gNO64HM8Q35jIiQDAkkapUM79LiXIXRTUnOdaxK0tT7gcDq/pex04N9mpwwIJKk1niAMbu9Eu5l9TXcNYTyI2tNAzJ/DO/gz/B44wqyUAYEktdb5hNk9Os0bzLqmux+42GRoez8FTu7A434UeC+NLYInGRBIUg4WArsDN3TYcW9t1o2L95sEHeEIoNRBx/syYUGz2bgatQwIJKltbEdYYKiTbGu2jYuDTYK2twB4N6HFr909Qljl/DGzTQYEktQ+Bghz+u8I/KyDjnt3s25cnA5c3cL3/yJwi9kwInsDH2nj4/s9YdGzh8wqGRBIUntaCKSEQYrtXnv3HE49Op76WxAU/A7YHvg6cI5ZMOLg/seEhQCvbaPjegr4CvAWQnchyYBAktq4MAHwrVigOKUNj/E2Qg3oWsBnzbJx9bZxKphfDKwB7ApcF5+7yuQflTuANwKvp/XTkh5LaBX4cs19RjIgkKQqU1u8fT1zgMMIKxmfBNzYgnSZA/yDMB/+fwFrApsQakBnE/pNj9SUBo9lShM/Z6Or2U8bp/yYB3wQ2DcGZnm6mbA41frAu4CM0I2t4n7CYnqjNbkNrs/JLbqvzCdMHTsLeCdh0PHj4/C+C2Mg9w3CIoLHERYfy8vkNs6PiW16n2nXe8zkNk2vtr3ZS+puBwIzGtj+aZpX6zYbODLeeCcD+wD70ZxpP+cSpkC9HvglYfDhvPho1FeAH40xnfrisTTLhcADsSA1FgvG+Xz9OXBBPAdOJQwQHYvbYnB3diwwzh3itU8Q+sdPH+V73JPD5/0YsNwYt+0Dbm2De8wlwG9i+m0KfAg4oMH7Tq3fEqZAvTjm5fwmfZbTgMsb2P6uJqbz5cCeDWzfrK6aFxBWtm63e8xZwF8b2P6+Tvuyd47dJkuTbBphTuPlO+iwFwD9xVLhGnNQHWptYCtCzf1GhNqxVzJ0LdnjsYD/cAxk7oq/397EAoSaa1VC3/Bt4rmwfE3gtYiwEu1ThJr/PxJaftR6MwgzjK0br+fVgGWBFQYJnit5+SLwL0LLzU3xd0nDsIVAUje6j6VraIbrIrnIZOs6jxHGFpxDqACbUKcwab63pxcI4zOqx2gMlofmpWRAIEkjYmGhtw0w9m4JMg+lruagYkmSJMmAQJIkSZIBgSRJkiQDAkmSJEkGBJIkSZIMCCRJkiQZEEiSJEkyIJAkSZJkQKDRGTAJJEmSZEDQm+YBRwIvmxSSJEkyIOg9i4qlwunFUmE6cFEMECRJkiQDgl5QLBWqf98D2B641JSRJEmSAUFvBgg3FkuF3YC3Ak+ZIpIkSTIg6DFpklEsFa4E1gE+ASw0VSRJkmRA0COquhE9WywVTgOWA34HLDB1JEmSZEDQQ4FBbC14sVgqvA3YGvizKSNJkiQDgh4KCqrcUiwVdgIOAJ4xdSRJkmRA0FvBwUD8eSawNvB5U0WSJEkGBL1pTrFUOBF4BY4vkCRJkgFBb6kaX/BUHF/weuAOU0aSJEl56jMJOkuaZIcAxwCrNvFtFgD9xVLhGlNckiSpu9lC0FnBAMVS4bvAJsAXTRFJkiQZEPSQqhmJniqWCl8HVgeuNWUkSZJkQNBjgUFsLXgU2AnYHHjYlJEkSZIBQQ8FBdFAsVS4uVgqrAkcBzxh6kiSJMmAoPcCA4qlwrHAOsAppowkSZIMCHrT88VS4TBgCxxfIEmSJAOC3lI1vuAm4I3AzsAcU0aSJEn1uA5Bj0iT7KvAJ4CVRvBy1yGQJEnqEbYQdH8gAECxVDiGML7gJ6aKJEmSKmwh6M0goR/4GmHK0npsIZAkSeoRthD0XjBAsVQoA28AtgNeNlUkSZIMCNQjqqYpXVQsFa4HlgG+Bbxo6kiSJBkQqIcCg9haMFAsFQ4HVgZ+Y8pIkiQZEKiHggL4z8Djl4ulwu7ALsAfPDckSZKkHpUm2YQ0yRxwLkmSJEmSJEmSJEmSJEmSJEmSJEmSJEmSJEmSJEmSJEmSJEmSJEmSJEmSJEmSJEmSJEmSJEmSJEmSJEmSJEmSJEmSJEmSJEmSJEmSJEmSJEmSJEmSJEmSJEmSJEmSJEmSJEmSJEmSJEmSJEmSJEmSJEmSJEmSJEmSJEmSJEmSJEmSJEmSJEmSJEmSJEmSJEmSJEmSJEmSJEmSJEmSJEmSJEmSJEmSJEmSJEmSJEmSJEmSJEmSJEmSJEmSJEmSJEmSJEmSJEmSJEmSJEmSJEmSJEmSJEmSJEmSJEmSJEmSJEmSJEmSJEmSJEmSJEmSJEmSJEmSJEmSJEmSJEmSJEmSJEmSJEmSJEmSJEmSJEmSJEmSJEmSJEmSJEmSJEmSJEmSJEmSJEmSJEmSJEmSJEmSJEmSJEmSJEmSJEmSJEmSJEmSJEmSJEmSJEmSJEmSJEmSJEmSJEmSJEmSJEmSJEmSJEmSJEmSJEmSJEmSJEmSJEmSJEmSJEmSJEmSJEmSJEmSJEmSJEmSJEmSJEmSJEmSJEmSJEmSJEmSJEmSJEmSJEmSJEmSJEmSJEmSJEmSJEmSJEmSJEmSJEmSJEmSJEmSJEmSJEmSJEmSJEmSJEmSJEmSJEmSJEmSJEmSJEmSJEmSJEmSJEmSJEmSJEmSJEmSJEmSJEmSJEmSJEmSJEmSJEmSJEmSJEmSJEmSJEmSJEmSJEmSJEmSJEmSJEmSJElqe/8f+6Y56bFIFhwAAAAASUVORK5CYII=;clipPath=inset(21.34% 70% 23.25% 0.67%);" parent="k8oE8rLJ_aR2Wur4B68Q-1" vertex="1">
          <mxGeometry x="20" y="349" width="96.64" height="95.54" as="geometry" />
        </mxCell>
        <mxCell id="k-AtK6yQj_17SIhoUM1E-2" value="Service VPC&lt;br&gt;10.15.0.0/16" style="points=[[0,0],[0.25,0],[0.5,0],[0.75,0],[1,0],[1,0.25],[1,0.5],[1,0.75],[1,1],[0.75,1],[0.5,1],[0.25,1],[0,1],[0,0.75],[0,0.5],[0,0.25]];outlineConnect=0;gradientColor=none;html=1;whiteSpace=wrap;fontSize=12;fontStyle=0;container=0;pointerEvents=0;collapsible=0;recursiveResize=0;shape=mxgraph.aws4.group;grIcon=mxgraph.aws4.group_vpc2;strokeColor=#232F3E;fillColor=none;verticalAlign=top;align=left;spacingLeft=30;fontColor=#AAB7B8;dashed=0;" parent="k8oE8rLJ_aR2Wur4B68Q-1" vertex="1">
          <mxGeometry x="1090" y="180" width="590" height="660" as="geometry" />
        </mxCell>
        <mxCell id="NqxRcppyMZP1TzHfi3GJ-197" style="edgeStyle=orthogonalEdgeStyle;rounded=0;orthogonalLoop=1;jettySize=auto;html=1;fontFamily=Helvetica;fontSize=12;fontColor=default;labelBorderColor=none;dashed=1;dashPattern=12 12;" parent="k8oE8rLJ_aR2Wur4B68Q-1" source="NqxRcppyMZP1TzHfi3GJ-10" target="k8oE8rLJ_aR2Wur4B68Q-10" edge="1">
          <mxGeometry relative="1" as="geometry">
            <Array as="points">
              <mxPoint x="660" y="100" />
            </Array>
          </mxGeometry>
        </mxCell>
        <mxCell id="NqxRcppyMZP1TzHfi3GJ-198" value="Private Hosted Zone (PHZ) Association" style="edgeLabel;html=1;align=center;verticalAlign=middle;resizable=0;points=[];rounded=1;glass=0;arcSize=33;fontFamily=Helvetica;fontSize=16;fontColor=default;labelBorderColor=none;fillColor=none;gradientColor=none;" parent="NqxRcppyMZP1TzHfi3GJ-197" vertex="1" connectable="0">
          <mxGeometry x="-0.0275" y="-2" relative="1" as="geometry">
            <mxPoint x="-1" y="1" as="offset" />
          </mxGeometry>
        </mxCell>
        <mxCell id="NqxRcppyMZP1TzHfi3GJ-13" value="&lt;font style=&quot;font-size: 14px;&quot;&gt;Region&lt;/font&gt;" style="sketch=0;outlineConnect=0;gradientColor=none;html=1;whiteSpace=wrap;fontSize=12;fontStyle=0;shape=mxgraph.aws4.group;grIcon=mxgraph.aws4.group_region;strokeColor=#879196;fillColor=none;verticalAlign=top;align=left;spacingLeft=30;fontColor=#879196;dashed=1;" parent="k8oE8rLJ_aR2Wur4B68Q-1" vertex="1">
          <mxGeometry x="280" y="120" width="110" height="660" as="geometry" />
        </mxCell>
        <mxCell id="NqxRcppyMZP1TzHfi3GJ-26" value="" style="edgeStyle=orthogonalEdgeStyle;rounded=0;orthogonalLoop=1;jettySize=auto;html=1;entryX=0;entryY=0.5;entryDx=0;entryDy=0;" parent="k8oE8rLJ_aR2Wur4B68Q-1" source="k8oE8rLJ_aR2Wur4B68Q-31" target="NqxRcppyMZP1TzHfi3GJ-20" edge="1">
          <mxGeometry relative="1" as="geometry">
            <mxPoint x="-20" y="362" as="sourcePoint" />
            <mxPoint x="523" y="340" as="targetPoint" />
          </mxGeometry>
        </mxCell>
        <mxCell id="NqxRcppyMZP1TzHfi3GJ-192" style="edgeStyle=orthogonalEdgeStyle;rounded=0;orthogonalLoop=1;jettySize=auto;html=1;fontFamily=Helvetica;fontSize=12;fontColor=default;labelBorderColor=none;" parent="k8oE8rLJ_aR2Wur4B68Q-1" source="NqxRcppyMZP1TzHfi3GJ-20" target="NqxRcppyMZP1TzHfi3GJ-27" edge="1">
          <mxGeometry relative="1" as="geometry" />
        </mxCell>
        <mxCell id="NqxRcppyMZP1TzHfi3GJ-20" value="EC2&lt;br&gt;Instance Connect&lt;br&gt;Endpoint" style="sketch=0;outlineConnect=0;fontColor=#232F3E;gradientColor=none;fillColor=#232F3E;strokeColor=none;dashed=0;verticalLabelPosition=bottom;verticalAlign=top;align=center;html=1;fontSize=12;fontStyle=0;aspect=fixed;pointerEvents=1;shape=mxgraph.aws4.endpoint;" parent="k8oE8rLJ_aR2Wur4B68Q-1" vertex="1">
          <mxGeometry x="325" y="473.02" width="49" height="49" as="geometry" />
        </mxCell>
        <mxCell id="NqxRcppyMZP1TzHfi3GJ-27" value="TGW ENI" style="sketch=0;outlineConnect=0;fontColor=#232F3E;gradientColor=none;fillColor=#232F3E;strokeColor=none;dashed=0;verticalLabelPosition=bottom;verticalAlign=top;align=center;html=1;fontSize=12;fontStyle=0;aspect=fixed;pointerEvents=1;shape=mxgraph.aws4.elastic_network_interface;" parent="k8oE8rLJ_aR2Wur4B68Q-1" vertex="1">
          <mxGeometry x="483" y="473.02" width="50" height="50" as="geometry" />
        </mxCell>
        <mxCell id="NqxRcppyMZP1TzHfi3GJ-196" style="edgeStyle=orthogonalEdgeStyle;rounded=0;orthogonalLoop=1;jettySize=auto;html=1;entryX=0.5;entryY=0;entryDx=0;entryDy=0;fontFamily=Helvetica;fontSize=12;fontColor=default;labelBorderColor=none;startArrow=oval;startFill=1;endArrow=oval;endFill=1;" parent="k8oE8rLJ_aR2Wur4B68Q-1" source="k-AtK6yQj_17SIhoUM1E-4" target="NqxRcppyMZP1TzHfi3GJ-146" edge="1">
          <mxGeometry relative="1" as="geometry" />
        </mxCell>
        <mxCell id="NqxRcppyMZP1TzHfi3GJ-204" style="edgeStyle=orthogonalEdgeStyle;rounded=0;orthogonalLoop=1;jettySize=auto;html=1;fontFamily=Helvetica;fontSize=12;fontColor=default;labelBorderColor=none;" parent="k8oE8rLJ_aR2Wur4B68Q-1" edge="1">
          <mxGeometry relative="1" as="geometry">
            <mxPoint x="982.6199999999999" y="510.71794871794873" as="sourcePoint" />
            <mxPoint x="819.9794318569186" y="511.0256410256411" as="targetPoint" />
          </mxGeometry>
        </mxCell>
        <mxCell id="cDpMovdqKkp22i0HmyFA-12" style="edgeStyle=orthogonalEdgeStyle;rounded=0;orthogonalLoop=1;jettySize=auto;html=1;startArrow=classic;startFill=0;" edge="1" parent="k8oE8rLJ_aR2Wur4B68Q-1" source="k-AtK6yQj_17SIhoUM1E-4" target="NqxRcppyMZP1TzHfi3GJ-38">
          <mxGeometry relative="1" as="geometry">
            <Array as="points">
              <mxPoint x="1120" y="490" />
              <mxPoint x="1120" y="371" />
            </Array>
          </mxGeometry>
        </mxCell>
        <mxCell id="cDpMovdqKkp22i0HmyFA-13" style="edgeStyle=orthogonalEdgeStyle;rounded=0;orthogonalLoop=1;jettySize=auto;html=1;startArrow=classic;startFill=0;" edge="1" parent="k8oE8rLJ_aR2Wur4B68Q-1" source="k-AtK6yQj_17SIhoUM1E-4" target="cDpMovdqKkp22i0HmyFA-11">
          <mxGeometry relative="1" as="geometry">
            <Array as="points">
              <mxPoint x="1120" y="520" />
              <mxPoint x="1120" y="625" />
            </Array>
          </mxGeometry>
        </mxCell>
        <mxCell id="k-AtK6yQj_17SIhoUM1E-4" value="Transit&lt;br&gt;Gateway" style="sketch=0;points=[[0,0,0],[0.25,0,0],[0.5,0,0],[0.75,0,0],[1,0,0],[0,1,0],[0.25,1,0],[0.5,1,0],[0.75,1,0],[1,1,0],[0,0.25,0],[0,0.5,0],[0,0.75,0],[1,0.25,0],[1,0.5,0],[1,0.75,0]];outlineConnect=0;fontColor=#232F3E;fillColor=#232F3E;strokeColor=#FFFFFF;dashed=0;verticalLabelPosition=bottom;verticalAlign=top;align=center;html=1;fontSize=12;fontStyle=0;aspect=fixed;shape=mxgraph.aws4.resourceIcon;resIcon=mxgraph.aws4.transit_gateway;direction=south;" parent="k8oE8rLJ_aR2Wur4B68Q-1" vertex="1">
          <mxGeometry x="982.6199999999999" y="477.25" width="50.77" height="50.77" as="geometry" />
        </mxCell>
        <mxCell id="k8oE8rLJ_aR2Wur4B68Q-13" value="Availability Zone" style="fillColor=none;strokeColor=#232F3E;dashed=1;verticalAlign=top;fontStyle=0;fontColor=#147EBA;whiteSpace=wrap;html=1;" parent="k8oE8rLJ_aR2Wur4B68Q-1" vertex="1">
          <mxGeometry x="420" y="340" width="463" height="270" as="geometry" />
        </mxCell>
        <mxCell id="NqxRcppyMZP1TzHfi3GJ-207" style="edgeStyle=orthogonalEdgeStyle;rounded=0;orthogonalLoop=1;jettySize=auto;html=1;fontFamily=Helvetica;fontSize=12;fontColor=default;labelBorderColor=none;" parent="k8oE8rLJ_aR2Wur4B68Q-1" edge="1">
          <mxGeometry relative="1" as="geometry">
            <mxPoint x="1335" y="377.51282051282055" as="sourcePoint" />
            <mxPoint x="1237.9994318569193" y="378.0256410256411" as="targetPoint" />
          </mxGeometry>
        </mxCell>
        <mxCell id="NqxRcppyMZP1TzHfi3GJ-168" style="edgeStyle=orthogonalEdgeStyle;rounded=0;orthogonalLoop=1;jettySize=auto;html=1;fontFamily=Helvetica;fontSize=12;fontColor=default;labelBorderColor=none;" parent="k8oE8rLJ_aR2Wur4B68Q-1" edge="1">
          <mxGeometry relative="1" as="geometry">
            <mxPoint x="1237.9994318569193" y="364.0256410256411" as="sourcePoint" />
            <mxPoint x="1335" y="363.51282051282055" as="targetPoint" />
          </mxGeometry>
        </mxCell>
        <mxCell id="NqxRcppyMZP1TzHfi3GJ-38" value="TGW ENI" style="sketch=0;outlineConnect=0;fontColor=#232F3E;gradientColor=none;fillColor=#232F3E;strokeColor=none;dashed=0;verticalLabelPosition=bottom;verticalAlign=top;align=center;html=1;fontSize=12;fontStyle=0;aspect=fixed;pointerEvents=1;shape=mxgraph.aws4.elastic_network_interface;" parent="k8oE8rLJ_aR2Wur4B68Q-1" vertex="1">
          <mxGeometry x="1188" y="346.02" width="50" height="50" as="geometry" />
        </mxCell>
        <mxCell id="NqxRcppyMZP1TzHfi3GJ-40" value="VPC + 2" style="sketch=0;outlineConnect=0;fontColor=#232F3E;gradientColor=none;fillColor=#232F3E;strokeColor=none;dashed=0;verticalLabelPosition=bottom;verticalAlign=top;align=center;html=1;fontSize=12;fontStyle=0;aspect=fixed;pointerEvents=1;shape=mxgraph.aws4.route_53_resolver;" parent="k8oE8rLJ_aR2Wur4B68Q-1" vertex="1">
          <mxGeometry x="799" y="349" width="48" height="48" as="geometry" />
        </mxCell>
        <mxCell id="NqxRcppyMZP1TzHfi3GJ-165" style="edgeStyle=orthogonalEdgeStyle;rounded=0;orthogonalLoop=1;jettySize=auto;html=1;fontFamily=Helvetica;fontSize=12;fontColor=default;labelBorderColor=none;" parent="k8oE8rLJ_aR2Wur4B68Q-1" edge="1">
          <mxGeometry relative="1" as="geometry">
            <mxPoint x="769.9805681430812" y="510.02" as="sourcePoint" />
            <mxPoint x="672" y="510.02" as="targetPoint" />
          </mxGeometry>
        </mxCell>
        <mxCell id="NqxRcppyMZP1TzHfi3GJ-166" style="edgeStyle=orthogonalEdgeStyle;rounded=0;orthogonalLoop=1;jettySize=auto;html=1;fontFamily=Helvetica;fontSize=12;fontColor=default;labelBorderColor=none;" parent="k8oE8rLJ_aR2Wur4B68Q-1" edge="1">
          <mxGeometry relative="1" as="geometry">
            <mxPoint x="819.9794318569186" y="494.0256410256411" as="sourcePoint" />
            <mxPoint x="982.6199999999999" y="493.71794871794873" as="targetPoint" />
          </mxGeometry>
        </mxCell>
        <mxCell id="NqxRcppyMZP1TzHfi3GJ-43" value="TGW ENI" style="sketch=0;outlineConnect=0;fontColor=#232F3E;gradientColor=none;fillColor=#232F3E;strokeColor=none;dashed=0;verticalLabelPosition=bottom;verticalAlign=top;align=center;html=1;fontSize=12;fontStyle=0;aspect=fixed;pointerEvents=1;shape=mxgraph.aws4.elastic_network_interface;" parent="k8oE8rLJ_aR2Wur4B68Q-1" vertex="1">
          <mxGeometry x="769.98" y="478.02" width="50" height="50" as="geometry" />
        </mxCell>
        <mxCell id="NqxRcppyMZP1TzHfi3GJ-131" value="Client VPC route table" style="shape=table;startSize=30;container=1;collapsible=0;childLayout=tableLayout;rounded=1;glass=0;align=left;verticalAlign=bottom;arcSize=5;fontFamily=Helvetica;fontSize=14;labelBorderColor=none;swimlaneLine=1;shadow=0;labelBackgroundColor=none;textShadow=0;fillColor=#232F3E;fontColor=#FFFFFF;swimlaneFillColor=#000000;" parent="k8oE8rLJ_aR2Wur4B68Q-1" vertex="1">
          <mxGeometry x="443" y="620" width="270" height="114" as="geometry" />
        </mxCell>
        <mxCell id="NqxRcppyMZP1TzHfi3GJ-132" value="" style="shape=tableRow;horizontal=0;startSize=0;swimlaneHead=0;swimlaneBody=0;strokeColor=inherit;top=0;left=0;bottom=0;right=0;collapsible=0;dropTarget=0;fillColor=none;points=[[0,0.5],[1,0.5]];portConstraint=eastwest;rounded=1;glass=0;align=left;verticalAlign=bottom;arcSize=33;fontFamily=Helvetica;fontSize=12;fontColor=default;labelBorderColor=none;labelBackgroundColor=none;textShadow=0;" parent="NqxRcppyMZP1TzHfi3GJ-131" vertex="1">
          <mxGeometry y="30" width="270" height="29" as="geometry" />
        </mxCell>
        <mxCell id="NqxRcppyMZP1TzHfi3GJ-133" value="destination" style="shape=partialRectangle;connectable=0;strokeColor=#36393d;overflow=hidden;fillColor=#E6F6F7;top=0;left=0;bottom=0;right=0;pointerEvents=1;rounded=1;glass=0;align=left;verticalAlign=bottom;arcSize=33;fontFamily=Helvetica;fontSize=14;labelBorderColor=none;fontStyle=2;labelBackgroundColor=none;textShadow=0;strokeWidth=4;" parent="NqxRcppyMZP1TzHfi3GJ-132" vertex="1">
          <mxGeometry width="135" height="29" as="geometry">
            <mxRectangle width="135" height="29" as="alternateBounds" />
          </mxGeometry>
        </mxCell>
        <mxCell id="NqxRcppyMZP1TzHfi3GJ-134" value="target" style="shape=partialRectangle;connectable=0;strokeColor=#36393d;overflow=hidden;fillColor=#E6F6F7;top=0;left=0;bottom=0;right=0;pointerEvents=1;rounded=1;glass=0;align=left;verticalAlign=bottom;arcSize=33;fontFamily=Helvetica;fontSize=14;labelBorderColor=none;fontStyle=2;labelBackgroundColor=none;textShadow=0;strokeWidth=4;" parent="NqxRcppyMZP1TzHfi3GJ-132" vertex="1">
          <mxGeometry x="135" width="135" height="29" as="geometry">
            <mxRectangle width="135" height="29" as="alternateBounds" />
          </mxGeometry>
        </mxCell>
        <mxCell id="NqxRcppyMZP1TzHfi3GJ-135" value="" style="shape=tableRow;horizontal=0;startSize=0;swimlaneHead=0;swimlaneBody=0;strokeColor=inherit;top=0;left=0;bottom=0;right=0;collapsible=0;dropTarget=0;fillColor=none;points=[[0,0.5],[1,0.5]];portConstraint=eastwest;rounded=1;glass=0;align=left;verticalAlign=bottom;arcSize=33;fontFamily=Helvetica;fontSize=14;fontColor=default;labelBorderColor=none;fontStyle=2;labelBackgroundColor=none;textShadow=0;" parent="NqxRcppyMZP1TzHfi3GJ-131" vertex="1">
          <mxGeometry y="59" width="270" height="26" as="geometry" />
        </mxCell>
        <mxCell id="NqxRcppyMZP1TzHfi3GJ-136" value="10.10.0.0/16" style="shape=partialRectangle;connectable=0;overflow=hidden;top=0;left=0;bottom=0;right=0;pointerEvents=1;rounded=1;glass=0;align=left;verticalAlign=bottom;arcSize=33;fontFamily=Helvetica;fontSize=14;labelBorderColor=none;fontStyle=0;labelBackgroundColor=none;textShadow=0;strokeWidth=4;" parent="NqxRcppyMZP1TzHfi3GJ-135" vertex="1">
          <mxGeometry width="135" height="26" as="geometry">
            <mxRectangle width="135" height="26" as="alternateBounds" />
          </mxGeometry>
        </mxCell>
        <mxCell id="NqxRcppyMZP1TzHfi3GJ-137" value="local" style="shape=partialRectangle;connectable=0;overflow=hidden;top=0;left=0;bottom=0;right=0;pointerEvents=1;rounded=1;glass=0;align=left;verticalAlign=bottom;arcSize=33;fontFamily=Helvetica;fontSize=14;labelBorderColor=none;fontStyle=0;labelBackgroundColor=none;textShadow=0;strokeWidth=4;" parent="NqxRcppyMZP1TzHfi3GJ-135" vertex="1">
          <mxGeometry x="135" width="135" height="26" as="geometry">
            <mxRectangle width="135" height="26" as="alternateBounds" />
          </mxGeometry>
        </mxCell>
        <mxCell id="NqxRcppyMZP1TzHfi3GJ-138" value="" style="shape=tableRow;horizontal=0;startSize=0;swimlaneHead=0;swimlaneBody=0;strokeColor=inherit;top=0;left=0;bottom=0;right=0;collapsible=0;dropTarget=0;fillColor=none;points=[[0,0.5],[1,0.5]];portConstraint=eastwest;rounded=1;glass=0;align=left;verticalAlign=bottom;arcSize=33;fontFamily=Helvetica;fontSize=14;fontColor=default;labelBorderColor=none;fontStyle=2;labelBackgroundColor=none;textShadow=0;" parent="NqxRcppyMZP1TzHfi3GJ-131" vertex="1">
          <mxGeometry y="85" width="270" height="29" as="geometry" />
        </mxCell>
        <mxCell id="NqxRcppyMZP1TzHfi3GJ-139" value="10.15.0.0/16" style="shape=partialRectangle;connectable=0;strokeColor=#36393d;overflow=hidden;fillColor=#E6F6F7;top=0;left=0;bottom=0;right=0;pointerEvents=1;rounded=1;glass=0;align=left;verticalAlign=bottom;arcSize=33;fontFamily=Helvetica;fontSize=14;labelBorderColor=none;fontStyle=0;labelBackgroundColor=none;textShadow=0;strokeWidth=4;" parent="NqxRcppyMZP1TzHfi3GJ-138" vertex="1">
          <mxGeometry width="135" height="29" as="geometry">
            <mxRectangle width="135" height="29" as="alternateBounds" />
          </mxGeometry>
        </mxCell>
        <mxCell id="NqxRcppyMZP1TzHfi3GJ-140" value="tgw-id" style="shape=partialRectangle;connectable=0;strokeColor=#36393d;overflow=hidden;fillColor=#E6F6F7;top=0;left=0;bottom=0;right=0;pointerEvents=1;rounded=1;glass=0;align=left;verticalAlign=bottom;arcSize=33;fontFamily=Helvetica;fontSize=14;labelBorderColor=none;fontStyle=0;labelBackgroundColor=none;textShadow=0;strokeWidth=4;" parent="NqxRcppyMZP1TzHfi3GJ-138" vertex="1">
          <mxGeometry x="135" width="135" height="29" as="geometry">
            <mxRectangle width="135" height="29" as="alternateBounds" />
          </mxGeometry>
        </mxCell>
        <mxCell id="NqxRcppyMZP1TzHfi3GJ-199" style="edgeStyle=orthogonalEdgeStyle;rounded=0;orthogonalLoop=1;jettySize=auto;html=1;entryX=0.75;entryY=1;entryDx=0;entryDy=0;fontFamily=Helvetica;fontSize=12;fontColor=default;labelBorderColor=none;endArrow=oval;endFill=1;startArrow=oval;startFill=1;" parent="k8oE8rLJ_aR2Wur4B68Q-1" source="NqxRcppyMZP1TzHfi3GJ-146" target="k8oE8rLJ_aR2Wur4B68Q-10" edge="1">
          <mxGeometry relative="1" as="geometry">
            <Array as="points">
              <mxPoint x="785" y="780" />
            </Array>
          </mxGeometry>
        </mxCell>
        <mxCell id="NqxRcppyMZP1TzHfi3GJ-201" value="TGW&amp;nbsp;&lt;div&gt;Association&lt;/div&gt;" style="edgeLabel;html=1;align=center;verticalAlign=middle;resizable=0;points=[];rounded=1;glass=0;arcSize=33;fontFamily=Helvetica;fontSize=13;fontColor=default;labelBorderColor=none;fillColor=none;gradientColor=none;labelBackgroundColor=none;" parent="NqxRcppyMZP1TzHfi3GJ-199" vertex="1" connectable="0">
          <mxGeometry x="-0.1169" y="-3" relative="1" as="geometry">
            <mxPoint as="offset" />
          </mxGeometry>
        </mxCell>
        <mxCell id="NqxRcppyMZP1TzHfi3GJ-200" style="edgeStyle=orthogonalEdgeStyle;rounded=0;orthogonalLoop=1;jettySize=auto;html=1;fontFamily=Helvetica;fontSize=12;fontColor=default;labelBorderColor=none;endArrow=oval;endFill=1;startArrow=oval;startFill=1;entryX=0;entryY=0.5;entryDx=0;entryDy=0;" parent="k8oE8rLJ_aR2Wur4B68Q-1" source="NqxRcppyMZP1TzHfi3GJ-146" target="NqxRcppyMZP1TzHfi3GJ-180" edge="1">
          <mxGeometry relative="1" as="geometry">
            <Array as="points">
              <mxPoint x="990" y="895" />
            </Array>
            <mxPoint x="650" y="850" as="targetPoint" />
          </mxGeometry>
        </mxCell>
        <mxCell id="NqxRcppyMZP1TzHfi3GJ-202" value="TGW&amp;nbsp;&lt;div&gt;Association&lt;/div&gt;" style="edgeLabel;html=1;align=center;verticalAlign=middle;resizable=0;points=[];rounded=1;glass=0;arcSize=33;fontFamily=Helvetica;fontSize=13;fontColor=default;labelBorderColor=none;fillColor=none;gradientColor=none;labelBackgroundColor=none;" parent="NqxRcppyMZP1TzHfi3GJ-200" vertex="1" connectable="0">
          <mxGeometry x="-0.2391" relative="1" as="geometry">
            <mxPoint x="-1" as="offset" />
          </mxGeometry>
        </mxCell>
        <mxCell id="NqxRcppyMZP1TzHfi3GJ-146" value="Shared Services route table" style="shape=table;startSize=30;container=1;collapsible=0;childLayout=tableLayout;rounded=1;glass=0;align=left;verticalAlign=bottom;arcSize=5;fontFamily=Helvetica;fontSize=14;labelBorderColor=none;swimlaneLine=1;shadow=0;labelBackgroundColor=none;textShadow=0;fillColor=#232F3E;fontColor=#FFFFFF;swimlaneFillColor=#000000;" parent="k8oE8rLJ_aR2Wur4B68Q-1" vertex="1">
          <mxGeometry x="903" y="720" width="210" height="114" as="geometry" />
        </mxCell>
        <mxCell id="NqxRcppyMZP1TzHfi3GJ-147" value="" style="shape=tableRow;horizontal=0;startSize=0;swimlaneHead=0;swimlaneBody=0;strokeColor=inherit;top=0;left=0;bottom=0;right=0;collapsible=0;dropTarget=0;fillColor=none;points=[[0,0.5],[1,0.5]];portConstraint=eastwest;rounded=1;glass=0;align=left;verticalAlign=bottom;arcSize=33;fontFamily=Helvetica;fontSize=12;fontColor=default;labelBorderColor=none;labelBackgroundColor=none;textShadow=0;" parent="NqxRcppyMZP1TzHfi3GJ-146" vertex="1">
          <mxGeometry y="30" width="210" height="29" as="geometry" />
        </mxCell>
        <mxCell id="NqxRcppyMZP1TzHfi3GJ-148" value="CIDR" style="shape=partialRectangle;connectable=0;strokeColor=#36393d;overflow=hidden;fillColor=#E6F6F7;top=0;left=0;bottom=0;right=0;pointerEvents=1;rounded=1;glass=0;align=left;verticalAlign=bottom;arcSize=33;fontFamily=Helvetica;fontSize=14;labelBorderColor=none;fontStyle=2;labelBackgroundColor=none;textShadow=0;strokeWidth=4;" parent="NqxRcppyMZP1TzHfi3GJ-147" vertex="1">
          <mxGeometry width="105" height="29" as="geometry">
            <mxRectangle width="105" height="29" as="alternateBounds" />
          </mxGeometry>
        </mxCell>
        <mxCell id="NqxRcppyMZP1TzHfi3GJ-149" value="attachment" style="shape=partialRectangle;connectable=0;strokeColor=#36393d;overflow=hidden;fillColor=#E6F6F7;top=0;left=0;bottom=0;right=0;pointerEvents=1;rounded=1;glass=0;align=left;verticalAlign=bottom;arcSize=33;fontFamily=Helvetica;fontSize=14;labelBorderColor=none;fontStyle=2;labelBackgroundColor=none;textShadow=0;strokeWidth=4;" parent="NqxRcppyMZP1TzHfi3GJ-147" vertex="1">
          <mxGeometry x="105" width="105" height="29" as="geometry">
            <mxRectangle width="105" height="29" as="alternateBounds" />
          </mxGeometry>
        </mxCell>
        <mxCell id="NqxRcppyMZP1TzHfi3GJ-150" value="" style="shape=tableRow;horizontal=0;startSize=0;swimlaneHead=0;swimlaneBody=0;strokeColor=inherit;top=0;left=0;bottom=0;right=0;collapsible=0;dropTarget=0;fillColor=none;points=[[0,0.5],[1,0.5]];portConstraint=eastwest;rounded=1;glass=0;align=left;verticalAlign=bottom;arcSize=33;fontFamily=Helvetica;fontSize=14;fontColor=default;labelBorderColor=none;fontStyle=2;labelBackgroundColor=none;textShadow=0;" parent="NqxRcppyMZP1TzHfi3GJ-146" vertex="1">
          <mxGeometry y="59" width="210" height="26" as="geometry" />
        </mxCell>
        <mxCell id="NqxRcppyMZP1TzHfi3GJ-151" value="10.10.0.0/16" style="shape=partialRectangle;connectable=0;overflow=hidden;top=0;left=0;bottom=0;right=0;pointerEvents=1;rounded=1;glass=0;align=left;verticalAlign=bottom;arcSize=33;fontFamily=Helvetica;fontSize=14;labelBorderColor=none;fontStyle=0;labelBackgroundColor=none;textShadow=0;strokeWidth=4;" parent="NqxRcppyMZP1TzHfi3GJ-150" vertex="1">
          <mxGeometry width="105" height="26" as="geometry">
            <mxRectangle width="105" height="26" as="alternateBounds" />
          </mxGeometry>
        </mxCell>
        <mxCell id="NqxRcppyMZP1TzHfi3GJ-152" value="local" style="shape=partialRectangle;connectable=0;overflow=hidden;top=0;left=0;bottom=0;right=0;pointerEvents=1;rounded=1;glass=0;align=left;verticalAlign=bottom;arcSize=33;fontFamily=Helvetica;fontSize=14;labelBorderColor=none;fontStyle=0;labelBackgroundColor=none;textShadow=0;strokeWidth=4;" parent="NqxRcppyMZP1TzHfi3GJ-150" vertex="1">
          <mxGeometry x="105" width="105" height="26" as="geometry">
            <mxRectangle width="105" height="26" as="alternateBounds" />
          </mxGeometry>
        </mxCell>
        <mxCell id="NqxRcppyMZP1TzHfi3GJ-153" value="" style="shape=tableRow;horizontal=0;startSize=0;swimlaneHead=0;swimlaneBody=0;strokeColor=inherit;top=0;left=0;bottom=0;right=0;collapsible=0;dropTarget=0;fillColor=none;points=[[0,0.5],[1,0.5]];portConstraint=eastwest;rounded=1;glass=0;align=left;verticalAlign=bottom;arcSize=33;fontFamily=Helvetica;fontSize=14;fontColor=default;labelBorderColor=none;fontStyle=2;labelBackgroundColor=none;textShadow=0;" parent="NqxRcppyMZP1TzHfi3GJ-146" vertex="1">
          <mxGeometry y="85" width="210" height="29" as="geometry" />
        </mxCell>
        <mxCell id="NqxRcppyMZP1TzHfi3GJ-154" value="10.15.0.0/16" style="shape=partialRectangle;connectable=0;strokeColor=#36393d;overflow=hidden;fillColor=#E6F6F7;top=0;left=0;bottom=0;right=0;pointerEvents=1;rounded=1;glass=0;align=left;verticalAlign=bottom;arcSize=33;fontFamily=Helvetica;fontSize=14;labelBorderColor=none;fontStyle=0;labelBackgroundColor=none;textShadow=0;strokeWidth=4;" parent="NqxRcppyMZP1TzHfi3GJ-153" vertex="1">
          <mxGeometry width="105" height="29" as="geometry">
            <mxRectangle width="105" height="29" as="alternateBounds" />
          </mxGeometry>
        </mxCell>
        <mxCell id="NqxRcppyMZP1TzHfi3GJ-155" value="tgw-id" style="shape=partialRectangle;connectable=0;strokeColor=#36393d;overflow=hidden;fillColor=#E6F6F7;top=0;left=0;bottom=0;right=0;pointerEvents=1;rounded=1;glass=0;align=left;verticalAlign=bottom;arcSize=33;fontFamily=Helvetica;fontSize=14;labelBorderColor=none;fontStyle=0;labelBackgroundColor=none;textShadow=0;strokeWidth=4;" parent="NqxRcppyMZP1TzHfi3GJ-153" vertex="1">
          <mxGeometry x="105" width="105" height="29" as="geometry">
            <mxRectangle width="105" height="29" as="alternateBounds" />
          </mxGeometry>
        </mxCell>
        <mxCell id="NqxRcppyMZP1TzHfi3GJ-179" value="Service VPC route table" style="shape=table;startSize=30;container=1;collapsible=0;childLayout=tableLayout;rounded=1;glass=0;align=left;verticalAlign=bottom;arcSize=5;fontFamily=Helvetica;fontSize=14;labelBorderColor=none;swimlaneLine=1;shadow=0;labelBackgroundColor=none;textShadow=0;fillColor=#232F3E;fontColor=#FFFFFF;swimlaneFillColor=#000000;" parent="k8oE8rLJ_aR2Wur4B68Q-1" vertex="1">
          <mxGeometry x="790" y="950" width="258" height="114" as="geometry" />
        </mxCell>
        <mxCell id="NqxRcppyMZP1TzHfi3GJ-180" value="" style="shape=tableRow;horizontal=0;startSize=0;swimlaneHead=0;swimlaneBody=0;strokeColor=inherit;top=0;left=0;bottom=0;right=0;collapsible=0;dropTarget=0;fillColor=none;points=[[0,0.5],[1,0.5]];portConstraint=eastwest;rounded=1;glass=0;align=left;verticalAlign=bottom;arcSize=33;fontFamily=Helvetica;fontSize=12;fontColor=default;labelBorderColor=none;labelBackgroundColor=none;textShadow=0;" parent="NqxRcppyMZP1TzHfi3GJ-179" vertex="1">
          <mxGeometry y="30" width="258" height="29" as="geometry" />
        </mxCell>
        <mxCell id="NqxRcppyMZP1TzHfi3GJ-181" value="destination" style="shape=partialRectangle;connectable=0;strokeColor=#36393d;overflow=hidden;fillColor=#E6F6F7;top=0;left=0;bottom=0;right=0;pointerEvents=1;rounded=1;glass=0;align=left;verticalAlign=bottom;arcSize=33;fontFamily=Helvetica;fontSize=14;labelBorderColor=none;fontStyle=2;labelBackgroundColor=none;textShadow=0;strokeWidth=4;" parent="NqxRcppyMZP1TzHfi3GJ-180" vertex="1">
          <mxGeometry width="129" height="29" as="geometry">
            <mxRectangle width="129" height="29" as="alternateBounds" />
          </mxGeometry>
        </mxCell>
        <mxCell id="NqxRcppyMZP1TzHfi3GJ-182" value="target" style="shape=partialRectangle;connectable=0;strokeColor=#36393d;overflow=hidden;fillColor=#E6F6F7;top=0;left=0;bottom=0;right=0;pointerEvents=1;rounded=1;glass=0;align=left;verticalAlign=bottom;arcSize=33;fontFamily=Helvetica;fontSize=14;labelBorderColor=none;fontStyle=2;labelBackgroundColor=none;textShadow=0;strokeWidth=4;" parent="NqxRcppyMZP1TzHfi3GJ-180" vertex="1">
          <mxGeometry x="129" width="129" height="29" as="geometry">
            <mxRectangle width="129" height="29" as="alternateBounds" />
          </mxGeometry>
        </mxCell>
        <mxCell id="NqxRcppyMZP1TzHfi3GJ-183" value="" style="shape=tableRow;horizontal=0;startSize=0;swimlaneHead=0;swimlaneBody=0;strokeColor=inherit;top=0;left=0;bottom=0;right=0;collapsible=0;dropTarget=0;fillColor=none;points=[[0,0.5],[1,0.5]];portConstraint=eastwest;rounded=1;glass=0;align=left;verticalAlign=bottom;arcSize=33;fontFamily=Helvetica;fontSize=14;fontColor=default;labelBorderColor=none;fontStyle=2;labelBackgroundColor=none;textShadow=0;" parent="NqxRcppyMZP1TzHfi3GJ-179" vertex="1">
          <mxGeometry y="59" width="258" height="26" as="geometry" />
        </mxCell>
        <mxCell id="NqxRcppyMZP1TzHfi3GJ-184" value="10.15.0.0/16" style="shape=partialRectangle;connectable=0;overflow=hidden;top=0;left=0;bottom=0;right=0;pointerEvents=1;rounded=1;glass=0;align=left;verticalAlign=bottom;arcSize=33;fontFamily=Helvetica;fontSize=14;labelBorderColor=none;fontStyle=0;labelBackgroundColor=none;textShadow=0;strokeWidth=4;" parent="NqxRcppyMZP1TzHfi3GJ-183" vertex="1">
          <mxGeometry width="129" height="26" as="geometry">
            <mxRectangle width="129" height="26" as="alternateBounds" />
          </mxGeometry>
        </mxCell>
        <mxCell id="NqxRcppyMZP1TzHfi3GJ-185" value="local" style="shape=partialRectangle;connectable=0;overflow=hidden;top=0;left=0;bottom=0;right=0;pointerEvents=1;rounded=1;glass=0;align=left;verticalAlign=bottom;arcSize=33;fontFamily=Helvetica;fontSize=14;labelBorderColor=none;fontStyle=0;labelBackgroundColor=none;textShadow=0;strokeWidth=4;" parent="NqxRcppyMZP1TzHfi3GJ-183" vertex="1">
          <mxGeometry x="129" width="129" height="26" as="geometry">
            <mxRectangle width="129" height="26" as="alternateBounds" />
          </mxGeometry>
        </mxCell>
        <mxCell id="NqxRcppyMZP1TzHfi3GJ-186" value="" style="shape=tableRow;horizontal=0;startSize=0;swimlaneHead=0;swimlaneBody=0;strokeColor=inherit;top=0;left=0;bottom=0;right=0;collapsible=0;dropTarget=0;fillColor=none;points=[[0,0.5],[1,0.5]];portConstraint=eastwest;rounded=1;glass=0;align=left;verticalAlign=bottom;arcSize=33;fontFamily=Helvetica;fontSize=14;fontColor=default;labelBorderColor=none;fontStyle=2;labelBackgroundColor=none;textShadow=0;" parent="NqxRcppyMZP1TzHfi3GJ-179" vertex="1">
          <mxGeometry y="85" width="258" height="29" as="geometry" />
        </mxCell>
        <mxCell id="NqxRcppyMZP1TzHfi3GJ-187" value="10.10.0.0/16" style="shape=partialRectangle;connectable=0;strokeColor=#36393d;overflow=hidden;fillColor=#E6F6F7;top=0;left=0;bottom=0;right=0;pointerEvents=1;rounded=1;glass=0;align=left;verticalAlign=bottom;arcSize=33;fontFamily=Helvetica;fontSize=14;labelBorderColor=none;fontStyle=0;labelBackgroundColor=none;textShadow=0;strokeWidth=4;" parent="NqxRcppyMZP1TzHfi3GJ-186" vertex="1">
          <mxGeometry width="129" height="29" as="geometry">
            <mxRectangle width="129" height="29" as="alternateBounds" />
          </mxGeometry>
        </mxCell>
        <mxCell id="NqxRcppyMZP1TzHfi3GJ-188" value="tgw-id" style="shape=partialRectangle;connectable=0;strokeColor=#36393d;overflow=hidden;fillColor=#E6F6F7;top=0;left=0;bottom=0;right=0;pointerEvents=1;rounded=1;glass=0;align=left;verticalAlign=bottom;arcSize=33;fontFamily=Helvetica;fontSize=14;labelBorderColor=none;fontStyle=0;labelBackgroundColor=none;textShadow=0;strokeWidth=4;" parent="NqxRcppyMZP1TzHfi3GJ-186" vertex="1">
          <mxGeometry x="129" width="129" height="29" as="geometry">
            <mxRectangle width="129" height="29" as="alternateBounds" />
          </mxGeometry>
        </mxCell>
        <mxCell id="NqxRcppyMZP1TzHfi3GJ-190" value="VPC + 2" style="sketch=0;outlineConnect=0;fontColor=#232F3E;gradientColor=none;fillColor=#232F3E;strokeColor=none;dashed=0;verticalLabelPosition=bottom;verticalAlign=top;align=center;html=1;fontSize=12;fontStyle=0;aspect=fixed;pointerEvents=1;shape=mxgraph.aws4.route_53_resolver;" parent="k8oE8rLJ_aR2Wur4B68Q-1" vertex="1">
          <mxGeometry x="1180" y="220" width="48" height="48" as="geometry" />
        </mxCell>
        <mxCell id="NqxRcppyMZP1TzHfi3GJ-193" value="Availability Zone" style="fillColor=none;strokeColor=#232F3E;dashed=1;verticalAlign=top;fontStyle=0;fontColor=#147EBA;whiteSpace=wrap;html=1;" parent="k8oE8rLJ_aR2Wur4B68Q-1" vertex="1">
          <mxGeometry x="1130" y="200" width="530" height="280" as="geometry" />
        </mxCell>
        <mxCell id="cDpMovdqKkp22i0HmyFA-17" style="edgeStyle=orthogonalEdgeStyle;rounded=0;orthogonalLoop=1;jettySize=auto;html=1;startArrow=classic;startFill=0;" edge="1" parent="k8oE8rLJ_aR2Wur4B68Q-1" source="aUG3LbxuUC1HGJHPxJJX-0" target="aUG3LbxuUC1HGJHPxJJX-1">
          <mxGeometry relative="1" as="geometry" />
        </mxCell>
        <mxCell id="cDpMovdqKkp22i0HmyFA-25" style="edgeStyle=orthogonalEdgeStyle;rounded=0;orthogonalLoop=1;jettySize=auto;html=1;" edge="1" parent="k8oE8rLJ_aR2Wur4B68Q-1" source="aUG3LbxuUC1HGJHPxJJX-0" target="cDpMovdqKkp22i0HmyFA-9">
          <mxGeometry relative="1" as="geometry" />
        </mxCell>
        <mxCell id="aUG3LbxuUC1HGJHPxJJX-0" value="" style="sketch=0;outlineConnect=0;fontColor=#232F3E;gradientColor=none;fillColor=#232F3E;strokeColor=none;dashed=0;verticalLabelPosition=bottom;verticalAlign=top;align=center;html=1;fontSize=12;fontStyle=0;aspect=fixed;pointerEvents=1;shape=mxgraph.aws4.application_load_balancer;" vertex="1" parent="k8oE8rLJ_aR2Wur4B68Q-1">
          <mxGeometry x="1333" y="473.02" width="60" height="60" as="geometry" />
        </mxCell>
        <mxCell id="aUG3LbxuUC1HGJHPxJJX-1" value="" style="sketch=0;outlineConnect=0;fontColor=#232F3E;gradientColor=none;fillColor=#232F3E;strokeColor=none;dashed=0;verticalLabelPosition=bottom;verticalAlign=top;align=center;html=1;fontSize=12;fontStyle=0;aspect=fixed;pointerEvents=1;shape=mxgraph.aws4.elastic_network_interface;" vertex="1" parent="k8oE8rLJ_aR2Wur4B68Q-1">
          <mxGeometry x="1338" y="346.02" width="50" height="50" as="geometry" />
        </mxCell>
        <mxCell id="aUG3LbxuUC1HGJHPxJJX-2" value="" style="edgeStyle=orthogonalEdgeStyle;html=1;endArrow=block;elbow=vertical;startArrow=none;endFill=1;strokeColor=#545B64;rounded=0;strokeWidth=2;" edge="1" parent="k8oE8rLJ_aR2Wur4B68Q-1">
          <mxGeometry width="100" relative="1" as="geometry">
            <mxPoint x="1388" y="370.11" as="sourcePoint" />
            <mxPoint x="1488" y="370.11" as="targetPoint" />
          </mxGeometry>
        </mxCell>
        <mxCell id="cDpMovdqKkp22i0HmyFA-6" value="" style="sketch=0;outlineConnect=0;fontColor=#232F3E;gradientColor=none;fillColor=#232F3E;strokeColor=none;dashed=0;verticalLabelPosition=bottom;verticalAlign=top;align=center;html=1;fontSize=12;fontStyle=0;aspect=fixed;pointerEvents=1;shape=mxgraph.aws4.auto_scaling2;" vertex="1" parent="k8oE8rLJ_aR2Wur4B68Q-1">
          <mxGeometry x="1524.25" y="483.5" width="31.5" height="31.5" as="geometry" />
        </mxCell>
        <mxCell id="cDpMovdqKkp22i0HmyFA-7" value="" style="fillColor=none;strokeColor=#232F3E;dashed=1;verticalAlign=top;fontStyle=0;fontColor=#5A6C86;whiteSpace=wrap;html=1;" vertex="1" parent="k8oE8rLJ_aR2Wur4B68Q-1">
          <mxGeometry x="1490" y="320" width="100" height="370" as="geometry" />
        </mxCell>
        <mxCell id="cDpMovdqKkp22i0HmyFA-2" value="Application" style="sketch=0;outlineConnect=0;fontColor=#232F3E;gradientColor=none;fillColor=#232F3E;strokeColor=none;dashed=0;verticalLabelPosition=bottom;verticalAlign=top;align=center;html=1;fontSize=12;fontStyle=0;aspect=fixed;pointerEvents=1;shape=mxgraph.aws4.instances;" vertex="1" parent="k8oE8rLJ_aR2Wur4B68Q-1">
          <mxGeometry x="1510" y="605" width="53" height="53" as="geometry" />
        </mxCell>
        <mxCell id="cDpMovdqKkp22i0HmyFA-5" value="Application" style="sketch=0;outlineConnect=0;fontColor=#232F3E;gradientColor=none;fillColor=#232F3E;strokeColor=none;dashed=0;verticalLabelPosition=bottom;verticalAlign=top;align=center;html=1;fontSize=12;fontStyle=0;aspect=fixed;pointerEvents=1;shape=mxgraph.aws4.instances;" vertex="1" parent="k8oE8rLJ_aR2Wur4B68Q-1">
          <mxGeometry x="1510" y="345" width="53" height="53" as="geometry" />
        </mxCell>
        <mxCell id="cDpMovdqKkp22i0HmyFA-9" value="" style="sketch=0;outlineConnect=0;fontColor=#232F3E;gradientColor=none;fillColor=#232F3E;strokeColor=none;dashed=0;verticalLabelPosition=bottom;verticalAlign=top;align=center;html=1;fontSize=12;fontStyle=0;aspect=fixed;pointerEvents=1;shape=mxgraph.aws4.elastic_network_interface;" vertex="1" parent="k8oE8rLJ_aR2Wur4B68Q-1">
          <mxGeometry x="1338" y="600" width="50" height="50" as="geometry" />
        </mxCell>
        <mxCell id="cDpMovdqKkp22i0HmyFA-10" value="" style="edgeStyle=orthogonalEdgeStyle;html=1;endArrow=block;elbow=vertical;startArrow=none;endFill=1;strokeColor=#545B64;rounded=0;strokeWidth=2;" edge="1" parent="k8oE8rLJ_aR2Wur4B68Q-1">
          <mxGeometry width="100" relative="1" as="geometry">
            <mxPoint x="1390" y="619.09" as="sourcePoint" />
            <mxPoint x="1490" y="619.09" as="targetPoint" />
          </mxGeometry>
        </mxCell>
        <mxCell id="cDpMovdqKkp22i0HmyFA-11" value="TGW ENI" style="sketch=0;outlineConnect=0;fontColor=#232F3E;gradientColor=none;fillColor=#232F3E;strokeColor=none;dashed=0;verticalLabelPosition=bottom;verticalAlign=top;align=center;html=1;fontSize=12;fontStyle=0;aspect=fixed;pointerEvents=1;shape=mxgraph.aws4.elastic_network_interface;" vertex="1" parent="k8oE8rLJ_aR2Wur4B68Q-1">
          <mxGeometry x="1188" y="600" width="50" height="50" as="geometry" />
        </mxCell>
        <mxCell id="cDpMovdqKkp22i0HmyFA-14" value="" style="edgeStyle=orthogonalEdgeStyle;html=1;endArrow=none;elbow=vertical;startArrow=classic;endFill=0;strokeColor=#545B64;rounded=0;strokeWidth=2;startFill=0;" edge="1" parent="k8oE8rLJ_aR2Wur4B68Q-1">
          <mxGeometry width="100" relative="1" as="geometry">
            <mxPoint x="1389" y="638.09" as="sourcePoint" />
            <mxPoint x="1489" y="638.09" as="targetPoint" />
          </mxGeometry>
        </mxCell>
        <mxCell id="cDpMovdqKkp22i0HmyFA-15" value="VPC + 2" style="sketch=0;outlineConnect=0;fontColor=#232F3E;gradientColor=none;fillColor=#232F3E;strokeColor=none;dashed=0;verticalLabelPosition=bottom;verticalAlign=top;align=center;html=1;fontSize=12;fontStyle=0;aspect=fixed;pointerEvents=1;shape=mxgraph.aws4.route_53_resolver;" vertex="1" parent="k8oE8rLJ_aR2Wur4B68Q-1">
          <mxGeometry x="1170" y="729" width="48" height="48" as="geometry" />
        </mxCell>
        <mxCell id="cDpMovdqKkp22i0HmyFA-16" value="Availability Zone" style="fillColor=none;strokeColor=#232F3E;dashed=1;verticalAlign=top;fontStyle=0;fontColor=#147EBA;whiteSpace=wrap;html=1;" vertex="1" parent="k8oE8rLJ_aR2Wur4B68Q-1">
          <mxGeometry x="1130" y="531" width="530" height="275" as="geometry" />
        </mxCell>
        <mxCell id="NqxRcppyMZP1TzHfi3GJ-10" value="Private Hosted Zone (PHZ)" style="sketch=0;outlineConnect=0;fontColor=#232F3E;gradientColor=none;strokeColor=#232F3E;fillColor=#ffffff;dashed=0;verticalLabelPosition=bottom;verticalAlign=top;align=center;html=1;fontSize=14;fontStyle=0;aspect=fixed;shape=mxgraph.aws4.resourceIcon;resIcon=mxgraph.aws4.hosted_zone;" parent="k8oE8rLJ_aR2Wur4B68Q-1" vertex="1">
          <mxGeometry x="1175" y="72.5" width="60" height="60" as="geometry" />
        </mxCell>
        <mxCell id="NqxRcppyMZP1TzHfi3GJ-169" value="Zone: app.service.internal" style="shape=table;startSize=30;container=1;collapsible=0;childLayout=tableLayout;rounded=1;glass=0;align=left;verticalAlign=bottom;arcSize=5;fontFamily=Helvetica;fontSize=14;labelBorderColor=none;swimlaneLine=1;shadow=1;labelBackgroundColor=none;textShadow=0;fillColor=#232F3E;fontColor=#FFFFFF;swimlaneFillColor=#000000;" parent="k8oE8rLJ_aR2Wur4B68Q-1" vertex="1">
          <mxGeometry x="1323" y="60" width="475" height="86" as="geometry" />
        </mxCell>
        <mxCell id="NqxRcppyMZP1TzHfi3GJ-170" value="" style="shape=tableRow;horizontal=0;startSize=0;swimlaneHead=0;swimlaneBody=0;strokeColor=inherit;top=0;left=0;bottom=0;right=0;collapsible=0;dropTarget=0;fillColor=none;points=[[0,0.5],[1,0.5]];portConstraint=eastwest;rounded=1;glass=0;align=left;verticalAlign=bottom;arcSize=33;fontFamily=Helvetica;fontSize=12;fontColor=default;labelBorderColor=none;labelBackgroundColor=none;textShadow=0;" parent="NqxRcppyMZP1TzHfi3GJ-169" vertex="1">
          <mxGeometry y="30" width="475" height="30" as="geometry" />
        </mxCell>
        <mxCell id="NqxRcppyMZP1TzHfi3GJ-171" value="Name" style="shape=partialRectangle;connectable=0;strokeColor=#36393d;overflow=hidden;fillColor=#E6F6F7;top=0;left=0;bottom=0;right=0;pointerEvents=1;rounded=1;glass=0;align=center;verticalAlign=bottom;arcSize=33;fontFamily=Helvetica;fontSize=14;labelBorderColor=none;fontStyle=2;labelBackgroundColor=none;textShadow=0;strokeWidth=4;" parent="NqxRcppyMZP1TzHfi3GJ-170" vertex="1">
          <mxGeometry width="159" height="30" as="geometry">
            <mxRectangle width="159" height="30" as="alternateBounds" />
          </mxGeometry>
        </mxCell>
        <mxCell id="NqxRcppyMZP1TzHfi3GJ-172" value="Type" style="shape=partialRectangle;connectable=0;strokeColor=#36393d;overflow=hidden;fillColor=#E6F6F7;top=0;left=0;bottom=0;right=0;pointerEvents=1;rounded=1;glass=0;align=center;verticalAlign=bottom;arcSize=33;fontFamily=Helvetica;fontSize=14;labelBorderColor=none;fontStyle=2;labelBackgroundColor=none;textShadow=0;strokeWidth=4;" parent="NqxRcppyMZP1TzHfi3GJ-170" vertex="1">
          <mxGeometry x="159" width="88" height="30" as="geometry">
            <mxRectangle width="88" height="30" as="alternateBounds" />
          </mxGeometry>
        </mxCell>
        <mxCell id="cDpMovdqKkp22i0HmyFA-27" value="Value" style="shape=partialRectangle;connectable=0;strokeColor=#36393d;overflow=hidden;fillColor=#E6F6F7;top=0;left=0;bottom=0;right=0;pointerEvents=1;rounded=1;glass=0;align=center;verticalAlign=bottom;arcSize=33;fontFamily=Helvetica;fontSize=14;labelBorderColor=none;fontStyle=2;labelBackgroundColor=none;textShadow=0;strokeWidth=4;" vertex="1" parent="NqxRcppyMZP1TzHfi3GJ-170">
          <mxGeometry x="247" width="228" height="30" as="geometry">
            <mxRectangle width="228" height="30" as="alternateBounds" />
          </mxGeometry>
        </mxCell>
        <mxCell id="NqxRcppyMZP1TzHfi3GJ-173" value="" style="shape=tableRow;horizontal=0;startSize=0;swimlaneHead=0;swimlaneBody=0;strokeColor=inherit;top=0;left=0;bottom=0;right=0;collapsible=0;dropTarget=0;fillColor=none;points=[[0,0.5],[1,0.5]];portConstraint=eastwest;rounded=1;glass=0;align=left;verticalAlign=bottom;arcSize=33;fontFamily=Helvetica;fontSize=14;fontColor=default;labelBorderColor=none;fontStyle=2;labelBackgroundColor=none;textShadow=0;" parent="NqxRcppyMZP1TzHfi3GJ-169" vertex="1">
          <mxGeometry y="60" width="475" height="26" as="geometry" />
        </mxCell>
        <mxCell id="NqxRcppyMZP1TzHfi3GJ-174" value="app.service.internal" style="shape=partialRectangle;connectable=0;overflow=hidden;top=0;left=0;bottom=0;right=0;pointerEvents=1;rounded=1;glass=0;align=center;verticalAlign=bottom;arcSize=33;fontFamily=Helvetica;fontSize=14;labelBorderColor=none;fontStyle=0;labelBackgroundColor=none;textShadow=0;strokeWidth=4;" parent="NqxRcppyMZP1TzHfi3GJ-173" vertex="1">
          <mxGeometry width="159" height="26" as="geometry">
            <mxRectangle width="159" height="26" as="alternateBounds" />
          </mxGeometry>
        </mxCell>
        <mxCell id="NqxRcppyMZP1TzHfi3GJ-175" value="A" style="shape=partialRectangle;connectable=0;overflow=hidden;top=0;left=0;bottom=0;right=0;pointerEvents=1;rounded=1;glass=0;align=center;verticalAlign=bottom;arcSize=33;fontFamily=Helvetica;fontSize=14;labelBorderColor=none;fontStyle=0;labelBackgroundColor=none;textShadow=0;strokeWidth=4;" parent="NqxRcppyMZP1TzHfi3GJ-173" vertex="1">
          <mxGeometry x="159" width="88" height="26" as="geometry">
            <mxRectangle width="88" height="26" as="alternateBounds" />
          </mxGeometry>
        </mxCell>
        <mxCell id="cDpMovdqKkp22i0HmyFA-28" value="10.15.0.100/24" style="shape=partialRectangle;connectable=0;overflow=hidden;top=0;left=0;bottom=0;right=0;pointerEvents=1;rounded=1;glass=0;align=center;verticalAlign=bottom;arcSize=33;fontFamily=Helvetica;fontSize=14;labelBorderColor=none;fontStyle=0;labelBackgroundColor=none;textShadow=0;strokeWidth=4;" vertex="1" parent="NqxRcppyMZP1TzHfi3GJ-173">
          <mxGeometry x="247" width="228" height="26" as="geometry">
            <mxRectangle width="228" height="26" as="alternateBounds" />
          </mxGeometry>
        </mxCell>
        <mxCell id="NqxRcppyMZP1TzHfi3GJ-195" style="edgeStyle=orthogonalEdgeStyle;rounded=0;orthogonalLoop=1;jettySize=auto;html=1;fontFamily=Helvetica;fontSize=12;fontColor=default;labelBorderColor=none;" parent="k8oE8rLJ_aR2Wur4B68Q-1" source="NqxRcppyMZP1TzHfi3GJ-169" target="NqxRcppyMZP1TzHfi3GJ-10" edge="1">
          <mxGeometry relative="1" as="geometry" />
        </mxCell>
        <mxCell id="cDpMovdqKkp22i0HmyFA-26" value="" style="group" vertex="1" connectable="0" parent="k8oE8rLJ_aR2Wur4B68Q-1">
          <mxGeometry x="1240" y="620" width="101" height="19" as="geometry" />
        </mxCell>
        <mxCell id="cDpMovdqKkp22i0HmyFA-23" value="" style="edgeStyle=orthogonalEdgeStyle;html=1;endArrow=block;elbow=vertical;startArrow=none;endFill=1;strokeColor=#545B64;rounded=0;strokeWidth=2;" edge="1" parent="cDpMovdqKkp22i0HmyFA-26">
          <mxGeometry width="100" relative="1" as="geometry">
            <mxPoint x="1" as="sourcePoint" />
            <mxPoint x="101" as="targetPoint" />
          </mxGeometry>
        </mxCell>
        <mxCell id="cDpMovdqKkp22i0HmyFA-24" value="" style="edgeStyle=orthogonalEdgeStyle;html=1;endArrow=none;elbow=vertical;startArrow=classic;endFill=0;strokeColor=#545B64;rounded=0;strokeWidth=2;startFill=0;" edge="1" parent="cDpMovdqKkp22i0HmyFA-26">
          <mxGeometry width="100" relative="1" as="geometry">
            <mxPoint y="19" as="sourcePoint" />
            <mxPoint x="100" y="19" as="targetPoint" />
          </mxGeometry>
        </mxCell>
      </root>
    </mxGraphModel>
  </diagram>
  <diagram name="phz-ec2-steps" id="E_pmAPKLTuGr85r8PXYn">
    <mxGraphModel dx="968" dy="622" grid="1" gridSize="10" guides="1" tooltips="1" connect="1" arrows="1" fold="1" page="1" pageScale="1" pageWidth="850" pageHeight="1100" background="none" math="0" shadow="0">
      <root>
        <mxCell id="mtAr1kyN9IftIoCfLyEt-0" />
        <mxCell id="mtAr1kyN9IftIoCfLyEt-1" parent="mtAr1kyN9IftIoCfLyEt-0" />
        <mxCell id="mtAr1kyN9IftIoCfLyEt-2" value="&lt;div style=&quot;text-align: center;&quot;&gt;&lt;span style=&quot;text-align: left;&quot;&gt;&lt;font color=&quot;#232f3e&quot;&gt;private-subnet&lt;br&gt;&lt;/font&gt;&lt;/span&gt;10.15.0.0/24&lt;/div&gt;" style="points=[[0,0],[0.25,0],[0.5,0],[0.75,0],[1,0],[1,0.25],[1,0.5],[1,0.75],[1,1],[0.75,1],[0.5,1],[0.25,1],[0,1],[0,0.75],[0,0.5],[0,0.25]];outlineConnect=0;gradientColor=none;html=1;whiteSpace=wrap;fontSize=12;fontStyle=0;container=0;pointerEvents=0;collapsible=0;recursiveResize=0;shape=mxgraph.aws4.group;grIcon=mxgraph.aws4.group_security_group;grStroke=0;strokeColor=#232F3E;fillColor=#E6F6F7;verticalAlign=top;align=left;spacingLeft=30;fontColor=#147EBA;dashed=0;" vertex="1" parent="mtAr1kyN9IftIoCfLyEt-1">
          <mxGeometry x="1145" y="420" width="388" height="180" as="geometry" />
        </mxCell>
        <mxCell id="mtAr1kyN9IftIoCfLyEt-3" value="&lt;div style=&quot;text-align: center;&quot;&gt;&lt;span style=&quot;text-align: left;&quot;&gt;&lt;font color=&quot;#232f3e&quot;&gt;private-subnet&lt;br&gt;&lt;/font&gt;&lt;/span&gt;10.10.0.0/16&lt;/div&gt;" style="points=[[0,0],[0.25,0],[0.5,0],[0.75,0],[1,0],[1,0.25],[1,0.5],[1,0.75],[1,1],[0.75,1],[0.5,1],[0.25,1],[0,1],[0,0.75],[0,0.5],[0,0.25]];outlineConnect=0;gradientColor=none;html=1;whiteSpace=wrap;fontSize=12;fontStyle=0;container=0;pointerEvents=0;collapsible=0;recursiveResize=0;shape=mxgraph.aws4.group;grIcon=mxgraph.aws4.group_security_group;grStroke=0;strokeColor=#232F3E;fillColor=#E6F6F7;verticalAlign=top;align=left;spacingLeft=30;fontColor=#147EBA;dashed=0;" vertex="1" parent="mtAr1kyN9IftIoCfLyEt-1">
          <mxGeometry x="443" y="420.02" width="420" height="179.98" as="geometry" />
        </mxCell>
        <mxCell id="mtAr1kyN9IftIoCfLyEt-4" style="edgeStyle=orthogonalEdgeStyle;rounded=0;orthogonalLoop=1;jettySize=auto;html=1;fontFamily=Helvetica;fontSize=12;fontColor=default;labelBorderColor=none;" edge="1" parent="mtAr1kyN9IftIoCfLyEt-1" source="mtAr1kyN9IftIoCfLyEt-6" target="mtAr1kyN9IftIoCfLyEt-30">
          <mxGeometry relative="1" as="geometry">
            <Array as="points">
              <mxPoint x="648" y="373" />
            </Array>
          </mxGeometry>
        </mxCell>
        <mxCell id="mtAr1kyN9IftIoCfLyEt-5" style="edgeStyle=orthogonalEdgeStyle;rounded=0;orthogonalLoop=1;jettySize=auto;html=1;fontFamily=Helvetica;fontSize=12;fontColor=default;labelBorderColor=none;" edge="1" parent="mtAr1kyN9IftIoCfLyEt-1">
          <mxGeometry relative="1" as="geometry">
            <mxPoint x="672" y="496.02" as="sourcePoint" />
            <mxPoint x="769.9805681430812" y="496.02" as="targetPoint" />
          </mxGeometry>
        </mxCell>
        <mxCell id="mtAr1kyN9IftIoCfLyEt-6" value="Client EC2 Instance" style="sketch=0;outlineConnect=0;fontColor=#232F3E;gradientColor=none;fillColor=#232F3E;strokeColor=none;dashed=0;verticalLabelPosition=bottom;verticalAlign=top;align=center;html=1;fontSize=12;fontStyle=0;aspect=fixed;pointerEvents=1;shape=mxgraph.aws4.instance2;" vertex="1" parent="mtAr1kyN9IftIoCfLyEt-1">
          <mxGeometry x="624" y="479.02" width="48" height="48" as="geometry" />
        </mxCell>
        <mxCell id="mtAr1kyN9IftIoCfLyEt-7" value="Client VPC&lt;br&gt;10.10.0.0/16" style="points=[[0,0],[0.25,0],[0.5,0],[0.75,0],[1,0],[1,0.25],[1,0.5],[1,0.75],[1,1],[0.75,1],[0.5,1],[0.25,1],[0,1],[0,0.75],[0,0.5],[0,0.25]];outlineConnect=0;gradientColor=none;html=1;whiteSpace=wrap;fontSize=12;fontStyle=0;container=1;pointerEvents=0;collapsible=0;recursiveResize=0;shape=mxgraph.aws4.group;grIcon=mxgraph.aws4.group_vpc2;strokeColor=#232F3E;fillColor=none;verticalAlign=top;align=left;spacingLeft=30;fontColor=#AAB7B8;dashed=0;" vertex="1" parent="mtAr1kyN9IftIoCfLyEt-1">
          <mxGeometry x="400" y="290" width="513" height="330" as="geometry" />
        </mxCell>
        <mxCell id="mtAr1kyN9IftIoCfLyEt-8" value="" style="sketch=0;outlineConnect=0;fontColor=#232F3E;gradientColor=none;fillColor=#232F3D;strokeColor=none;dashed=0;verticalLabelPosition=bottom;verticalAlign=top;align=center;html=1;fontSize=12;fontStyle=0;aspect=fixed;pointerEvents=1;shape=mxgraph.aws4.authenticated_user;" vertex="1" parent="mtAr1kyN9IftIoCfLyEt-1">
          <mxGeometry x="153" y="472.25" width="50" height="50" as="geometry" />
        </mxCell>
        <mxCell id="mtAr1kyN9IftIoCfLyEt-9" style="edgeStyle=orthogonalEdgeStyle;rounded=0;orthogonalLoop=1;jettySize=auto;html=1;fontFamily=Helvetica;fontSize=12;fontColor=default;labelBorderColor=none;" edge="1" parent="mtAr1kyN9IftIoCfLyEt-1" source="mtAr1kyN9IftIoCfLyEt-10" target="mtAr1kyN9IftIoCfLyEt-15">
          <mxGeometry relative="1" as="geometry">
            <Array as="points">
              <mxPoint x="233" y="397" />
              <mxPoint x="233" y="397" />
            </Array>
          </mxGeometry>
        </mxCell>
        <mxCell id="mtAr1kyN9IftIoCfLyEt-10" value="" style="shape=image;verticalLabelPosition=bottom;labelBackgroundColor=default;verticalAlign=top;aspect=fixed;imageAspect=0;image=data:image/png,iVBORw0KGgoAAAANSUhEUgAAAwQAAAGUCAYAAACLAuWIAAAABmJLR0QA/wD/AP+gvaeTAAAACXBIWXMAAC4jAAAuIwF4pT92AAAAB3RJTUUH4QocCiUrCGs+cAAAIABJREFUeNrt3XeYJFW98PHvbF6WJboEG5QsOQsIomNAEbQEQQUtQZCLAbkYAAVFwQTI1cuLKCqoCC2IXgktiCBIoyIKokiOEkvyLhk2zvvHOe329vbErp5O38/z9DMzPV3V1edUVZ/fiSBJkiRJkiRJkiRJkiRJkiRJkiRJkiRJkiRJkiRJkiRJkiRJkiRJkiRJkiRJkiRJkiRJkiRJkiRJkiRJkiRJkiRJkiRJkiRJkiRJkiRJkiRJkiRJkiRJkiRJkiRJkiRJkiRJkiRJkiRJkiRJkiRJkiRJkiRJkiRJkiRJkiRJkiRJkiRJkiRJkiRJkiRJkiRJkiRJkiRJkiRJkiRJkiRJkiRJkiRJkiRJkiRJkiRJkiRJkiRJkiRJkiRJkiRJkiRJkiRJkiRJkiRJkiRJkiRJkiRJkiRJkiRJkiRJkiRJkiRJkiRJkiRJkiRJkiRJkiRJkiRJkiRJkiRJkiRJkiRJkiRJkiRJkiRJkiRJkiRJkiRJkiRJkiRJkiRJkiRJkiRJkiRJkiRJkiRJkiRJkiRJkiRJkiRJkiRJkiRJkiRJkiRJkiRJkiRJkiRJkiRJkiRJkiRJkiRJkiRJkiRJkiRJkiRJkiRJkiRJkiRJkiRJkiRJkiRJkiRJkiRJkiRJkiRJkiRJkiRJkiRJkiRJkiRJkiRJkiRJkiRJkiRJkiRJkiRJkiRJkiRJkiRJkiRJkiRJkiRJkiRJkiRJkiRJkiRJkiRJkiRJkiRJkiRJkiRJkiRJkiRJkiRJkiRJkiRJkiRJkiRJkiRJkiRJkiRJkiRJkiRJkiRJkiRJkiRJkiRJkiRJkiRJkiRJkiRJkiRJktSF+tr1wNIkm1IsFebF3ymWCuaWtKRXAJtW/T0fuGaI108FdgIWxb8nAdcCL7TwM2wDvBa4F7gReGIM+1gTWA8YiH8/Bdw8zDarAJsBC+N98AXgQeBRTytJktonINg2TbK/pkm2bppkfaaItJS9YiG48pgzzOsLNa8fADZv8Wc4tOZ4fjeGfRxes49L67ymD1gXKNVJg9rHw8ABnl6SpF4xoY2PbQGwHXAH8JM0yWbFQMFck4JKAbb6mhnLPlr9GarNH8M+FtX8vbDOa04D7gHeNYL9FYBNPL0kSQYE7WEhoVvD/sDjaZJ9qHLMBgaSRuhjwEdHuc31JpskqVdM6rDjPQs4Ok2yo4ulwgWOLZAE3A9czuKWghtq/n9MnW0eJXQfeib+PQBsAawDrA/8yWSVJBkQtK8NgfPTJCsDe6ZJ9nSxVHDgsdS7zo+PelYBXlnz3KXAbiabJEmdGxBU9ANPAmenSXaAQYGUiw0IMxdtSuhL/wrCgNzbCDMBXUqoXe+j/viDiYTBzpsCG7F4Bp+7gceAfxBmAJo7yPtXTyCwPvBmwixCmwI3AT8kDPqttk78f+V4HgOui7+vUec9jm4gfXYCXgdsCUwnDOT+J/DXqvesd6+aGX9/EbiaxeM9DozbV1o1dgGmEbpG3g7cFZ9/N2EA+NaEVo2/EcZFLPSUlST1ckBQKXx8GPhwmmR7AL8F5hoYSKPWFwvcmw7y/z2rfj+D0C+/tjCaABeN4L1eB/xlkP9NAPYDTiLU7ld7N6H7z24sOZPQXsA3q/6+HHh7/L1e0DKWqUW3Aa6qKtjXcwuwN3BnzfM/iIEWwOyYxlsCvwRmAJ+rCgh+DqwUf784bnsRS4/32h/4DvAmoOzpK0lqxIQu+iwXAtemSfZ2gwFp1AZiQDASBwHn1dw/thhhMMAQwQCEGvKf1gkGqn2PUDtfURuYzM85bT5BqJGfOczrKq0YW9Y8P6/q9+ViAf43MRiAMB1qvdfuBvx6mPv0lYT1JSRJGrNJXfZ5tgJ+mybZb4GDiqWCUxGpl0wkdJ8ZbN2OVYfZ/kZgH+A5Qjefyn76gBVrCp67AisQarwB3lmnUP4koYvMMvG56cCzwxzDSNYcWZXQFejucUjTacBXap5bCDxN6Pa0TEyHiinAFYSuVoPdczeoeW67QV5bHQi8FN9zWsyL6tf8bwxaJEkakwld+rl2BW5Lk+yHaZJNBKcpVU9YkdDP/55BHtcMs/0PCX3UtyCs/Lt+/LkBoTtQ9YrGM1iyf/6KNfs6t2r7yj42Z3FXnuE8CZwQX/8plmwF6BvHe9fuwMo1wcB/ARvHz7UpcFTNNisDO49w/1cw9CJoCwjdg7auSsvaGZDe76kvSTIgqG+5+MX9ZJpkexFqTw0MpME9Qxjg+gChRvoFQg3/c7Hg+kTN6zeu+r22r/7zVQHEi/HvhwgLDQ7lUeC9wKxY0L4c+DFLDyQeL/01f98O/AR4PKZRFgOX2TWv22GY/d5FGEuxC6FlZjB7EKZbviOm42zgCzWvmeypK0kyIBjaCsD/ATekSfbmymxEkkZlEUv2b688V1Hb/fCDwJl1CtTD+Xu8XmvvU30t+tzb1CnI13N5zd/rDLHP82Mw9ZcRBmm1png6SpLyNKmHPusWwJVpkp1BmKnkUcCpStVNXibUpg9WeJ5BmMFnKDOBV8XHOiyu+Z/Pkn3la11J6NpTsTyhq8v+8e9fEAYDX0eoWR9MX5ul6YQRHt/zNX8PDLHPxxn5dKF9ntaSJAOC/B0EvD9NstOKpcLnDAbURZ4HDhni/6sOExBUVuhdZQzvfQlQBNJB/v+++LiZMJZAkiS1iQk9+rlnAkemSTYnTbJdHHgsKwBYhjBOYNYY9z0AfIjQxeY3hK419WYU2gz4ZBem7YCnlyTJgKAzrUDo+3t9mmRr2VqgHrYSoWWg0kVlAaGLz0cIg/M/TFgBeDh/J8zMsyWhn/yBdV7zjhZ/1tGs7jtxhK9b1VNIkmRA0Nm2Au5Lk+ykNMmMCtSLliHMcV9xP/DfhDEJZxAWC3tmFPurzMDzE+DbNf8bz4W06hX+9xzF9n+pU4lQT+1aAs/ldPyL6jznrEKSJAOCJjqcsH7B8ZUn7EakHtU3SNAwmFWBtQb5X203pInj+Dnqrb58KnAiYaKBTaoeewJHAn+tClr+WLPtzoSpQqsdC6xW89yvczr+ei0PteseTPJ0lSQ1wi+SpS0HfD5NsgQ4rFgqXFEJDOxSpC72AqFWf3r8e13gYuB6QgvaO4fZfu9Y0IawZsBf4v1lFrBTzWuvGufPdjqh21PF5FjwP3KIbXaMx3k+YUXiqVX3zMsJazK8QFiEbGbNtk+x9OJhY/Wr+PO+GEitTJgtqtpPPX0lSY2whWBwGwOXpUn2zzTJ1nP9AnW5JwjdhKrtSpii950j2H6rqt/XiAHCHnWCAQi18+Pp84yuuxOElYEhjKU4vs7/ZxFaRGbW+d8eTfgMaxOmgp1R53+f8PSVJBkQNDd9NgfuTpPsOGLzvYGB2sREluzas8wwr+8b4h4wjzAA+MlBtr2XMB6gWnUL40zCOghDeYSwYNncqudq+8NPG+S4l6l5Td8Q+6gdozAbKBBaPJ4YYdq+uur344DDCCs4D+UWYB+Wbh2YXvN3XguLZcB7cIYjSVKD2nbRmzTJtgT+xvj2Nx7Oc8A3iqXCCZ46agNTCQuAVSwaokBfKfzPqipA9hG6tyyoes1ysZC5TXzdv4GfExbTejEGxZXtn6kq3E+NhfY147bbsHhAb1/cx80sPdh2OkvWss8Dnq5zn1qp6l4wEAv5C6sCoWWrXj+X+i0CffF1GxNmOlqppjB9E/DPGPy8zNILqE0n1NTvTei6U9nnbcClMeCZV+d9V6oJnl5i8EHHj7DkeIS94ntsGfOm8vkvjPfH570MJEkGBK1xI/C5YqlweTxWxxdIykNtQLAz+Y1HkCSpLrsMjc2WwG/SJPtzmmTTHF8gqUn6TAJJkgFB+5oIvA54KY4vWAEcXyBJkiQDgl70JeDRNMk+aNchSZIkGRD0pqlA0WSQlCO7DEmSms6FySSpfVQmUbgTKLP02hCSJOXOFoImqx5T4PiC8dffX5psKqiDvIbQKrAh8DHgQZNEkmRA0PmmpUn2+zTJVnM2onEJACo/J/T3l04B/p+pog4yxySQJBkQdKfXAo+kSfYDYBWwtaBZgUC5nNDfXzqA0OXiUOovFCVJkiQDgnFVWVH14BgYHFSZjcjAINdAYKP+/tKtwI+B9eJLHJQpSZI0BAcVtyYIOz1NssOArxVLhfNMkrEHAzEQWBs4FtjPVJEkSTIg6BSbAj9Pk+xo4E3A7MoYA9cyGD4IgP+0CnwS+I4pI0nD6iNUSk0ktFy/DdgImAUM1Hn9E8BthNmu7gcWVT0GTE7JgED52Rx4HPhemmRHF0uF5w0KBlcJBvr7SwcCR7G4a5Akqb6pwAeAXYANCBVSU8ewnznAA4TZr+4H/gBcDTxpEksGBGrcRMIA2EPTJHsPcBGhBkYs0TWoD1gJuArYzJSRpCEtC3wV+FRO+1sxPraMf/93/Hki8HmTW+pcDipuP+cD16VJ9q7KE70+8DgGA8sAPyLURBkMSNLQTgQezjEYGMpzJrfU2WwhaE/bAKU0yS4APlIsFeZUAoNe60rU31+aCuwNFD0tJGlYM4ErgO3G8T2dLk8yIFAT7Qm8LU2y04Bji6XCC90eFFQPGu7vL+0NfBHYwlOhrtWArejtqVUnADcAj3g6SKwM/B141Ti+50JcUVsyIFDTzQAOBz6ZJtmehJqfBd0aGMTuQasD/wfsaPYP6fXAL00GUuBnJoPEP4Hx/mJYaEAudT7HEHSOacClwDVpkr2um4KByuJi/f2lmf39pR8DdxsMjIhT/y0ukEi97uctCAYq96HZJr9kQKDxtR3w5zTJzk2TbNVuCASASf39pX2Bx4ADCK0ikqSRWZ/QxbRVAfljZoFkQKDW2Ae4M02ykypPdNJsRFVTib4b+BtwDjDdbJWkUTsFmNKi9/6XyS8ZEKi1lgcOT5NsfppkOxPWM2jrIKDKav39pfOBC3HQsCSN1drAri18/zvMAsmAQO1hEmHFyL+lSbYxtGdrQdXsQacC99C6Jm5J6hZfbPH7X20WSAYEai9bAremSfZNwmqStDo4qBowPLm/v/TO/v7SAuAQHCcgSY2awuJVg1vlz2aDZECg9nQE8K80yU4AKJYKLQsK4jiBrYHrgV/T5t2aJKmDLA+sk/M+7wPuBM4FrgLuBR4Y4vU3mg1S53Mdgu61AvC5NMn2Bj4MXAssHM/1C/r7S2sARwGfMDskKXcz4r2+UU8TBiafALw0xOsmAusBbwc2AnbAqY+lrmALQfdblzC+oJwm2QbNbC2oHjTc31/6LnCrwYAkNc1WOexjDrAB8OVhggEIU4zeGYOHj+f0/pIMCDRO+gir2t6ZJtmXgdUhv7EFNesJ7NLfX3ogBgLLmfSS1NYBwc7AEyalZECg3nIscHOaZIfn0XWoaj2BrYC/A5cBrzKZJanpZjW4/V2EMQKSDAja+tgcgNocKwMnpUl2V5pk2481EIgK/f2lb8ZgYDNCa4QkqfkaHT9wPzDPZJTUzgHBrcCpZlFTrQ/8KU2y69MkWxlG3o0otgp8PebTESZlS/QZgLX9fUxqps0a3H4OsMhklNS2swwVS4W5wKFpkp1FGMC0g9nVtHNgW+DJNMmOAE4Hnql9UaVrUPx9F+AM7BrUarcBX2liUDAX+CxVa1qMwSPxXGnm+Xuzp4J61ECLt5dkQNB8cYrM69Mke0MMCK7GGtFmOgn4appkBxdLhbOr/xFbBF4BXEGolbJWtvVuJ8wM0kwHNBgQ/Bv4klklte09RJLau1BXGfRaLBXmF0uFPxZLhQnA/wDPm3VNMxU4K02y/jr/ewLYwmBAo2QQL7WnBSaBpLYPCKpV+rYXS4UjgDWBX5p9TSu8LQDmmxSSJEkGBG2jeorMYqnwdLFUeB/wZuA6s1GSJEnq8oCgVhxfcBVhbMHbGX6FRUmSJEndEhBUtRgMFEuFywlz658KvGi2SpIkSV0eEFQHBrG14CXgUMJUmJeatZIkSdLwJnXDh6gZX/AUsFuaZLsCXyXMsS+pN6xMmAlrY+DVwNbAcoSJCAaA1Wpev4gwe1YfcC9wD/AgcAtwB3BjF6bRNGB3YDfgQGBV4PE2Or6dgb2B9wFHAWeOcT99wFoxz9eOn/OV8XzYOJ4PG8VzYBKwUp19zCFMsDARuAl4AXggniO3AQ/H51u1uNfCBref24bn58SYP5vH63YjQkXfajGPJgCvGOI6vht4ljClauVavgV4rAuv5eWBXeP1/Drg9W34OZeJ9+Q1gfWAAmHq8nVjXq9a8/rHgfvidXVFfMxuwnGtEI9nA+A18R6xZnwsC8xiyUrzfwP/Av4B/AG4DHjOgKAzAoPfpkn2O2AfoGg5SepaE+J1/vV4M+9j5K2fE6q+kFaJX6rEwuJALHBdChweCxrN8MtYAB7NzF6TGf10rpOBLxDWrhio2n7ZIQKCTwLfGcOxfRz4/iiPLwV+GAOWyrFtOcp97BkLSP3AOixezXusq3pXr8Hxppr/VZ8jvwa+FgsLjZoVC3UjmRK00e/wbwLHNxBwXQW8Lafr4M3AMTHvFo0yz2qvY4B3VAULA7FAdybwDeDlJl3L3yb0VBjNgm/zgdfGAHM097zjgcOAKTGdXhjmvvdhwsKjA028x1SsBhwE7B8L2qO5BleJj+3jPhYBxxEqeBtVAD4dKxsKVefxSI7rlfHx+nhfXBi/c47tpi/SrlUsFRYWS4WfxRqhk3GJdqmb7AKcHW/MPyPUBk/M6b5WCSomAwlwF/B3wkJteZtY9QU80kelADUSWwI/ItSyfbnq81VsP4LviNEe21YjPLZlgCMJNe1nA9Nrjm3lIbZdB/hYzPubY0HnfOBgQq3fpKrzoRlrYVSfI++J58eDsfCyRoP77RthWjf6uSaMMm+rH5NiYbQR28WA8zngyhgMkHOeTYjnwZox4Hgpvtf+TbqWJ40yHaeO4nzZmrDy+9x43UytSqcZMZgeKh0mjfI63m+Ex7VuDOjPjMHsI7EAv16D12Bf3P4r8fraeJTbrxkrJ86JlR4PA5+Nz09o8LgmxfvpTcD6BgQdII4veC5GhSsDt1qOkjracrEAeHn8EhovWwE/JkxcsFUbpMN2w/x/OvA7Qq31gYSWgHpe06S0Gu675zOEWs0TWVxbV6+gMZjjgdOADwCbtsm5uSZhZe6HgBPo/kX5bhnjdivEQvlfCbWty47zcb85Fl6fH0Vg3SwTRxAQLEdoqbwB+AiDtwy9Oudj+9gw/38joZvlPTGg35/FLTTNuKfcNMJzZbdYifMg8D1gX0LLWzNsFt+r44OCrg8IqlY7rqxfsGmszbnDcpXUMSoFqyMJNT2tLABOJ9RWndriNNlikOdXJqzo/hzw1hHsp9CEY9t6iP8dGr+ovzWC/cxkcW1lXoXR8fI54HpCLWm3X5ejcQTwaBsUxCHUql8J/JbQ4tQqaw1RwD8ZeJrQFW44eZ9r27J0K10/i1scy8ME7c0InjLCmJJ6wcn34/fDJS0ooF8d71cGBB0WJFxQLBU2IrQauCKv1P4G4hf3iYRm8nZwCGFcwbQWvf8ede7nnwCeJDSLTxzhfjZswrEtYslBun2EftLzgVNGEYRMHOJzXNQB5+02hFbptbv0uhzNANZlYyD9zTa6hiveTphU4B0tev/N6jz3UcIg1sNGEXi9tgllxC3jz50JA7evIrQ4rtiitFqO0PpWsSOhRa4c02xWi45rdeCPBgQdKHYlOjl+GZ5seUtqWzOBf9IeNYq11iN0y5nYgvfuY3Ef7ncQaqO/O4b9TG/Cd8EEFtccbkgYdHsdox8EuwKDdxG4qUPO3ykxcNyoC6/Nkc5OtRJwLe3R1W4ovyFMIDDeqlsn3hGDyO+P4bpcK+fjmggcHe+/f2Dp2Z1aZV9CC9zNwDU0NmYnT1sA7zUg6DBVMxL9q1gqfJowetzxBVL7+T1hCsJ29XpaUzM0IRYAfhoLMluPcT/TGLxbTiPHthrwKcL0j7uPcT/LxoBlMA91yDk8ETiPxgfhtpuR1FwvF4PVTTvkM51EGBg+nippc0G8ljce436aUTB+c5vm3Qltelz7derF3LMBQXVgEFsLHonjC/YhDBCR1PrCxll0xloiryN01xlPkwi15I1+AS1PmO2nGXn3vw3uZ9owheiHOuh83owumqKQ0C3swRG87ipa2z9/LL4YA/3xLIs9xtLdAEdrY9Rq7yS0bBoQdGpQAP/pRnResVR4DWGaK0mtsxXwoQ463u8y9DSZzQiY8uiLPYPm9OnO40txMkO3EFzXYef0UdQfENnJQftQfsTYW65aXTb6I+PbFXAV1C2Oo0NPetUEBvH3LxNqNb5vykjjbgqhq1Cn+XkHHvNU8u8ylKehZjHpxG6eR3bJNbqIMN/8YDamOet2jKdL6bypY9f066Pl9jUg6D73FUuFjxPm6X6E0a0+KGnsjiN0Zek0ryMsitVJlmH854EfjdWHukcTFqbrJLu1eQA2GkPN0lei89dh2IXOGftQsR1qtRVpn4HOBgR5qBpfcFexVHgl8EHCokSSmmc6HVrDQuh+8+EOPO5CGx/bUDPTPE7nTR29Nt1RizsAPDXI/z7A+M5P30xnddjxzkTtULbuuPVHJplvwwcFVb+fC5ybJtlphL7NM0whKXevJd8VN18gtPBdAtxIWO1zIqFmeUtgE8JgvjVyuqY/T5iqr5O086DPoVpcMmAe9deCWBCDhcrPuYTF2m4k1NBfyeCVYq+KBffNCPOaTyff9SYOi4/BCtoD8bhH8h3eSC38IsbewjIvXlv1CkP/1YTzYBHwUnzfBVXpU5l+d2LMp7xnctqS0EpwS4dcyx2/Ym4X6GPJdVgMCLpRbDH4eJpk3yYMPN7HVJFy9bWc9jM/Fs5/BTwwyGturirErxmv52/m8GWwC2F9gk7RzrVZQw3Unl1VAPw3Yb7/PxBmivsX8CzwDGGl1+fG+P4rEKalfjfwjZw+00FDBARPE2a4Ga6L6guEaSobCeZOB84cY1AxADxf5/llyXeGngWE2Zn+FAPAJ2JeLqp5zxnxGt4AOJiwcm1evkznzC//atQOAUGh0w7agGCUqloM7i6WCvumSXYKcK4XoZSLGYQVMRuVAW+KBcSReogwB/nfgctobIaRj3VAQLAofuaPAb9tw+ObHQuC34lfsIMVkPcgzAjTrO6cT8fHbcC347nV6GxSyxD6Gc8ZJJD98wj30+hnfhD4S87ptVdOZYtFhEk9DhnBa5+Pj8eAvwHnxPvIBeQz89fWhK44z7XptTyfMJ7mo4QVe9vFizFwnRsD9tuBHQhrU6xCaxZ0rBxX5fE0odVw+xj8r5zT+dtpU+06hqCRwCC2FlxLWInz3aaK1LA9ctjHo4R+53ePcfsrgfc1eAwbt/DLbiQuiF/M67RRMFAp8N8Xz4NCDAZg6Nryyxi/sV1zCauRPpXDvtbr0mv4kznt560jDAYG80fCOIbrcziWtWjfSQ5+SWiR2aRNgoF5hOlmdyd0/1yf0HKzPWF81YaE7njbxSBhvMwBvgf0A9sQWpJeHa/n/eNxrQskLO6214hpnXbhGhA0GBRELxdLhRKOKZAatWMO+ziK0K2gEecz8lrael5B6HveTgYI3WheD7wnFpQWtdHxPQF8PAYpFwEvt+k5mgGn5bCfdbr0Gs5j3YH3EBY0a9QzsSDa6Lk0AXhDG6XxQsKYhg1i5cV1jGzMSTML22VCV8mphC5xvyG0qj0zSGD9D+AdNHdSgEfjvXxTQp/+Q4CrgTuo3zr3AmGq2bfS+AxZHTcrpQFBjoFBsVR4MU0yE0Qa+/2o0VrTxwl9ovNwXgPbTif/1X8bcTuwUyxAXNNm+f4ccCChtq5T1n05IYd9LNeF13AeheargQtzDoT7c9jPW9okjW8ljI9opBU0LzcTatQ3JXTRvGKU+XJTvGfn7VcsbgXYi9GvV/J74J+9+AWsJgQHprPnuEZtMmHwZiPyXGG83MC2M2iP5eufIiyEtTFwLe01Z//zwM8IXTF+Qvu2CNTzAmHAciPW7cJreMMc9vE98q9dvYEwNqiTA4KHCbM3bRqD+gUtPPf/QZiBa3Pg1zTW9ecPOR3X00CR0BKwd8zvRsZ8XGZhSXmbB5xtMrTEHcAPTIaOCghWb3AfeQ7kvanB7Vu9oNHnCS0uJ7VhXl8Y0yelcxd8vK7B7ad04TW8WQ77+EUTjmsBjQ+ebuXEIUfEtD2jxfn7A0Kf+63JbxrWGxvcfhHw1Xg/+RD1uwKNxVwDAuWqWCosKpYKh8SL6AZTZFzMBo4ul5ONyuXklv7+kinSGfpobAXX52m81jZPrRpTdD1hEN+JhFqzdnIfsGd8PNDh5+ujDW4/0IXXcKPjZprZnS2Pmujx7uZ1HbAq8D9tcC1fTJiR7N6c9zuvwe1fAL5EGNsjA4L2Fmcjuokwq8cu1J+7Wfk4EdioXE6OrzxRLiemSmeY1OAX7jPkX6vTSCvBFuOcfgsIg/R2IHQvaDefICzydGGXnK99XrJLmEgYTN+IO5ocKDdq5XFKyxcIY352oDl97Mdisqd4938Bq8mqxhUsKJYKVwAz0yT7IbAvYUEVNe5aYP9yObnbpOjZAtZC8p8156UGth2vQcULCDNpvL8N83SAMC/8HozvFINqjUYrGa9s4rHlUVnQ7KkkXyKsqP5eTyV12sWrUQYGlVmIiqXCwYQ+iWeZMg15njCN4hvK5eRuuwepB13dpsFApYAz3vONq3O1eyXlRk3e/xkGA/Li61JpkvUBM4ulwrOVoKDKnGKpsH+aZOcA3yIsLKKReRr4brmcfLH6SbsH9bx5Oe+vE/p5v2y2S+Oi2d3EXjSJZUDQvaYAN6RJ9tViqXBWHE9ADA4G4s/L0iT7PfB2oIR9U4fzHeDL5XIyB6C/v2QgIAj9l39KfgvdzCessilJkgGBGq5RmAX8NE2yg4DDCHP4Uh0cAPOLpcLFwIQ0yX5AGF8w0+RbwrXAMeVycmW9ZUNgAAAPC0lEQVR11yCDAUXLYHO7JEmj5hiC8bUz8Nc0yS6BJbsP1fz+UUJfxUtNMiBMJflGYOdKMGAQIEmSlA9bCMbfZGC3NMkWEVoLziyWCs/VtBZQLBWy+Lp3A8cSpuvrNc8QuoB8qlxOBiqtAgYDkkZhZcK6DMsTupXlMX3iPFq7UJUkGRB0iT7gFOBLaZLtXSwVrq59QQwSLootCu8Bzuuh9PkFcEi5nDxZecJAQNIIrQR8AdgbWJEwlmui33mSVJ9dhlrvFUA5TbJfp0m2bfU/atYv+AWhhuv0Lk+Pa4G3l8vJ+6uDAUkagT0Jq7s+BXwGeBVhLNZUgwFJMiDoBO8ErkuT7Lw0ySYC1WsWVFoLngUOJjSBX9uFaZAQ1hO43PUEJI3CLOBu4FfAa00OSTIg6GR9wPuAJ9Mk+zihiZs64wtmF0uFHYH9gZu64HN/G5hcLie/Jqy6avcgSSO1FXAvsB5O2SxJBgRdZAXge8BzaZLtWLPCcXVgcFaxVNgCOKpDP+efCFNFfrZcThY4e5CkUdo83kecolmSDAi61nTgmjTJfgVsWnmyEhxUfi+WCicAqwI/pjNWVr0ReFe5nOxcLicvVYIAgwFJo/SzWKkgSTIg6HrvAf6ZJtmpaZL11a5fEIOCx4GPEAbR3dumn2MhsF+5nGxVLicXQ1hlWJLG4DSqKkokSQYEvZJXhwD/TpPso5Unq8cXFEsFiqXCw8VSYT1gP+DONjr+bwFrlMvJ2a4yLKlBq8V7nCTJgKBnvwi/nybZo2mSvboSDFR3I4rBwdnFUmFD4Gu0thvRDcCscjk5HHjUIEBSDt6CXYUkKTfOy9y5VgXuj+MLPlMsFR6sfUFsPTgmTbIzgWMIsxKNl5uAr5XLyS8hdA0yEFCTPUNY7O/lNjiWPrpjBrB2ZeuAJBkQqMpewF5pkh0PfKlYKiyo/KNqrMG9xVLhw2mSHQNcDazd5GP6dLmcnFwdCBgMaJwCgm/Fn+pub8txX2NtQXWKU0kGBGo7RwHvS5PshGKpcAYsHl9QNfD4IWCdNMkOAr5K6H6Up+8A3yyXk4crTxgISMrZDjnt5ybgAuAOYO4ot50HHAm8weyQZECgdrMucHqaZEcRatD+Raz9qpmZ6AzgjDTJ/hf4VIPvORDfZ+dyOXnEWYMkNdk2OdyzPgOc3OB+9jUres4ik0DdykHF3Wkd4B7gvDTJCrD02gUxMPg0sCFhLu+xeBRIy+VkvUowYIuAWmjAJOgJ2za4/e9yCAa0tD4a70a1QpsX5v9mNsuAQJ3ovcDDaZIdVn2jrm4tAO4slgopsDPw+Aj3+zJwfLmcrF4uJ+dUnjQYUIsL9CsC00zGrveaBrc/1CRsWoG70QH9WzTx+F6Zwz4mms0yIFAnOxm4K02yD8GSrQVV4wv+VCwVVgUOBGYDkwfZ14+Bjcvl5Gi7BylnC2hsQPAUv7B7QqGBbecCd5mETQsI5jS4j12aeHyb57CP+81mGRCo060HnJUm2fXACmmS9VWCg+q1DIqlwk9iYHBLnX3sVC4nHwHuA1sE1BSNtBJMA2aahJ4jQ3jW5Guquxvc/lXAsk06tt3NHsmAQIttCzwFnJkm2cxKCwEsNfD4yeqN4viAPztOQE00n5F3WxvMB0xGqWXuzGEfn27CcU0Ctm9wH38we2VAoG7M9/2AZ9Mk2weYDkuvdlytEgQYDKjJAcFDDe7j8yaj1DI357CP/YEZOR/Xh4A1GtyHCw3KgEBd7Vzg+jTJkprBxtJ4W0iYuaoRU4DPmZRdrZGZbGbleBzOatWcgGBd4Ec5HtNOhLFvjTrL7JUBgbrdJsBFaZJdmybZK00OtVA5h30cDWwwjse8DKH28UAar4XU8BrtVrZjDscwjXxmrelG5+Swj/fH/TQ6a9iWwEU5HM+zwMNmrQwI1Ct2AO5Ik+ycNMlmmBxqgcty2MdyhPnCD2nicW5ImL7ykvhe9xJqNd9iFjbdvQ1u/8MGtp0J/IAwscKbzYq6vpvTfvYF/g4cMIZtVwWKwPXAyjkcy/3Ak2atDAjUS2YC76Px1UClsXgIeDCn8/jU+EW+B2H2kuWAqSPYdkp83UqEKS7XJdQqHwNcRegqcjtwCrAbsFHcBmBXs7Dtg8ZNgOMYWT/1KbFw+VrgAkJN8cHAambDoG4CHslpXxsRuvu8HK+3XeP1uGadx+bAQcCthK6HHyQMJs7DpYQxTlLXmmQSqI4BQn9uqRW+AJyd075eHQtyL8dCwouEWbb6CHOm3xMLHdVTHa4Q/79iDCxGM5XptoSKlkVmY9PcnsM+vkSogb4EuBa4Md7zpgBbAWsTKkXWB1Ynn1rmXvE8YUae9+e4z6mEFrnKonIv1XnN9CZ+puPMVhkQSNL4ujAW2vMshE0D1hqHY59JaFmwe0Hz/CWn/awPfCo+lK+jcg4IxrPwX+sbgwQgUlexy5CkdvM8cEWHHnslIFBzXWIStLX7gNO64HM8Q35jIiQDAkkapUM79LiXIXRTUnOdaxK0tT7gcDq/pex04N9mpwwIJKk1niAMbu9Eu5l9TXcNYTyI2tNAzJ/DO/gz/B44wqyUAYEktdb5hNk9Os0bzLqmux+42GRoez8FTu7A434UeC+NLYInGRBIUg4WArsDN3TYcW9t1o2L95sEHeEIoNRBx/syYUGz2bgatQwIJKltbEdYYKiTbGu2jYuDTYK2twB4N6HFr909Qljl/DGzTQYEktQ+Bghz+u8I/KyDjnt3s25cnA5c3cL3/yJwi9kwInsDH2nj4/s9YdGzh8wqGRBIUntaCKSEQYrtXnv3HE49Op76WxAU/A7YHvg6cI5ZMOLg/seEhQCvbaPjegr4CvAWQnchyYBAktq4MAHwrVigOKUNj/E2Qg3oWsBnzbJx9bZxKphfDKwB7ApcF5+7yuQflTuANwKvp/XTkh5LaBX4cs19RjIgkKQqU1u8fT1zgMMIKxmfBNzYgnSZA/yDMB/+fwFrApsQakBnE/pNj9SUBo9lShM/Z6Or2U8bp/yYB3wQ2DcGZnm6mbA41frAu4CM0I2t4n7CYnqjNbkNrs/JLbqvzCdMHTsLeCdh0PHj4/C+C2Mg9w3CIoLHERYfy8vkNs6PiW16n2nXe8zkNk2vtr3ZS+puBwIzGtj+aZpX6zYbODLeeCcD+wD70ZxpP+cSpkC9HvglYfDhvPho1FeAH40xnfrisTTLhcADsSA1FgvG+Xz9OXBBPAdOJQwQHYvbYnB3diwwzh3itU8Q+sdPH+V73JPD5/0YsNwYt+0Dbm2De8wlwG9i+m0KfAg4oMH7Tq3fEqZAvTjm5fwmfZbTgMsb2P6uJqbz5cCeDWzfrK6aFxBWtm63e8xZwF8b2P6+Tvuyd47dJkuTbBphTuPlO+iwFwD9xVLhGnNQHWptYCtCzf1GhNqxVzJ0LdnjsYD/cAxk7oq/397EAoSaa1VC3/Bt4rmwfE3gtYiwEu1ThJr/PxJaftR6MwgzjK0br+fVgGWBFQYJnit5+SLwL0LLzU3xd0nDsIVAUje6j6VraIbrIrnIZOs6jxHGFpxDqACbUKcwab63pxcI4zOqx2gMlofmpWRAIEkjYmGhtw0w9m4JMg+lruagYkmSJMmAQJIkSZIBgSRJkiQDAkmSJEkGBJIkSZIMCCRJkiQZEEiSJEkyIJAkSZJkQKDRGTAJJEmSZEDQm+YBRwIvmxSSJEkyIOg9i4qlwunFUmE6cFEMECRJkiQDgl5QLBWqf98D2B641JSRJEmSAUFvBgg3FkuF3YC3Ak+ZIpIkSTIg6DFpklEsFa4E1gE+ASw0VSRJkmRA0COquhE9WywVTgOWA34HLDB1JEmSZEDQQ4FBbC14sVgqvA3YGvizKSNJkiQDgh4KCqrcUiwVdgIOAJ4xdSRJkmRA0FvBwUD8eSawNvB5U0WSJEkGBL1pTrFUOBF4BY4vkCRJkgFBb6kaX/BUHF/weuAOU0aSJEl56jMJOkuaZIcAxwCrNvFtFgD9xVLhGlNckiSpu9lC0FnBAMVS4bvAJsAXTRFJkiQZEPSQqhmJniqWCl8HVgeuNWUkSZJkQNBjgUFsLXgU2AnYHHjYlJEkSZIBQQ8FBdFAsVS4uVgqrAkcBzxh6kiSJMmAoPcCA4qlwrHAOsAppowkSZIMCHrT88VS4TBgCxxfIEmSJAOC3lI1vuAm4I3AzsAcU0aSJEn1uA5Bj0iT7KvAJ4CVRvBy1yGQJEnqEbYQdH8gAECxVDiGML7gJ6aKJEmSKmwh6M0goR/4GmHK0npsIZAkSeoRthD0XjBAsVQoA28AtgNeNlUkSZIMCNQjqqYpXVQsFa4HlgG+Bbxo6kiSJBkQqIcCg9haMFAsFQ4HVgZ+Y8pIkiQZEKiHggL4z8Djl4ulwu7ALsAfPDckSZKkHpUm2YQ0yRxwLkmSJEmSJEmSJEmSJEmSJEmSJEmSJEmSJEmSJEmSJEmSJEmSJEmSJEmSJEmSJEmSJEmSJEmSJEmSJEmSJEmSJEmSJEmSJEmSJEmSJEmSJEmSJEmSJEmSJEmSJEmSJEmSJEmSJEmSJEmSJEmSJEmSJEmSJEmSJEmSJEmSJEmSJEmSJEmSJEmSJEmSJEmSJEmSJEmSJEmSJEmSJEmSJEmSJEmSJEmSJEmSJEmSJEmSJEmSJEmSJEmSJEmSJEmSJEmSJEmSJEmSJEmSJEmSJEmSJEmSJEmSJEmSJEmSJEmSJEmSJEmSJEmSJEmSJEmSJEmSJEmSJEmSJEmSJEmSJEmSJEmSJEmSJEmSJEmSJEmSJEmSJEmSJEmSJEmSJEmSJEmSJEmSJEmSJEmSJEmSJEmSJEmSJEmSJEmSJEmSJEmSJEmSJEmSJEmSJEmSJEmSJEmSJEmSJEmSJEmSJEmSJEmSJEmSJEmSJEmSJEmSJEmSJEmSJEmSJEmSJEmSJEmSJEmSJEmSJEmSJEmSJEmSJEmSJEmSJEmSJEmSJEmSJEmSJEmSJEmSJEmSJEmSJEmSJEmSJEmSJEmSJEmSJEmSJEmSJEmSJEmSJEmSJEmSJEmSJEmSJEmSJEmSJEmSJEmSJEmSJEmSJEmSJEmSJEmSJEmSJEmSJEmSJEmSJEmSJEmSJEmSJEmSJEmSJEmSJEmSJEmSJEmSJEmSJEmSJEmSJElqe/8f+6Y56bFIFhwAAAAASUVORK5CYII=;clipPath=inset(21.34% 70% 23.25% 0.67%);" vertex="1" parent="mtAr1kyN9IftIoCfLyEt-1">
          <mxGeometry x="20" y="349" width="96.64" height="95.54" as="geometry" />
        </mxCell>
        <mxCell id="mtAr1kyN9IftIoCfLyEt-11" value="Service VPC&lt;br&gt;10.15.0.0/16" style="points=[[0,0],[0.25,0],[0.5,0],[0.75,0],[1,0],[1,0.25],[1,0.5],[1,0.75],[1,1],[0.75,1],[0.5,1],[0.25,1],[0,1],[0,0.75],[0,0.5],[0,0.25]];outlineConnect=0;gradientColor=none;html=1;whiteSpace=wrap;fontSize=12;fontStyle=0;container=1;pointerEvents=0;collapsible=0;recursiveResize=0;shape=mxgraph.aws4.group;grIcon=mxgraph.aws4.group_vpc2;strokeColor=#232F3E;fillColor=none;verticalAlign=top;align=left;spacingLeft=30;fontColor=#AAB7B8;dashed=0;" vertex="1" parent="mtAr1kyN9IftIoCfLyEt-1">
          <mxGeometry x="1090" y="200" width="490" height="420" as="geometry" />
        </mxCell>
        <mxCell id="mtAr1kyN9IftIoCfLyEt-12" value="Private Hosted Zone (PHZ)" style="sketch=0;outlineConnect=0;fontColor=#232F3E;gradientColor=none;strokeColor=#232F3E;fillColor=#ffffff;dashed=0;verticalLabelPosition=bottom;verticalAlign=top;align=center;html=1;fontSize=14;fontStyle=0;aspect=fixed;shape=mxgraph.aws4.resourceIcon;resIcon=mxgraph.aws4.hosted_zone;" vertex="1" parent="mtAr1kyN9IftIoCfLyEt-11">
          <mxGeometry x="85" y="32.5" width="60" height="60" as="geometry" />
        </mxCell>
        <mxCell id="mtAr1kyN9IftIoCfLyEt-13" style="edgeStyle=orthogonalEdgeStyle;rounded=0;orthogonalLoop=1;jettySize=auto;html=1;fontFamily=Helvetica;fontSize=12;fontColor=default;labelBorderColor=none;dashed=1;dashPattern=12 12;" edge="1" parent="mtAr1kyN9IftIoCfLyEt-1" source="mtAr1kyN9IftIoCfLyEt-12" target="mtAr1kyN9IftIoCfLyEt-7">
          <mxGeometry relative="1" as="geometry">
            <Array as="points">
              <mxPoint x="1205" y="170" />
              <mxPoint x="660" y="170" />
            </Array>
          </mxGeometry>
        </mxCell>
        <mxCell id="mtAr1kyN9IftIoCfLyEt-14" value="Private Hosted Zone (PHZ) Association" style="edgeLabel;html=1;align=center;verticalAlign=middle;resizable=0;points=[];rounded=1;glass=0;arcSize=33;fontFamily=Helvetica;fontSize=16;fontColor=default;labelBorderColor=none;fillColor=none;gradientColor=none;" vertex="1" connectable="0" parent="mtAr1kyN9IftIoCfLyEt-13">
          <mxGeometry x="-0.0275" y="-2" relative="1" as="geometry">
            <mxPoint x="-1" y="1" as="offset" />
          </mxGeometry>
        </mxCell>
        <mxCell id="mtAr1kyN9IftIoCfLyEt-15" value="&lt;font style=&quot;font-size: 14px;&quot;&gt;Region&lt;/font&gt;" style="sketch=0;outlineConnect=0;gradientColor=none;html=1;whiteSpace=wrap;fontSize=12;fontStyle=0;shape=mxgraph.aws4.group;grIcon=mxgraph.aws4.group_region;strokeColor=#879196;fillColor=none;verticalAlign=top;align=left;spacingLeft=30;fontColor=#879196;dashed=1;" vertex="1" parent="mtAr1kyN9IftIoCfLyEt-1">
          <mxGeometry x="280" y="120" width="1400" height="660" as="geometry" />
        </mxCell>
        <mxCell id="mtAr1kyN9IftIoCfLyEt-16" value="" style="edgeStyle=orthogonalEdgeStyle;rounded=0;orthogonalLoop=1;jettySize=auto;html=1;entryX=0;entryY=0.5;entryDx=0;entryDy=0;" edge="1" parent="mtAr1kyN9IftIoCfLyEt-1" source="mtAr1kyN9IftIoCfLyEt-8" target="mtAr1kyN9IftIoCfLyEt-18">
          <mxGeometry relative="1" as="geometry">
            <mxPoint x="-20" y="362" as="sourcePoint" />
            <mxPoint x="523" y="340" as="targetPoint" />
          </mxGeometry>
        </mxCell>
        <mxCell id="mtAr1kyN9IftIoCfLyEt-17" style="edgeStyle=orthogonalEdgeStyle;rounded=0;orthogonalLoop=1;jettySize=auto;html=1;fontFamily=Helvetica;fontSize=12;fontColor=default;labelBorderColor=none;" edge="1" parent="mtAr1kyN9IftIoCfLyEt-1" source="mtAr1kyN9IftIoCfLyEt-18" target="mtAr1kyN9IftIoCfLyEt-19">
          <mxGeometry relative="1" as="geometry" />
        </mxCell>
        <mxCell id="mtAr1kyN9IftIoCfLyEt-18" value="EC2&lt;br&gt;Instance Connect&lt;br&gt;Endpoint" style="sketch=0;outlineConnect=0;fontColor=#232F3E;gradientColor=none;fillColor=#232F3E;strokeColor=none;dashed=0;verticalLabelPosition=bottom;verticalAlign=top;align=center;html=1;fontSize=12;fontStyle=0;aspect=fixed;pointerEvents=1;shape=mxgraph.aws4.endpoint;" vertex="1" parent="mtAr1kyN9IftIoCfLyEt-1">
          <mxGeometry x="325" y="473.02" width="49" height="49" as="geometry" />
        </mxCell>
        <mxCell id="mtAr1kyN9IftIoCfLyEt-19" value="TGW ENI" style="sketch=0;outlineConnect=0;fontColor=#232F3E;gradientColor=none;fillColor=#232F3E;strokeColor=none;dashed=0;verticalLabelPosition=bottom;verticalAlign=top;align=center;html=1;fontSize=12;fontStyle=0;aspect=fixed;pointerEvents=1;shape=mxgraph.aws4.elastic_network_interface;" vertex="1" parent="mtAr1kyN9IftIoCfLyEt-1">
          <mxGeometry x="483" y="473.02" width="50" height="50" as="geometry" />
        </mxCell>
        <mxCell id="mtAr1kyN9IftIoCfLyEt-20" style="edgeStyle=orthogonalEdgeStyle;rounded=0;orthogonalLoop=1;jettySize=auto;html=1;fontFamily=Helvetica;fontSize=12;fontColor=default;labelBorderColor=none;" edge="1" parent="mtAr1kyN9IftIoCfLyEt-1">
          <mxGeometry relative="1" as="geometry">
            <mxPoint x="1033.3899999999999" y="493.71794871794873" as="sourcePoint" />
            <mxPoint x="1188.0005681430812" y="494.0256410256411" as="targetPoint" />
          </mxGeometry>
        </mxCell>
        <mxCell id="mtAr1kyN9IftIoCfLyEt-21" style="edgeStyle=orthogonalEdgeStyle;rounded=0;orthogonalLoop=1;jettySize=auto;html=1;entryX=0.5;entryY=0;entryDx=0;entryDy=0;fontFamily=Helvetica;fontSize=12;fontColor=default;labelBorderColor=none;startArrow=oval;startFill=1;endArrow=oval;endFill=1;" edge="1" parent="mtAr1kyN9IftIoCfLyEt-1" source="mtAr1kyN9IftIoCfLyEt-23" target="mtAr1kyN9IftIoCfLyEt-48">
          <mxGeometry relative="1" as="geometry" />
        </mxCell>
        <mxCell id="mtAr1kyN9IftIoCfLyEt-22" style="edgeStyle=orthogonalEdgeStyle;rounded=0;orthogonalLoop=1;jettySize=auto;html=1;fontFamily=Helvetica;fontSize=12;fontColor=default;labelBorderColor=none;" edge="1" parent="mtAr1kyN9IftIoCfLyEt-1">
          <mxGeometry relative="1" as="geometry">
            <mxPoint x="982.6199999999999" y="510.71794871794873" as="sourcePoint" />
            <mxPoint x="819.9794318569186" y="511.0256410256411" as="targetPoint" />
          </mxGeometry>
        </mxCell>
        <mxCell id="mtAr1kyN9IftIoCfLyEt-23" value="Transit&lt;br&gt;Gateway" style="sketch=0;points=[[0,0,0],[0.25,0,0],[0.5,0,0],[0.75,0,0],[1,0,0],[0,1,0],[0.25,1,0],[0.5,1,0],[0.75,1,0],[1,1,0],[0,0.25,0],[0,0.5,0],[0,0.75,0],[1,0.25,0],[1,0.5,0],[1,0.75,0]];outlineConnect=0;fontColor=#232F3E;fillColor=#232F3E;strokeColor=#FFFFFF;dashed=0;verticalLabelPosition=bottom;verticalAlign=top;align=center;html=1;fontSize=12;fontStyle=0;aspect=fixed;shape=mxgraph.aws4.resourceIcon;resIcon=mxgraph.aws4.transit_gateway;direction=south;" vertex="1" parent="mtAr1kyN9IftIoCfLyEt-1">
          <mxGeometry x="982.6199999999999" y="477.25" width="50.77" height="50.77" as="geometry" />
        </mxCell>
        <mxCell id="mtAr1kyN9IftIoCfLyEt-24" value="Availability Zone" style="fillColor=none;strokeColor=#232F3E;dashed=1;verticalAlign=top;fontStyle=0;fontColor=#147EBA;whiteSpace=wrap;html=1;" vertex="1" parent="mtAr1kyN9IftIoCfLyEt-1">
          <mxGeometry x="420" y="340" width="463" height="270" as="geometry" />
        </mxCell>
        <mxCell id="mtAr1kyN9IftIoCfLyEt-25" style="edgeStyle=orthogonalEdgeStyle;rounded=0;orthogonalLoop=1;jettySize=auto;html=1;fontFamily=Helvetica;fontSize=12;fontColor=default;labelBorderColor=none;" edge="1" parent="mtAr1kyN9IftIoCfLyEt-1">
          <mxGeometry relative="1" as="geometry">
            <mxPoint x="1335" y="509.51282051282055" as="sourcePoint" />
            <mxPoint x="1237.9994318569193" y="510.0256410256411" as="targetPoint" />
          </mxGeometry>
        </mxCell>
        <mxCell id="mtAr1kyN9IftIoCfLyEt-26" value="Server EC2 Instnace&lt;br&gt;10.15.0.100/24" style="sketch=0;outlineConnect=0;fontColor=#232F3E;gradientColor=none;fillColor=#232F3E;strokeColor=none;dashed=0;verticalLabelPosition=bottom;verticalAlign=top;align=center;html=1;fontSize=12;fontStyle=0;aspect=fixed;pointerEvents=1;shape=mxgraph.aws4.instance2;" vertex="1" parent="mtAr1kyN9IftIoCfLyEt-1">
          <mxGeometry x="1335" y="478.5" width="48" height="48" as="geometry" />
        </mxCell>
        <mxCell id="mtAr1kyN9IftIoCfLyEt-27" style="edgeStyle=orthogonalEdgeStyle;rounded=0;orthogonalLoop=1;jettySize=auto;html=1;fontFamily=Helvetica;fontSize=12;fontColor=default;labelBorderColor=none;" edge="1" parent="mtAr1kyN9IftIoCfLyEt-1">
          <mxGeometry relative="1" as="geometry">
            <mxPoint x="1237.9994318569193" y="496.0256410256411" as="sourcePoint" />
            <mxPoint x="1335" y="495.51282051282055" as="targetPoint" />
          </mxGeometry>
        </mxCell>
        <mxCell id="mtAr1kyN9IftIoCfLyEt-28" style="edgeStyle=orthogonalEdgeStyle;rounded=0;orthogonalLoop=1;jettySize=auto;html=1;fontFamily=Helvetica;fontSize=12;fontColor=default;labelBorderColor=none;" edge="1" parent="mtAr1kyN9IftIoCfLyEt-1">
          <mxGeometry relative="1" as="geometry">
            <mxPoint x="1188.0005681430812" y="512.0256410256411" as="sourcePoint" />
            <mxPoint x="1033.3899999999999" y="511.71794871794873" as="targetPoint" />
          </mxGeometry>
        </mxCell>
        <mxCell id="mtAr1kyN9IftIoCfLyEt-29" value="TGW ENI" style="sketch=0;outlineConnect=0;fontColor=#232F3E;gradientColor=none;fillColor=#232F3E;strokeColor=none;dashed=0;verticalLabelPosition=bottom;verticalAlign=top;align=center;html=1;fontSize=12;fontStyle=0;aspect=fixed;pointerEvents=1;shape=mxgraph.aws4.elastic_network_interface;" vertex="1" parent="mtAr1kyN9IftIoCfLyEt-1">
          <mxGeometry x="1188" y="478.02" width="50" height="50" as="geometry" />
        </mxCell>
        <mxCell id="mtAr1kyN9IftIoCfLyEt-30" value="VPC + 2" style="sketch=0;outlineConnect=0;fontColor=#232F3E;gradientColor=none;fillColor=#232F3E;strokeColor=none;dashed=0;verticalLabelPosition=bottom;verticalAlign=top;align=center;html=1;fontSize=12;fontStyle=0;aspect=fixed;pointerEvents=1;shape=mxgraph.aws4.route_53_resolver;" vertex="1" parent="mtAr1kyN9IftIoCfLyEt-1">
          <mxGeometry x="799" y="349" width="48" height="48" as="geometry" />
        </mxCell>
        <mxCell id="mtAr1kyN9IftIoCfLyEt-31" style="edgeStyle=orthogonalEdgeStyle;rounded=0;orthogonalLoop=1;jettySize=auto;html=1;fontFamily=Helvetica;fontSize=12;fontColor=default;labelBorderColor=none;" edge="1" parent="mtAr1kyN9IftIoCfLyEt-1">
          <mxGeometry relative="1" as="geometry">
            <mxPoint x="769.9805681430812" y="510.02" as="sourcePoint" />
            <mxPoint x="672" y="510.02" as="targetPoint" />
          </mxGeometry>
        </mxCell>
        <mxCell id="mtAr1kyN9IftIoCfLyEt-32" style="edgeStyle=orthogonalEdgeStyle;rounded=0;orthogonalLoop=1;jettySize=auto;html=1;fontFamily=Helvetica;fontSize=12;fontColor=default;labelBorderColor=none;" edge="1" parent="mtAr1kyN9IftIoCfLyEt-1">
          <mxGeometry relative="1" as="geometry">
            <mxPoint x="819.9794318569186" y="494.0256410256411" as="sourcePoint" />
            <mxPoint x="982.6199999999999" y="493.71794871794873" as="targetPoint" />
          </mxGeometry>
        </mxCell>
        <mxCell id="mtAr1kyN9IftIoCfLyEt-33" value="TGW ENI" style="sketch=0;outlineConnect=0;fontColor=#232F3E;gradientColor=none;fillColor=#232F3E;strokeColor=none;dashed=0;verticalLabelPosition=bottom;verticalAlign=top;align=center;html=1;fontSize=12;fontStyle=0;aspect=fixed;pointerEvents=1;shape=mxgraph.aws4.elastic_network_interface;" vertex="1" parent="mtAr1kyN9IftIoCfLyEt-1">
          <mxGeometry x="769.98" y="478.02" width="50" height="50" as="geometry" />
        </mxCell>
        <mxCell id="mtAr1kyN9IftIoCfLyEt-34" value="Client VPC route table" style="shape=table;startSize=30;container=1;collapsible=0;childLayout=tableLayout;rounded=1;glass=0;align=left;verticalAlign=bottom;arcSize=5;fontFamily=Helvetica;fontSize=14;labelBorderColor=none;swimlaneLine=1;shadow=0;labelBackgroundColor=none;textShadow=0;fillColor=#232F3E;fontColor=#FFFFFF;swimlaneFillColor=#000000;" vertex="1" parent="mtAr1kyN9IftIoCfLyEt-1">
          <mxGeometry x="443" y="620" width="270" height="114" as="geometry" />
        </mxCell>
        <mxCell id="mtAr1kyN9IftIoCfLyEt-35" value="" style="shape=tableRow;horizontal=0;startSize=0;swimlaneHead=0;swimlaneBody=0;strokeColor=inherit;top=0;left=0;bottom=0;right=0;collapsible=0;dropTarget=0;fillColor=none;points=[[0,0.5],[1,0.5]];portConstraint=eastwest;rounded=1;glass=0;align=left;verticalAlign=bottom;arcSize=33;fontFamily=Helvetica;fontSize=12;fontColor=default;labelBorderColor=none;labelBackgroundColor=none;textShadow=0;" vertex="1" parent="mtAr1kyN9IftIoCfLyEt-34">
          <mxGeometry y="30" width="270" height="29" as="geometry" />
        </mxCell>
        <mxCell id="mtAr1kyN9IftIoCfLyEt-36" value="destination" style="shape=partialRectangle;connectable=0;strokeColor=#36393d;overflow=hidden;fillColor=#E6F6F7;top=0;left=0;bottom=0;right=0;pointerEvents=1;rounded=1;glass=0;align=left;verticalAlign=bottom;arcSize=33;fontFamily=Helvetica;fontSize=14;labelBorderColor=none;fontStyle=2;labelBackgroundColor=none;textShadow=0;strokeWidth=4;" vertex="1" parent="mtAr1kyN9IftIoCfLyEt-35">
          <mxGeometry width="135" height="29" as="geometry">
            <mxRectangle width="135" height="29" as="alternateBounds" />
          </mxGeometry>
        </mxCell>
        <mxCell id="mtAr1kyN9IftIoCfLyEt-37" value="target" style="shape=partialRectangle;connectable=0;strokeColor=#36393d;overflow=hidden;fillColor=#E6F6F7;top=0;left=0;bottom=0;right=0;pointerEvents=1;rounded=1;glass=0;align=left;verticalAlign=bottom;arcSize=33;fontFamily=Helvetica;fontSize=14;labelBorderColor=none;fontStyle=2;labelBackgroundColor=none;textShadow=0;strokeWidth=4;" vertex="1" parent="mtAr1kyN9IftIoCfLyEt-35">
          <mxGeometry x="135" width="135" height="29" as="geometry">
            <mxRectangle width="135" height="29" as="alternateBounds" />
          </mxGeometry>
        </mxCell>
        <mxCell id="mtAr1kyN9IftIoCfLyEt-38" value="" style="shape=tableRow;horizontal=0;startSize=0;swimlaneHead=0;swimlaneBody=0;strokeColor=inherit;top=0;left=0;bottom=0;right=0;collapsible=0;dropTarget=0;fillColor=none;points=[[0,0.5],[1,0.5]];portConstraint=eastwest;rounded=1;glass=0;align=left;verticalAlign=bottom;arcSize=33;fontFamily=Helvetica;fontSize=14;fontColor=default;labelBorderColor=none;fontStyle=2;labelBackgroundColor=none;textShadow=0;" vertex="1" parent="mtAr1kyN9IftIoCfLyEt-34">
          <mxGeometry y="59" width="270" height="26" as="geometry" />
        </mxCell>
        <mxCell id="mtAr1kyN9IftIoCfLyEt-39" value="10.10.0.0/16" style="shape=partialRectangle;connectable=0;overflow=hidden;top=0;left=0;bottom=0;right=0;pointerEvents=1;rounded=1;glass=0;align=left;verticalAlign=bottom;arcSize=33;fontFamily=Helvetica;fontSize=14;labelBorderColor=none;fontStyle=0;labelBackgroundColor=none;textShadow=0;strokeWidth=4;" vertex="1" parent="mtAr1kyN9IftIoCfLyEt-38">
          <mxGeometry width="135" height="26" as="geometry">
            <mxRectangle width="135" height="26" as="alternateBounds" />
          </mxGeometry>
        </mxCell>
        <mxCell id="mtAr1kyN9IftIoCfLyEt-40" value="local" style="shape=partialRectangle;connectable=0;overflow=hidden;top=0;left=0;bottom=0;right=0;pointerEvents=1;rounded=1;glass=0;align=left;verticalAlign=bottom;arcSize=33;fontFamily=Helvetica;fontSize=14;labelBorderColor=none;fontStyle=0;labelBackgroundColor=none;textShadow=0;strokeWidth=4;" vertex="1" parent="mtAr1kyN9IftIoCfLyEt-38">
          <mxGeometry x="135" width="135" height="26" as="geometry">
            <mxRectangle width="135" height="26" as="alternateBounds" />
          </mxGeometry>
        </mxCell>
        <mxCell id="mtAr1kyN9IftIoCfLyEt-41" value="" style="shape=tableRow;horizontal=0;startSize=0;swimlaneHead=0;swimlaneBody=0;strokeColor=inherit;top=0;left=0;bottom=0;right=0;collapsible=0;dropTarget=0;fillColor=none;points=[[0,0.5],[1,0.5]];portConstraint=eastwest;rounded=1;glass=0;align=left;verticalAlign=bottom;arcSize=33;fontFamily=Helvetica;fontSize=14;fontColor=default;labelBorderColor=none;fontStyle=2;labelBackgroundColor=none;textShadow=0;" vertex="1" parent="mtAr1kyN9IftIoCfLyEt-34">
          <mxGeometry y="85" width="270" height="29" as="geometry" />
        </mxCell>
        <mxCell id="mtAr1kyN9IftIoCfLyEt-42" value="10.15.0.0/16" style="shape=partialRectangle;connectable=0;strokeColor=#36393d;overflow=hidden;fillColor=#E6F6F7;top=0;left=0;bottom=0;right=0;pointerEvents=1;rounded=1;glass=0;align=left;verticalAlign=bottom;arcSize=33;fontFamily=Helvetica;fontSize=14;labelBorderColor=none;fontStyle=0;labelBackgroundColor=none;textShadow=0;strokeWidth=4;" vertex="1" parent="mtAr1kyN9IftIoCfLyEt-41">
          <mxGeometry width="135" height="29" as="geometry">
            <mxRectangle width="135" height="29" as="alternateBounds" />
          </mxGeometry>
        </mxCell>
        <mxCell id="mtAr1kyN9IftIoCfLyEt-43" value="tgw-id" style="shape=partialRectangle;connectable=0;strokeColor=#36393d;overflow=hidden;fillColor=#E6F6F7;top=0;left=0;bottom=0;right=0;pointerEvents=1;rounded=1;glass=0;align=left;verticalAlign=bottom;arcSize=33;fontFamily=Helvetica;fontSize=14;labelBorderColor=none;fontStyle=0;labelBackgroundColor=none;textShadow=0;strokeWidth=4;" vertex="1" parent="mtAr1kyN9IftIoCfLyEt-41">
          <mxGeometry x="135" width="135" height="29" as="geometry">
            <mxRectangle width="135" height="29" as="alternateBounds" />
          </mxGeometry>
        </mxCell>
        <mxCell id="mtAr1kyN9IftIoCfLyEt-44" style="edgeStyle=orthogonalEdgeStyle;rounded=0;orthogonalLoop=1;jettySize=auto;html=1;entryX=0.75;entryY=1;entryDx=0;entryDy=0;fontFamily=Helvetica;fontSize=12;fontColor=default;labelBorderColor=none;endArrow=oval;endFill=1;startArrow=oval;startFill=1;" edge="1" parent="mtAr1kyN9IftIoCfLyEt-1" source="mtAr1kyN9IftIoCfLyEt-48" target="mtAr1kyN9IftIoCfLyEt-7">
          <mxGeometry relative="1" as="geometry">
            <Array as="points">
              <mxPoint x="785" y="697" />
            </Array>
          </mxGeometry>
        </mxCell>
        <mxCell id="mtAr1kyN9IftIoCfLyEt-45" value="TGW&amp;nbsp;&lt;div&gt;Association&lt;/div&gt;" style="edgeLabel;html=1;align=center;verticalAlign=middle;resizable=0;points=[];rounded=1;glass=0;arcSize=33;fontFamily=Helvetica;fontSize=13;fontColor=default;labelBorderColor=none;fillColor=none;gradientColor=none;labelBackgroundColor=none;" vertex="1" connectable="0" parent="mtAr1kyN9IftIoCfLyEt-44">
          <mxGeometry x="-0.1169" y="-3" relative="1" as="geometry">
            <mxPoint as="offset" />
          </mxGeometry>
        </mxCell>
        <mxCell id="mtAr1kyN9IftIoCfLyEt-48" value="Shared Services route table" style="shape=table;startSize=30;container=1;collapsible=0;childLayout=tableLayout;rounded=1;glass=0;align=left;verticalAlign=bottom;arcSize=5;fontFamily=Helvetica;fontSize=14;labelBorderColor=none;swimlaneLine=1;shadow=0;labelBackgroundColor=none;textShadow=0;fillColor=#232F3E;fontColor=#FFFFFF;swimlaneFillColor=#000000;" vertex="1" parent="mtAr1kyN9IftIoCfLyEt-1">
          <mxGeometry x="903" y="640" width="210" height="114" as="geometry" />
        </mxCell>
        <mxCell id="mtAr1kyN9IftIoCfLyEt-49" value="" style="shape=tableRow;horizontal=0;startSize=0;swimlaneHead=0;swimlaneBody=0;strokeColor=inherit;top=0;left=0;bottom=0;right=0;collapsible=0;dropTarget=0;fillColor=none;points=[[0,0.5],[1,0.5]];portConstraint=eastwest;rounded=1;glass=0;align=left;verticalAlign=bottom;arcSize=33;fontFamily=Helvetica;fontSize=12;fontColor=default;labelBorderColor=none;labelBackgroundColor=none;textShadow=0;" vertex="1" parent="mtAr1kyN9IftIoCfLyEt-48">
          <mxGeometry y="30" width="210" height="29" as="geometry" />
        </mxCell>
        <mxCell id="mtAr1kyN9IftIoCfLyEt-50" value="CIDR" style="shape=partialRectangle;connectable=0;strokeColor=#36393d;overflow=hidden;fillColor=#E6F6F7;top=0;left=0;bottom=0;right=0;pointerEvents=1;rounded=1;glass=0;align=left;verticalAlign=bottom;arcSize=33;fontFamily=Helvetica;fontSize=14;labelBorderColor=none;fontStyle=2;labelBackgroundColor=none;textShadow=0;strokeWidth=4;" vertex="1" parent="mtAr1kyN9IftIoCfLyEt-49">
          <mxGeometry width="105" height="29" as="geometry">
            <mxRectangle width="105" height="29" as="alternateBounds" />
          </mxGeometry>
        </mxCell>
        <mxCell id="mtAr1kyN9IftIoCfLyEt-51" value="attachment" style="shape=partialRectangle;connectable=0;strokeColor=#36393d;overflow=hidden;fillColor=#E6F6F7;top=0;left=0;bottom=0;right=0;pointerEvents=1;rounded=1;glass=0;align=left;verticalAlign=bottom;arcSize=33;fontFamily=Helvetica;fontSize=14;labelBorderColor=none;fontStyle=2;labelBackgroundColor=none;textShadow=0;strokeWidth=4;" vertex="1" parent="mtAr1kyN9IftIoCfLyEt-49">
          <mxGeometry x="105" width="105" height="29" as="geometry">
            <mxRectangle width="105" height="29" as="alternateBounds" />
          </mxGeometry>
        </mxCell>
        <mxCell id="mtAr1kyN9IftIoCfLyEt-52" value="" style="shape=tableRow;horizontal=0;startSize=0;swimlaneHead=0;swimlaneBody=0;strokeColor=inherit;top=0;left=0;bottom=0;right=0;collapsible=0;dropTarget=0;fillColor=none;points=[[0,0.5],[1,0.5]];portConstraint=eastwest;rounded=1;glass=0;align=left;verticalAlign=bottom;arcSize=33;fontFamily=Helvetica;fontSize=14;fontColor=default;labelBorderColor=none;fontStyle=2;labelBackgroundColor=none;textShadow=0;" vertex="1" parent="mtAr1kyN9IftIoCfLyEt-48">
          <mxGeometry y="59" width="210" height="26" as="geometry" />
        </mxCell>
        <mxCell id="mtAr1kyN9IftIoCfLyEt-53" value="10.10.0.0/16" style="shape=partialRectangle;connectable=0;overflow=hidden;top=0;left=0;bottom=0;right=0;pointerEvents=1;rounded=1;glass=0;align=left;verticalAlign=bottom;arcSize=33;fontFamily=Helvetica;fontSize=14;labelBorderColor=none;fontStyle=0;labelBackgroundColor=none;textShadow=0;strokeWidth=4;" vertex="1" parent="mtAr1kyN9IftIoCfLyEt-52">
          <mxGeometry width="105" height="26" as="geometry">
            <mxRectangle width="105" height="26" as="alternateBounds" />
          </mxGeometry>
        </mxCell>
        <mxCell id="mtAr1kyN9IftIoCfLyEt-54" value="local" style="shape=partialRectangle;connectable=0;overflow=hidden;top=0;left=0;bottom=0;right=0;pointerEvents=1;rounded=1;glass=0;align=left;verticalAlign=bottom;arcSize=33;fontFamily=Helvetica;fontSize=14;labelBorderColor=none;fontStyle=0;labelBackgroundColor=none;textShadow=0;strokeWidth=4;" vertex="1" parent="mtAr1kyN9IftIoCfLyEt-52">
          <mxGeometry x="105" width="105" height="26" as="geometry">
            <mxRectangle width="105" height="26" as="alternateBounds" />
          </mxGeometry>
        </mxCell>
        <mxCell id="mtAr1kyN9IftIoCfLyEt-55" value="" style="shape=tableRow;horizontal=0;startSize=0;swimlaneHead=0;swimlaneBody=0;strokeColor=inherit;top=0;left=0;bottom=0;right=0;collapsible=0;dropTarget=0;fillColor=none;points=[[0,0.5],[1,0.5]];portConstraint=eastwest;rounded=1;glass=0;align=left;verticalAlign=bottom;arcSize=33;fontFamily=Helvetica;fontSize=14;fontColor=default;labelBorderColor=none;fontStyle=2;labelBackgroundColor=none;textShadow=0;" vertex="1" parent="mtAr1kyN9IftIoCfLyEt-48">
          <mxGeometry y="85" width="210" height="29" as="geometry" />
        </mxCell>
        <mxCell id="mtAr1kyN9IftIoCfLyEt-56" value="10.15.0.0/16" style="shape=partialRectangle;connectable=0;strokeColor=#36393d;overflow=hidden;fillColor=#E6F6F7;top=0;left=0;bottom=0;right=0;pointerEvents=1;rounded=1;glass=0;align=left;verticalAlign=bottom;arcSize=33;fontFamily=Helvetica;fontSize=14;labelBorderColor=none;fontStyle=0;labelBackgroundColor=none;textShadow=0;strokeWidth=4;" vertex="1" parent="mtAr1kyN9IftIoCfLyEt-55">
          <mxGeometry width="105" height="29" as="geometry">
            <mxRectangle width="105" height="29" as="alternateBounds" />
          </mxGeometry>
        </mxCell>
        <mxCell id="mtAr1kyN9IftIoCfLyEt-57" value="tgw-id" style="shape=partialRectangle;connectable=0;strokeColor=#36393d;overflow=hidden;fillColor=#E6F6F7;top=0;left=0;bottom=0;right=0;pointerEvents=1;rounded=1;glass=0;align=left;verticalAlign=bottom;arcSize=33;fontFamily=Helvetica;fontSize=14;labelBorderColor=none;fontStyle=0;labelBackgroundColor=none;textShadow=0;strokeWidth=4;" vertex="1" parent="mtAr1kyN9IftIoCfLyEt-55">
          <mxGeometry x="105" width="105" height="29" as="geometry">
            <mxRectangle width="105" height="29" as="alternateBounds" />
          </mxGeometry>
        </mxCell>
        <mxCell id="mtAr1kyN9IftIoCfLyEt-58" style="edgeStyle=orthogonalEdgeStyle;rounded=0;orthogonalLoop=1;jettySize=auto;html=1;fontFamily=Helvetica;fontSize=12;fontColor=default;labelBorderColor=none;exitX=0;exitY=0.5;exitDx=0;exitDy=0;startArrow=oval;startFill=1;endArrow=oval;endFill=1;" edge="1" parent="mtAr1kyN9IftIoCfLyEt-1" source="War9mPs1l9NcxkinXF0N-1" target="mtAr1kyN9IftIoCfLyEt-12">
          <mxGeometry relative="1" as="geometry">
            <mxPoint x="1324" y="262.4999999999999" as="sourcePoint" />
          </mxGeometry>
        </mxCell>
        <mxCell id="mtAr1kyN9IftIoCfLyEt-66" value="Service VPC route table" style="shape=table;startSize=30;container=1;collapsible=0;childLayout=tableLayout;rounded=1;glass=0;align=left;verticalAlign=bottom;arcSize=5;fontFamily=Helvetica;fontSize=14;labelBorderColor=none;swimlaneLine=1;shadow=0;labelBackgroundColor=none;textShadow=0;fillColor=#232F3E;fontColor=#FFFFFF;swimlaneFillColor=#000000;" vertex="1" parent="mtAr1kyN9IftIoCfLyEt-1">
          <mxGeometry x="1305" y="620" width="258" height="114" as="geometry" />
        </mxCell>
        <mxCell id="mtAr1kyN9IftIoCfLyEt-67" value="" style="shape=tableRow;horizontal=0;startSize=0;swimlaneHead=0;swimlaneBody=0;strokeColor=inherit;top=0;left=0;bottom=0;right=0;collapsible=0;dropTarget=0;fillColor=none;points=[[0,0.5],[1,0.5]];portConstraint=eastwest;rounded=1;glass=0;align=left;verticalAlign=bottom;arcSize=33;fontFamily=Helvetica;fontSize=12;fontColor=default;labelBorderColor=none;labelBackgroundColor=none;textShadow=0;" vertex="1" parent="mtAr1kyN9IftIoCfLyEt-66">
          <mxGeometry y="30" width="258" height="29" as="geometry" />
        </mxCell>
        <mxCell id="mtAr1kyN9IftIoCfLyEt-68" value="destination" style="shape=partialRectangle;connectable=0;strokeColor=#36393d;overflow=hidden;fillColor=#E6F6F7;top=0;left=0;bottom=0;right=0;pointerEvents=1;rounded=1;glass=0;align=left;verticalAlign=bottom;arcSize=33;fontFamily=Helvetica;fontSize=14;labelBorderColor=none;fontStyle=2;labelBackgroundColor=none;textShadow=0;strokeWidth=4;" vertex="1" parent="mtAr1kyN9IftIoCfLyEt-67">
          <mxGeometry width="129" height="29" as="geometry">
            <mxRectangle width="129" height="29" as="alternateBounds" />
          </mxGeometry>
        </mxCell>
        <mxCell id="mtAr1kyN9IftIoCfLyEt-69" value="target" style="shape=partialRectangle;connectable=0;strokeColor=#36393d;overflow=hidden;fillColor=#E6F6F7;top=0;left=0;bottom=0;right=0;pointerEvents=1;rounded=1;glass=0;align=left;verticalAlign=bottom;arcSize=33;fontFamily=Helvetica;fontSize=14;labelBorderColor=none;fontStyle=2;labelBackgroundColor=none;textShadow=0;strokeWidth=4;" vertex="1" parent="mtAr1kyN9IftIoCfLyEt-67">
          <mxGeometry x="129" width="129" height="29" as="geometry">
            <mxRectangle width="129" height="29" as="alternateBounds" />
          </mxGeometry>
        </mxCell>
        <mxCell id="mtAr1kyN9IftIoCfLyEt-70" value="" style="shape=tableRow;horizontal=0;startSize=0;swimlaneHead=0;swimlaneBody=0;strokeColor=inherit;top=0;left=0;bottom=0;right=0;collapsible=0;dropTarget=0;fillColor=none;points=[[0,0.5],[1,0.5]];portConstraint=eastwest;rounded=1;glass=0;align=left;verticalAlign=bottom;arcSize=33;fontFamily=Helvetica;fontSize=14;fontColor=default;labelBorderColor=none;fontStyle=2;labelBackgroundColor=none;textShadow=0;" vertex="1" parent="mtAr1kyN9IftIoCfLyEt-66">
          <mxGeometry y="59" width="258" height="26" as="geometry" />
        </mxCell>
        <mxCell id="mtAr1kyN9IftIoCfLyEt-71" value="10.15.0.0/16" style="shape=partialRectangle;connectable=0;overflow=hidden;top=0;left=0;bottom=0;right=0;pointerEvents=1;rounded=1;glass=0;align=left;verticalAlign=bottom;arcSize=33;fontFamily=Helvetica;fontSize=14;labelBorderColor=none;fontStyle=0;labelBackgroundColor=none;textShadow=0;strokeWidth=4;" vertex="1" parent="mtAr1kyN9IftIoCfLyEt-70">
          <mxGeometry width="129" height="26" as="geometry">
            <mxRectangle width="129" height="26" as="alternateBounds" />
          </mxGeometry>
        </mxCell>
        <mxCell id="mtAr1kyN9IftIoCfLyEt-72" value="local" style="shape=partialRectangle;connectable=0;overflow=hidden;top=0;left=0;bottom=0;right=0;pointerEvents=1;rounded=1;glass=0;align=left;verticalAlign=bottom;arcSize=33;fontFamily=Helvetica;fontSize=14;labelBorderColor=none;fontStyle=0;labelBackgroundColor=none;textShadow=0;strokeWidth=4;" vertex="1" parent="mtAr1kyN9IftIoCfLyEt-70">
          <mxGeometry x="129" width="129" height="26" as="geometry">
            <mxRectangle width="129" height="26" as="alternateBounds" />
          </mxGeometry>
        </mxCell>
        <mxCell id="mtAr1kyN9IftIoCfLyEt-73" value="" style="shape=tableRow;horizontal=0;startSize=0;swimlaneHead=0;swimlaneBody=0;strokeColor=inherit;top=0;left=0;bottom=0;right=0;collapsible=0;dropTarget=0;fillColor=none;points=[[0,0.5],[1,0.5]];portConstraint=eastwest;rounded=1;glass=0;align=left;verticalAlign=bottom;arcSize=33;fontFamily=Helvetica;fontSize=14;fontColor=default;labelBorderColor=none;fontStyle=2;labelBackgroundColor=none;textShadow=0;" vertex="1" parent="mtAr1kyN9IftIoCfLyEt-66">
          <mxGeometry y="85" width="258" height="29" as="geometry" />
        </mxCell>
        <mxCell id="mtAr1kyN9IftIoCfLyEt-74" value="10.10.0.0/16" style="shape=partialRectangle;connectable=0;strokeColor=#36393d;overflow=hidden;fillColor=#E6F6F7;top=0;left=0;bottom=0;right=0;pointerEvents=1;rounded=1;glass=0;align=left;verticalAlign=bottom;arcSize=33;fontFamily=Helvetica;fontSize=14;labelBorderColor=none;fontStyle=0;labelBackgroundColor=none;textShadow=0;strokeWidth=4;" vertex="1" parent="mtAr1kyN9IftIoCfLyEt-73">
          <mxGeometry width="129" height="29" as="geometry">
            <mxRectangle width="129" height="29" as="alternateBounds" />
          </mxGeometry>
        </mxCell>
        <mxCell id="mtAr1kyN9IftIoCfLyEt-75" value="tgw-id" style="shape=partialRectangle;connectable=0;strokeColor=#36393d;overflow=hidden;fillColor=#E6F6F7;top=0;left=0;bottom=0;right=0;pointerEvents=1;rounded=1;glass=0;align=left;verticalAlign=bottom;arcSize=33;fontFamily=Helvetica;fontSize=14;labelBorderColor=none;fontStyle=0;labelBackgroundColor=none;textShadow=0;strokeWidth=4;" vertex="1" parent="mtAr1kyN9IftIoCfLyEt-73">
          <mxGeometry x="129" width="129" height="29" as="geometry">
            <mxRectangle width="129" height="29" as="alternateBounds" />
          </mxGeometry>
        </mxCell>
        <mxCell id="mtAr1kyN9IftIoCfLyEt-76" value="VPC + 2" style="sketch=0;outlineConnect=0;fontColor=#232F3E;gradientColor=none;fillColor=#232F3E;strokeColor=none;dashed=0;verticalLabelPosition=bottom;verticalAlign=top;align=center;html=1;fontSize=12;fontStyle=0;aspect=fixed;pointerEvents=1;shape=mxgraph.aws4.route_53_resolver;" vertex="1" parent="mtAr1kyN9IftIoCfLyEt-1">
          <mxGeometry x="1183" y="349" width="48" height="48" as="geometry" />
        </mxCell>
        <mxCell id="mtAr1kyN9IftIoCfLyEt-77" value="Availability Zone" style="fillColor=none;strokeColor=#232F3E;dashed=1;verticalAlign=top;fontStyle=0;fontColor=#147EBA;whiteSpace=wrap;html=1;" vertex="1" parent="mtAr1kyN9IftIoCfLyEt-1">
          <mxGeometry x="1130" y="340" width="423" height="270" as="geometry" />
        </mxCell>
        <mxCell id="mtAr1kyN9IftIoCfLyEt-78" value="A" style="ellipse;whiteSpace=wrap;html=1;aspect=fixed;fontSize=14;" vertex="1" parent="mtAr1kyN9IftIoCfLyEt-1">
          <mxGeometry x="600" y="800" width="20" height="20" as="geometry" />
        </mxCell>
        <mxCell id="mtAr1kyN9IftIoCfLyEt-79" value="1" style="whiteSpace=wrap;html=1;aspect=fixed;rounded=1;fontSize=14;" vertex="1" parent="mtAr1kyN9IftIoCfLyEt-1">
          <mxGeometry x="680" y="790" width="20" height="20" as="geometry" />
        </mxCell>
        <mxCell id="mtAr1kyN9IftIoCfLyEt-80" value="1" style="whiteSpace=wrap;html=1;aspect=fixed;rounded=1;fontSize=14;fontColor=#FFFFFF;fillColor=#232F3E;" vertex="1" parent="mtAr1kyN9IftIoCfLyEt-1">
          <mxGeometry x="883" y="474.25" width="20" height="20" as="geometry" />
        </mxCell>
        <mxCell id="mtAr1kyN9IftIoCfLyEt-81" value="A" style="ellipse;whiteSpace=wrap;html=1;aspect=fixed;fontSize=14;fillColor=#232F3E;fontColor=#FFFFFF;" vertex="1" parent="mtAr1kyN9IftIoCfLyEt-1">
          <mxGeometry x="620" y="840" width="20" height="20" as="geometry" />
        </mxCell>
        <mxCell id="mtAr1kyN9IftIoCfLyEt-82" value="1" style="whiteSpace=wrap;html=1;aspect=fixed;rounded=1;fontSize=14;fontColor=#FFFFFF;fillColor=#232F3E;" vertex="1" parent="mtAr1kyN9IftIoCfLyEt-1">
          <mxGeometry x="850" y="830" width="20" height="20" as="geometry" />
        </mxCell>
        <mxCell id="mtAr1kyN9IftIoCfLyEt-83" value="1" style="whiteSpace=wrap;html=1;aspect=fixed;rounded=1;fontSize=14;fontColor=#FFFFFF;fillColor=#232F3E;" vertex="1" parent="mtAr1kyN9IftIoCfLyEt-1">
          <mxGeometry x="1070" y="474.25" width="20" height="20" as="geometry" />
        </mxCell>
        <mxCell id="mtAr1kyN9IftIoCfLyEt-84" value="1" style="whiteSpace=wrap;html=1;aspect=fixed;rounded=1;fontSize=14;fontColor=#FFFFFF;fillColor=#232F3E;" vertex="1" parent="mtAr1kyN9IftIoCfLyEt-1">
          <mxGeometry x="1275" y="476.25" width="20" height="20" as="geometry" />
        </mxCell>
        <mxCell id="mtAr1kyN9IftIoCfLyEt-85" value="1" style="whiteSpace=wrap;html=1;aspect=fixed;rounded=1;fontSize=14;fontColor=#FFFFFF;fillColor=#232F3E;" vertex="1" parent="mtAr1kyN9IftIoCfLyEt-1">
          <mxGeometry x="638" y="420" width="20" height="20" as="geometry" />
        </mxCell>
        <mxCell id="mtAr1kyN9IftIoCfLyEt-86" value="1" style="whiteSpace=wrap;html=1;aspect=fixed;rounded=1;fontSize=14;fontColor=#FFFFFF;fillColor=#232F3E;" vertex="1" parent="mtAr1kyN9IftIoCfLyEt-1">
          <mxGeometry x="920" y="810" width="20" height="20" as="geometry" />
        </mxCell>
        <mxCell id="mtAr1kyN9IftIoCfLyEt-87" value="1" style="whiteSpace=wrap;html=1;aspect=fixed;rounded=1;fontSize=14;fontColor=#FFFFFF;fillColor=#232F3E;" vertex="1" parent="mtAr1kyN9IftIoCfLyEt-1">
          <mxGeometry x="710" y="476.25" width="20" height="20" as="geometry" />
        </mxCell>
        <mxCell id="mtAr1kyN9IftIoCfLyEt-88" value="1" style="whiteSpace=wrap;html=1;aspect=fixed;rounded=1;fontSize=14;" vertex="1" parent="mtAr1kyN9IftIoCfLyEt-1">
          <mxGeometry x="720" y="510.02" width="20" height="20" as="geometry" />
        </mxCell>
        <mxCell id="mtAr1kyN9IftIoCfLyEt-89" value="1" style="whiteSpace=wrap;html=1;aspect=fixed;rounded=1;fontSize=14;" vertex="1" parent="mtAr1kyN9IftIoCfLyEt-1">
          <mxGeometry x="913" y="510.02" width="20" height="20" as="geometry" />
        </mxCell>
        <mxCell id="mtAr1kyN9IftIoCfLyEt-90" value="1" style="whiteSpace=wrap;html=1;aspect=fixed;rounded=1;fontSize=14;" vertex="1" parent="mtAr1kyN9IftIoCfLyEt-1">
          <mxGeometry x="1090" y="510.02" width="20" height="20" as="geometry" />
        </mxCell>
        <mxCell id="mtAr1kyN9IftIoCfLyEt-91" value="1" style="whiteSpace=wrap;html=1;aspect=fixed;rounded=1;fontSize=14;" vertex="1" parent="mtAr1kyN9IftIoCfLyEt-1">
          <mxGeometry x="1277" y="510.02" width="20" height="20" as="geometry" />
        </mxCell>
        <mxCell id="mtAr1kyN9IftIoCfLyEt-92" value="A" style="whiteSpace=wrap;html=1;aspect=fixed;rounded=1;fontSize=14;" vertex="1" parent="mtAr1kyN9IftIoCfLyEt-1">
          <mxGeometry x="749.98" y="800" width="20" height="20" as="geometry" />
        </mxCell>
        <mxCell id="War9mPs1l9NcxkinXF0N-0" value="Zone: app.service.internal" style="shape=table;startSize=30;container=1;collapsible=0;childLayout=tableLayout;rounded=1;glass=0;align=left;verticalAlign=bottom;arcSize=5;fontFamily=Helvetica;fontSize=14;labelBorderColor=none;swimlaneLine=1;shadow=1;labelBackgroundColor=none;textShadow=0;fillColor=#232F3E;fontColor=#FFFFFF;swimlaneFillColor=#000000;" vertex="1" parent="mtAr1kyN9IftIoCfLyEt-1">
          <mxGeometry x="1297" y="218" width="333" height="86" as="geometry" />
        </mxCell>
        <mxCell id="War9mPs1l9NcxkinXF0N-1" value="" style="shape=tableRow;horizontal=0;startSize=0;swimlaneHead=0;swimlaneBody=0;strokeColor=inherit;top=0;left=0;bottom=0;right=0;collapsible=0;dropTarget=0;fillColor=none;points=[[0,0.5],[1,0.5]];portConstraint=eastwest;rounded=1;glass=0;align=left;verticalAlign=bottom;arcSize=33;fontFamily=Helvetica;fontSize=12;fontColor=default;labelBorderColor=none;labelBackgroundColor=none;textShadow=0;" vertex="1" parent="War9mPs1l9NcxkinXF0N-0">
          <mxGeometry y="30" width="333" height="30" as="geometry" />
        </mxCell>
        <mxCell id="War9mPs1l9NcxkinXF0N-2" value="Name" style="shape=partialRectangle;connectable=0;strokeColor=#36393d;overflow=hidden;fillColor=#E6F6F7;top=0;left=0;bottom=0;right=0;pointerEvents=1;rounded=1;glass=0;align=center;verticalAlign=bottom;arcSize=33;fontFamily=Helvetica;fontSize=14;labelBorderColor=none;fontStyle=2;labelBackgroundColor=none;textShadow=0;strokeWidth=4;" vertex="1" parent="War9mPs1l9NcxkinXF0N-1">
          <mxGeometry width="133" height="30" as="geometry">
            <mxRectangle width="133" height="30" as="alternateBounds" />
          </mxGeometry>
        </mxCell>
        <mxCell id="War9mPs1l9NcxkinXF0N-3" value="Type" style="shape=partialRectangle;connectable=0;strokeColor=#36393d;overflow=hidden;fillColor=#E6F6F7;top=0;left=0;bottom=0;right=0;pointerEvents=1;rounded=1;glass=0;align=center;verticalAlign=bottom;arcSize=33;fontFamily=Helvetica;fontSize=14;labelBorderColor=none;fontStyle=2;labelBackgroundColor=none;textShadow=0;strokeWidth=4;" vertex="1" parent="War9mPs1l9NcxkinXF0N-1">
          <mxGeometry x="133" width="57" height="30" as="geometry">
            <mxRectangle width="57" height="30" as="alternateBounds" />
          </mxGeometry>
        </mxCell>
        <mxCell id="War9mPs1l9NcxkinXF0N-4" value="Value" style="shape=partialRectangle;connectable=0;strokeColor=#36393d;overflow=hidden;fillColor=#E6F6F7;top=0;left=0;bottom=0;right=0;pointerEvents=1;rounded=1;glass=0;align=center;verticalAlign=bottom;arcSize=33;fontFamily=Helvetica;fontSize=14;labelBorderColor=none;fontStyle=2;labelBackgroundColor=none;textShadow=0;strokeWidth=4;" vertex="1" parent="War9mPs1l9NcxkinXF0N-1">
          <mxGeometry x="190" width="143" height="30" as="geometry">
            <mxRectangle width="143" height="30" as="alternateBounds" />
          </mxGeometry>
        </mxCell>
        <mxCell id="War9mPs1l9NcxkinXF0N-5" value="" style="shape=tableRow;horizontal=0;startSize=0;swimlaneHead=0;swimlaneBody=0;strokeColor=inherit;top=0;left=0;bottom=0;right=0;collapsible=0;dropTarget=0;fillColor=none;points=[[0,0.5],[1,0.5]];portConstraint=eastwest;rounded=1;glass=0;align=left;verticalAlign=bottom;arcSize=33;fontFamily=Helvetica;fontSize=14;fontColor=default;labelBorderColor=none;fontStyle=2;labelBackgroundColor=none;textShadow=0;" vertex="1" parent="War9mPs1l9NcxkinXF0N-0">
          <mxGeometry y="60" width="333" height="26" as="geometry" />
        </mxCell>
        <mxCell id="War9mPs1l9NcxkinXF0N-6" value="app.service.internal" style="shape=partialRectangle;connectable=0;overflow=hidden;top=0;left=0;bottom=0;right=0;pointerEvents=1;rounded=1;glass=0;align=center;verticalAlign=bottom;arcSize=33;fontFamily=Helvetica;fontSize=14;labelBorderColor=none;fontStyle=0;labelBackgroundColor=none;textShadow=0;strokeWidth=4;" vertex="1" parent="War9mPs1l9NcxkinXF0N-5">
          <mxGeometry width="133" height="26" as="geometry">
            <mxRectangle width="133" height="26" as="alternateBounds" />
          </mxGeometry>
        </mxCell>
        <mxCell id="War9mPs1l9NcxkinXF0N-7" value="A" style="shape=partialRectangle;connectable=0;overflow=hidden;top=0;left=0;bottom=0;right=0;pointerEvents=1;rounded=1;glass=0;align=center;verticalAlign=bottom;arcSize=33;fontFamily=Helvetica;fontSize=14;labelBorderColor=none;fontStyle=0;labelBackgroundColor=none;textShadow=0;strokeWidth=4;" vertex="1" parent="War9mPs1l9NcxkinXF0N-5">
          <mxGeometry x="133" width="57" height="26" as="geometry">
            <mxRectangle width="57" height="26" as="alternateBounds" />
          </mxGeometry>
        </mxCell>
        <mxCell id="War9mPs1l9NcxkinXF0N-8" value="10.15.0.100/24" style="shape=partialRectangle;connectable=0;overflow=hidden;top=0;left=0;bottom=0;right=0;pointerEvents=1;rounded=1;glass=0;align=center;verticalAlign=bottom;arcSize=33;fontFamily=Helvetica;fontSize=14;labelBorderColor=none;fontStyle=0;labelBackgroundColor=none;textShadow=0;strokeWidth=4;" vertex="1" parent="War9mPs1l9NcxkinXF0N-5">
          <mxGeometry x="190" width="143" height="26" as="geometry">
            <mxRectangle width="143" height="26" as="alternateBounds" />
          </mxGeometry>
        </mxCell>
        <mxCell id="War9mPs1l9NcxkinXF0N-10" style="edgeStyle=orthogonalEdgeStyle;rounded=0;orthogonalLoop=1;jettySize=auto;html=1;entryX=0.25;entryY=1;entryDx=0;entryDy=0;startArrow=oval;startFill=1;endArrow=oval;endFill=1;" edge="1" parent="mtAr1kyN9IftIoCfLyEt-1" source="mtAr1kyN9IftIoCfLyEt-52" target="mtAr1kyN9IftIoCfLyEt-11">
          <mxGeometry relative="1" as="geometry" />
        </mxCell>
        <mxCell id="War9mPs1l9NcxkinXF0N-11" value="&lt;span style=&quot;font-size: 13px;&quot;&gt;TGW&amp;nbsp;&lt;/span&gt;&lt;div style=&quot;font-size: 13px;&quot;&gt;Association&lt;/div&gt;" style="edgeLabel;html=1;align=center;verticalAlign=middle;resizable=0;points=[];labelBackgroundColor=none;" vertex="1" connectable="0" parent="War9mPs1l9NcxkinXF0N-10">
          <mxGeometry x="0.2774" y="-1" relative="1" as="geometry">
            <mxPoint as="offset" />
          </mxGeometry>
        </mxCell>
      </root>
    </mxGraphModel>
  </diagram>
</mxfile>
